<?xml version="1.0" encoding="utf-8"?>
<!-- Generator: Adobe Illustrator 27.3.1, SVG Export Plug-In . SVG Version: 6.00 Build 0)  -->
<svg version="1.1" xmlns="http://www.w3.org/2000/svg" xmlns:xlink="http://www.w3.org/1999/xlink" x="0px" y="0px"
	 viewBox="0 0 1920 1080" style="enable-background:new 0 0 1920 1080;" xml:space="preserve">
<style type="text/css">
	.st0{fill:#C0D8F2;}
	.st1{opacity:0.32;fill:#C4ECFF;}
	.st2{fill:#00335A;}
	.st3{fill:#688387;}
	.st4{fill:none;stroke:#000000;stroke-width:0.75;stroke-linecap:round;stroke-miterlimit:10;}
	.st5{fill:#FFFFFF;stroke:#F5643F;stroke-width:28;stroke-miterlimit:10;}
	.st6{fill:#FFFFFF;}
	.st7{fill:none;stroke:#000000;stroke-linecap:round;stroke-miterlimit:10;}
	.st8{fill:#FFAE79;}
	.st9{fill:#F5643F;}
</style>
<g id="Облака">
	<g>
		<g>
			<path class="st0" d="M1042.3,164.3h211.8c12.4,0,22.4-10,22.4-22.4l-2.5-6.9l-254.1,0.2v6.8
				C1019.9,154.3,1029.9,164.3,1042.3,164.3z"/>
			<circle class="st0" cx="1036.4" cy="135" r="16.5"/>
			<circle class="st0" cx="1260" cy="142" r="16.5"/>
			<circle class="st0" cx="1151.1" cy="138.1" r="16.5"/>
			<circle class="st0" cx="1185.3" cy="117.5" r="29.3"/>
			<circle class="st0" cx="1070.4" cy="119.7" r="27.1"/>
			<circle class="st0" cx="1223.9" cy="137.2" r="27.1"/>
			<circle class="st0" cx="1112.8" cy="131.7" r="26.8"/>
		</g>
		<g>
			<path class="st0" d="M1590.8,420.2h-130.2c-7.6,0-13.8-6.2-13.8-13.8v-4.2h157.7v4.2C1604.6,414,1598.4,420.2,1590.8,420.2z"/>
			<circle class="st0" cx="1594.4" cy="406.4" r="10.2"/>
			<circle class="st0" cx="1456" cy="404.4" r="10.2"/>
			<circle class="st0" cx="1523.9" cy="404" r="10.2"/>
			<circle class="st0" cx="1502.9" cy="391.4" r="18"/>
			<circle class="st0" cx="1573.5" cy="392.7" r="16.7"/>
			<circle class="st0" cx="1479.1" cy="403.5" r="16.7"/>
			<circle class="st0" cx="1547.5" cy="400.1" r="16.5"/>
		</g>
		<g>
			<path class="st0" d="M460,292.8H329.3c-7.6,0-13.8-6.2-13.8-13.8v-4.2h158.3v4.2C473.8,286.7,467.6,292.8,460,292.8z"/>
			<circle class="st0" cx="464.5" cy="277.3" r="10.2"/>
			<circle class="st0" cx="325.6" cy="279.1" r="10.2"/>
			<circle class="st0" cx="429.5" cy="260.5" r="10.2"/>
			<circle class="st0" cx="378.1" cy="264" r="25.2"/>
			<circle class="st0" cx="413.1" cy="272.5" r="16.7"/>
			<circle class="st0" cx="347.9" cy="276.1" r="16.7"/>
			<circle class="st0" cx="440.7" cy="276.3" r="16.5"/>
		</g>
	</g>
</g>
<g id="Фон">
	<path class="st1" d="M981.9,988.7c0,0,119,98.3,288-136.7s183-517,28-537s-209-11-293-53s-189-133-348-16s-204,204-152,320
		c81.7,182.2,119,161,137,247C659.6,897.3,624,986.3,981.9,988.7z"/>
</g>
<g id="Sezual">
	<g>
		<g>
			<circle class="st2" cx="571" cy="113.9" r="17.6"/>
			<circle class="st2" cx="505" cy="149.5" r="19.1"/>
			<circle class="st2" cx="542.4" cy="170.5" r="17.8"/>
			<circle class="st2" cx="535.6" cy="102.1" r="13"/>
			<circle class="st2" cx="504.7" cy="110.6" r="13"/>
			<circle class="st2" cx="523.1" cy="235.9" r="13"/>
			<circle class="st2" cx="492.2" cy="229.5" r="13"/>
			<circle class="st2" cx="580" cy="190.2" r="13"/>
			<circle class="st2" cx="577" cy="219.2" r="13"/>
			<circle class="st2" cx="552" cy="236.2" r="13"/>
		</g>
		<g>
			<circle class="st2" cx="656" cy="141.8" r="18"/>
			<circle class="st2" cx="696.5" cy="234.5" r="17.9"/>
			<circle class="st2" cx="687.3" cy="168.6" r="13"/>
			<circle class="st2" cx="721.3" cy="168.6" r="13"/>
			<circle class="st2" cx="656.1" cy="102.8" r="18"/>
			<circle class="st2" cx="656.9" cy="234.2" r="18"/>
			<circle class="st2" cx="654.8" cy="175.7" r="13"/>
			<circle class="st2" cx="654.8" cy="202.7" r="13"/>
			<circle class="st2" cx="729.7" cy="236.3" r="13"/>
			<circle class="st2" cx="758.7" cy="236.3" r="13"/>
			<circle class="st2" cx="693.2" cy="106.6" r="13"/>
			<circle class="st2" cx="722.2" cy="106.6" r="13"/>
			<circle class="st2" cx="750.2" cy="106.6" r="13"/>
		</g>
		<g>
			<g>
				<circle class="st2" cx="1161.2" cy="229.9" r="17.8"/>
				<circle class="st2" cx="1282.2" cy="229.9" r="17.8"/>
				
					<ellipse transform="matrix(0.4212 -0.907 0.907 0.4212 583.735 1235.8064)" class="st2" cx="1260.1" cy="160.6" rx="18.2" ry="18.2"/>
				
					<ellipse transform="matrix(0.1075 -0.9942 0.9942 0.1075 897.6917 1324.0409)" class="st2" cx="1186.3" cy="162" rx="18.2" ry="18.2"/>
				<circle class="st2" cx="1174.4" cy="195.5" r="13"/>
				<circle class="st2" cx="1208.2" cy="194.5" r="13"/>
				<circle class="st2" cx="1239" cy="194.5" r="13"/>
				<circle class="st2" cx="1271" cy="194.5" r="13"/>
				<circle class="st2" cx="1224" cy="103.4" r="13"/>
				<circle class="st2" cx="1241" cy="129" r="13"/>
				<circle class="st2" cx="1203.4" cy="127.4" r="13"/>
			</g>
		</g>
		<g>
			
				<ellipse transform="matrix(6.569391e-02 -0.9978 0.9978 6.569391e-02 1107.1174 1646.8971)" class="st2" cx="1433" cy="232.2" rx="18.4" ry="18.4"/>
			
				<ellipse transform="matrix(0.1119 -0.9937 0.9937 0.1119 974.8838 1551.2209)" class="st2" cx="1355.3" cy="230.2" rx="18.4" ry="18.4"/>
			
				<ellipse transform="matrix(0.5556 -0.8314 0.8314 0.5556 472.846 1196.1995)" class="st2" cx="1355.5" cy="155.7" rx="18.5" ry="18.5"/>
			<circle class="st2" cx="1356" cy="193.1" r="13"/>
			<circle class="st2" cx="1356" cy="117.8" r="13"/>
			<circle class="st2" cx="1356" cy="90.5" r="13"/>
			<circle class="st2" cx="1394.4" cy="234.7" r="13"/>
		</g>
		<g>
			
				<ellipse transform="matrix(0.9989 -4.694016e-02 4.694016e-02 0.9989 -3.9922 46.232)" class="st2" cx="982.4" cy="108.1" rx="18.1" ry="18.1"/>
			
				<ellipse transform="matrix(6.383996e-02 -0.998 0.998 6.383996e-02 740.3326 1148.6589)" class="st2" cx="982.4" cy="179.7" rx="18.4" ry="18.4"/>
			
				<ellipse transform="matrix(0.2923 -0.9563 0.9563 0.2923 506.1119 1112.113)" class="st2" cx="1004.5" cy="214.1" rx="18.4" ry="18.4"/>
			
				<ellipse transform="matrix(0.999 -4.496625e-02 4.496625e-02 0.999 -6.2843 49.2742)" class="st2" cx="1092.1" cy="164.3" rx="18" ry="18"/>
			<circle class="st2" cx="1068.8" cy="225.1" r="13"/>
			<circle class="st2" cx="1036.8" cy="232.1" r="13"/>
			<circle class="st2" cx="1087.5" cy="199.9" r="13"/>
			<circle class="st2" cx="1092.5" cy="130.6" r="13"/>
			<circle class="st2" cx="1092.5" cy="101.8" r="13"/>
			<circle class="st2" cx="981.9" cy="145" r="13"/>
		</g>
		<g>
			
				<ellipse transform="matrix(0.5496 -0.8354 0.8354 0.5496 299.2698 758.9512)" class="st2" cx="853.5" cy="101.9" rx="17.8" ry="17.8"/>
			
				<ellipse transform="matrix(0.9971 -7.582796e-02 7.582796e-02 0.9971 -9.0458 67.4672)" class="st2" cx="883.9" cy="152.9" rx="17.9" ry="17.9"/>
			
				<ellipse transform="matrix(0.9839 -0.1786 0.1786 0.9839 -22.0492 151.0873)" class="st2" cx="828.2" cy="198" rx="17.6" ry="17.6"/>
			
				<ellipse transform="matrix(9.301100e-02 -0.9957 0.9957 9.301100e-02 567.1392 1085.1068)" class="st2" cx="879.2" cy="231.3" rx="18.4" ry="18.4"/>
			<circle class="st2" cx="892.7" cy="102.6" r="13"/>
			<circle class="st2" cx="923.1" cy="102.6" r="13"/>
			<circle class="st2" cx="911.1" cy="128.6" r="13"/>
			<circle class="st2" cx="855.6" cy="175.8" r="13"/>
			<circle class="st2" cx="810.2" cy="233.1" r="13"/>
			<circle class="st2" cx="920.7" cy="233.1" r="13"/>
			<circle class="st2" cx="839" cy="233.1" r="13"/>
			<circle class="st2" cx="811" cy="102.6" r="13"/>
		</g>
	</g>
</g>
<g id="Доска">
	<g>
		<g>
			<g>
				<path d="M702.2,926.8c0,0,38.7-49.2,0-134.3s-101.5-95-101.5-95S564.2,810.6,702.2,926.8z"/>
			</g>
			<g>
				<path class="st3" d="M699.4,795.9c24.3,53.4,18.1,92.6,10.1,114.5c-4.7,13-10.1,19.8-10.1,19.8C627.8,870,603.1,810.6,596,767.3
					c-6.6-40.2,1.9-66.4,1.9-66.4S660.7,710.8,699.4,795.9z"/>
			</g>
			<g>
				<path d="M701.5,927.7c0,0-0.1,0.1-0.1,0.1c-0.1,0.1-0.3,0-0.4-0.2c-38.4-110.2-69-153.2-69.3-153.6c-0.1-0.1-0.1-0.3,0.1-0.4
					c0.1-0.1,0.3-0.1,0.4,0.1c0.3,0.4,31,43.5,69.4,153.7C701.6,927.5,701.5,927.6,701.5,927.7z"/>
			</g>
			<g>
				<path d="M658.6,800.2c-1.9,2.4-4.5,4.5-7.8,6.1c-21,10.4-36.1-12.8-36.3-13c-0.1-0.1,0-0.3,0.1-0.4c0.1-0.1,0.3,0,0.4,0.1
					c0.1,0.2,15,23,35.6,12.8c20.5-10.2,11-37.8,10.9-38.1c-0.1-0.1,0-0.3,0.2-0.4c0.1-0.1,0.3,0,0.4,0.2
					C662,767.8,668.9,787.7,658.6,800.2z"/>
			</g>
			<g>
				<path d="M676.2,834.7c-2.1,2.5-4.9,4.9-8.6,6.9c-21.7,11.7-35.9-10.8-36.1-11c-0.1-0.1,0-0.3,0.1-0.4c0.1-0.1,0.3,0,0.4,0.1
					c0.1,0.2,14.1,22.3,35.3,10.8c3.6-1.9,6.3-4.3,8.4-6.7c10.1-12.2,3.9-28.9,3.8-29.1c-0.1-0.1,0-0.3,0.2-0.4
					c0.1-0.1,0.3,0,0.4,0.2C680.1,805.2,686.4,822.2,676.2,834.7z"/>
			</g>
			<path d="M709.5,910.4c-4.7,13-10.1,19.8-10.1,19.8C627.8,870,603.1,810.6,596,767.3C609.6,780.5,691.6,861.4,709.5,910.4z"/>
			<g>
				<path d="M689.5,865.7c-2,2.5-4.9,4.8-8.8,6.8c-16.5,8.3-26.1-4-26.2-4.1c-0.1-0.1-0.1-0.3,0.1-0.4c0.1-0.1,0.3-0.1,0.4,0.1
					c0.1,0.1,9.4,12,25.5,3.9c16.1-8.1,13.4-23,13.3-23.1c0-0.2,0.1-0.3,0.2-0.3c0.2,0,0.3,0.1,0.3,0.2
					C694.4,848.9,696,857.8,689.5,865.7z"/>
			</g>
			<g>
				<path d="M706.9,927.9c0,0-73.8,39.1-176.3-31.9S429.9,740.1,429.9,740.1S587.2,719,706.9,927.9z"/>
			</g>
			<g>
				<path class="st3" d="M712.1,925c0,0-73.8,39.1-176.3-31.9S435.1,737.1,435.1,737.1S592.5,716.1,712.1,925z"/>
			</g>
			<g>
				<path d="M708.2,927.2c0.1,0,0.1-0.1,0.1-0.1c0.1-0.2,0-0.4-0.1-0.5C572.7,849.9,523.5,799.4,523,798.9c-0.1-0.1-0.4-0.2-0.5,0
					c-0.1,0.1-0.2,0.4,0,0.5c0.5,0.5,49.7,51.1,185.4,127.7C708,927.2,708.1,927.2,708.2,927.2z"/>
			</g>
			<g>
				<path d="M551.1,840.5c3.6-2,6.9-4.9,9.9-8.8c18.7-25.1-8.2-50.5-8.5-50.8c-0.2-0.1-0.4-0.1-0.5,0c-0.1,0.2-0.1,0.4,0,0.5
					c0.3,0.3,26.7,25.2,8.4,49.8c-18.3,24.5-52.3,5.4-52.6,5.3c-0.2-0.1-0.4,0-0.5,0.1c-0.1,0.2,0,0.4,0.1,0.5
					C507.7,837.3,532.2,851.1,551.1,840.5z"/>
			</g>
			<g>
				<path d="M592.2,871.8c3.8-2.1,7.6-5.2,11.1-9.6c20.6-25.6-5.6-49.7-5.8-50c-0.2-0.1-0.4-0.1-0.5,0c-0.1,0.2-0.1,0.4,0,0.5
					c0.3,0.2,25.9,23.8,5.8,48.9c-3.4,4.3-7.1,7.3-10.9,9.4c-18.4,10.3-38.9-1.7-39.1-1.9c-0.2-0.1-0.4,0-0.5,0.1
					c-0.1,0.2-0.1,0.4,0.1,0.5C552.6,870,573.4,882.3,592.2,871.8z"/>
			</g>
			<g>
				<path d="M629.8,896.7c3.7-2.1,7.5-5.2,11-9.9c14.8-19.7,1-35.2,0.9-35.4c-0.1-0.2-0.4-0.2-0.5,0c-0.2,0.1-0.2,0.4,0,0.5
					c0.1,0.1,13.5,15.2-0.9,34.4c-14.4,19.2-33.3,12.1-33.5,12c-0.2-0.1-0.4,0-0.5,0.2c-0.1,0.2,0,0.4,0.2,0.5
					C606.6,899.1,617.9,903.4,629.8,896.7z"/>
			</g>
		</g>
		<g>
			<g>
				<path d="M1204,922.8c0,0,62.3,6.3,113.4-72s25.8-136.7,25.8-136.7S1228,744,1204,922.8z"/>
			</g>
			<g>
				<path class="st3" d="M1312.9,850.2c-32.1,49.1-68.5,65-91.2,69.9c-13.5,3-22.2,2.1-22.2,2.1c12.4-92.7,49.4-145.4,82.1-174.6
					c30.4-27.1,57.1-34.1,57.1-34.1S1364,771.9,1312.9,850.2z"/>
			</g>
			<g>
				<path d="M1202.9,922.6c0,0-0.1,0-0.1-0.1c-0.1-0.1-0.1-0.3,0-0.4c72.4-91.5,92.3-140.4,92.4-140.9c0.1-0.1,0.2-0.2,0.4-0.2
					c0.1,0.1,0.2,0.2,0.2,0.4c-0.2,0.5-20,49.5-92.5,141.1C1203.1,922.6,1203,922.7,1202.9,922.6z"/>
			</g>
			<g>
				<path d="M1287.4,818.1c-3-0.4-6.2-1.4-9.4-3.3c-20.1-12.1-8.6-37.4-8.5-37.6c0.1-0.1,0.2-0.2,0.4-0.1c0.1,0.1,0.2,0.2,0.1,0.4
					c-0.1,0.2-11.4,25.1,8.2,36.9c19.6,11.9,37.8-11,38-11.2c0.1-0.1,0.3-0.1,0.4,0c0.1,0.1,0.1,0.3,0,0.4
					C1316.6,803.6,1303.5,820.1,1287.4,818.1z"/>
			</g>
			<g>
				<path d="M1267.8,851.4c-3.3-0.4-6.8-1.5-10.4-3.5c-21.5-12-10.2-36.1-10.1-36.3c0.1-0.1,0.2-0.2,0.4-0.1
					c0.1,0.1,0.2,0.2,0.1,0.4c-0.1,0.2-11.2,23.9,9.8,35.6c3.6,2,7,3.1,10.2,3.4c15.7,1.9,26.5-12.2,26.6-12.4
					c0.1-0.1,0.3-0.1,0.4-0.1c0.1,0.1,0.2,0.3,0.1,0.4C1294.8,839,1283.8,853.4,1267.8,851.4z"/>
			</g>
			<g>
				<path d="M1248.7,879.3c-3.2-0.4-6.7-1.5-10.5-3.8c-15.8-9.5-10.7-24.2-10.6-24.3c0.1-0.1,0.2-0.2,0.4-0.2
					c0.1,0.1,0.2,0.2,0.2,0.4c-0.1,0.1-5,14.4,10.4,23.6c15.4,9.3,26.5-1,26.6-1.2c0.1-0.1,0.3-0.1,0.4,0c0.1,0.1,0.1,0.3,0,0.4
					C1265.5,874.4,1258.9,880.6,1248.7,879.3z"/>
			</g>
		</g>
		<g>
			<path d="M663.4,608.1c0,0-18.1,46.1-95.3,24c0,0-5.3-24.8,46.3-44.1S663.4,608.1,663.4,608.1z"/>
			<path class="st3" d="M662.7,607c0,0-18.1,46.1-95.3,24c0,0-5.3-24.8,46.3-44.1C665.2,567.5,662.7,607,662.7,607z"/>
			<path d="M577.5,510.7c0,0-11.7-31.7,30.3-41c42-9.2,43.3,36.5,43.3,36.5S602.4,538.1,577.5,510.7z"/>
			<path class="st3" d="M578.2,509c0,0-11.7-31.7,30.3-41s43.3,36.5,43.3,36.5S603.1,536.4,578.2,509z"/>
			<path class="st4" d="M588.2,496.6c0,0,9.1-24.1,44.4-8.7c21.3,9.3,35.6,36.7,43.7,57c5.3,13.4,7.9,23.8,7.9,23.8l13.9,73.9
				c0,0-32.4-54-67.7-40"/>
		</g>
		<path d="M1169.2,988.7H760.1c-40,0-72.5-32.5-72.5-72.5V411.6c0-40,32.5-72.5,72.5-72.5h409.1c40,0,72.5,32.5,72.5,72.5v504.6
			C1241.7,956.2,1209.2,988.7,1169.2,988.7z"/>
		<path class="st5" d="M1144.2,976H769.3c-40,0-72.5-32.5-72.5-72.5V422.7c0-40,32.5-72.5,72.5-72.5h374.9c40,0,72.5,32.5,72.5,72.5
			v480.8C1216.7,943.5,1184.2,976,1144.2,976z"/>
		<g>
			<path class="st2" d="M1087,371.5H823.1c-9.4,0-17.1-7.6-17.1-17.1v-9.1c0-9.4,7.6-17.1,17.1-17.1H1087c9.4,0,17.1,7.6,17.1,17.1
				v9.1C1104.1,363.8,1096.5,371.5,1087,371.5z"/>
			<path class="st2" d="M1038.7,347.2H871.5v-13.5c0-28.2,22.8-51,51-51h65.3c28.2,0,51,22.8,51,51V347.2z"/>
		</g>
		<ellipse class="st6" cx="955.1" cy="305.4" rx="10.9" ry="11.4"/>
		<g>
			<circle class="st2" cx="774.1" cy="462.7" r="14.6"/>
			<circle class="st2" cx="774.1" cy="514.4" r="14.6"/>
			<circle class="st2" cx="819.4" cy="566.2" r="14.6"/>
			<circle class="st2" cx="819.4" cy="514.4" r="14.6"/>
			<circle class="st2" cx="774.1" cy="621.2" r="14.6"/>
			<circle class="st2" cx="819.4" cy="621.2" r="14.6"/>
			<circle class="st2" cx="774.1" cy="724.7" r="14.6"/>
			<circle class="st2" cx="774.1" cy="786.2" r="14.6"/>
			<circle class="st2" cx="819.4" cy="724.7" r="14.6"/>
			<circle class="st2" cx="774.1" cy="837.9" r="14.6"/>
			<circle class="st2" cx="819.4" cy="886.4" r="14.6"/>
			<circle class="st2" cx="819.4" cy="837.9" r="14.6"/>
			<circle class="st2" cx="819.4" cy="465.9" r="8.1"/>
			<circle class="st2" cx="774.1" cy="566.2" r="8.1"/>
			<circle class="st2" cx="774.1" cy="672.9" r="8.1"/>
			<circle class="st2" cx="819.4" cy="786.2" r="8.1"/>
			<circle class="st2" cx="774.1" cy="886.4" r="8.1"/>
			<circle class="st2" cx="819.4" cy="672.9" r="8.1"/>
			<circle class="st2" cx="997.3" cy="462.7" r="14.6"/>
			<circle class="st2" cx="1042.6" cy="566.2" r="14.6"/>
			<circle class="st2" cx="1042.6" cy="514.4" r="14.6"/>
			<circle class="st2" cx="997.3" cy="621.2" r="14.6"/>
			<circle class="st2" cx="1042.6" cy="621.2" r="14.6"/>
			<circle class="st2" cx="997.3" cy="786.2" r="14.6"/>
			<circle class="st2" cx="1042.6" cy="724.7" r="14.6"/>
			<circle class="st2" cx="1042.6" cy="886.4" r="14.6"/>
			<circle class="st2" cx="997.3" cy="886.4" r="14.6"/>
			<circle class="st2" cx="932.6" cy="886.4" r="14.6"/>
			<circle class="st2" cx="1042.6" cy="837.9" r="14.6"/>
			<circle class="st2" cx="1042.6" cy="465.9" r="8.1"/>
			<circle class="st2" cx="932.6" cy="514.4" r="8.1"/>
			<circle class="st2" cx="997.3" cy="514.4" r="8.1"/>
			<circle class="st2" cx="1042.6" cy="786.2" r="8.1"/>
			<circle class="st2" cx="1042.6" cy="672.9" r="8.1"/>
			<circle class="st2" cx="997.3" cy="724.7" r="8.1"/>
			<circle class="st2" cx="932.6" cy="724.7" r="8.1"/>
			<circle class="st2" cx="929.4" cy="462.7" r="14.6"/>
			<circle class="st2" cx="884.1" cy="566.2" r="14.6"/>
			<circle class="st2" cx="932.6" cy="566.2" r="14.6"/>
			<circle class="st2" cx="997.3" cy="566.2" r="14.6"/>
			<circle class="st2" cx="884.1" cy="514.4" r="14.6"/>
			<circle class="st2" cx="929.4" cy="621.2" r="14.6"/>
			<circle class="st2" cx="884.1" cy="621.2" r="14.6"/>
			<circle class="st2" cx="997.3" cy="672.9" r="14.6"/>
			<circle class="st2" cx="929.4" cy="672.9" r="14.6"/>
			<circle class="st2" cx="884.1" cy="672.9" r="14.6"/>
			<circle class="st2" cx="929.4" cy="786.2" r="14.6"/>
			<circle class="st2" cx="884.1" cy="724.7" r="14.6"/>
			<circle class="st2" cx="884.1" cy="886.4" r="14.6"/>
			<circle class="st2" cx="884.1" cy="837.9" r="14.6"/>
			<circle class="st2" cx="884.1" cy="465.9" r="8.1"/>
			<circle class="st2" cx="884.1" cy="786.2" r="8.1"/>
			<circle class="st2" cx="932.6" cy="834.7" r="8.1"/>
			<circle class="st2" cx="997.3" cy="834.7" r="8.1"/>
			<circle class="st2" cx="1155.8" cy="462.7" r="14.6"/>
			<circle class="st2" cx="1155.8" cy="514.4" r="14.6"/>
			<circle class="st2" cx="1110.5" cy="566.2" r="14.6"/>
			<circle class="st2" cx="1110.5" cy="514.4" r="14.6"/>
			<circle class="st2" cx="1155.8" cy="621.2" r="14.6"/>
			<circle class="st2" cx="1155.8" cy="672.9" r="14.6"/>
			<circle class="st2" cx="1110.5" cy="621.2" r="14.6"/>
			<circle class="st2" cx="1155.8" cy="786.2" r="14.6"/>
			<circle class="st2" cx="1110.5" cy="724.7" r="14.6"/>
			<circle class="st2" cx="1155.8" cy="837.9" r="14.6"/>
			<circle class="st2" cx="1110.5" cy="886.4" r="14.6"/>
			<circle class="st2" cx="1110.5" cy="837.9" r="14.6"/>
			<circle class="st2" cx="1110.5" cy="465.9" r="8.1"/>
			<circle class="st2" cx="1155.8" cy="566.2" r="8.1"/>
			<circle class="st2" cx="1155.8" cy="724.7" r="8.1"/>
			<circle class="st2" cx="1110.5" cy="786.2" r="8.1"/>
			<circle class="st2" cx="1155.8" cy="886.4" r="8.1"/>
			<circle class="st2" cx="1110.5" cy="672.9" r="8.1"/>
		</g>
		<g>
			<path d="M1396.7,591.8c0,0-57,28.7-19.5,125.1c0,0,32.4,3.8,51.1-64.6S1396.7,591.8,1396.7,591.8z"/>
			<path class="st3" d="M1398.3,592.5c0,0-57,28.7-19.5,125.1c0,0,32.4,3.8,51.1-64.6S1398.3,592.5,1398.3,592.5z"/>
			<path d="M1261.4,636.4c0,0-45.6,19.5-84-51.1c0,0,13.9-21.1,63.9,2C1291.2,610.4,1261.4,636.4,1261.4,636.4z"/>
			<path class="st3" d="M1261.7,635.1c0,0-45.6,19.5-84-51.1c0,0,13.9-21.1,63.9,2C1291.6,609.1,1261.7,635.1,1261.7,635.1z"/>
			<path d="M1270.5,506.8c0,0,14.4-30.6,50.5-7.1c36.1,23.4,4.5,56.5,4.5,56.5S1268.4,543.7,1270.5,506.8z"/>
			<path class="st4" d="M1229.8,780.9c0,0,46.4-200.1,129.5-206.1c83.1-6,25,130.3,25,130.3"/>
			<path class="st3" d="M1272.2,506.1c0,0,14.4-30.6,50.5-7.1c36.1,23.4,4.5,56.5,4.5,56.5S1270.1,543,1272.2,506.1z"/>
			<path class="st4" d="M1294.2,622.6c0,0,44.9-56.6,31.1-92.6c-13.8-36-37.3-25.5-37.3-25.5"/>
			<path class="st4" d="M1261.1,685.3c0,0,15.7-61-19-76.3"/>
		</g>
		<path d="M788.4,483.5c0,0-28,3-48-18s-36.6-21.7-36.6-21.7s-5.4-37.3,50.6-30.3S788.4,483.5,788.4,483.5z"/>
		<path class="st3" d="M788.4,480.5c0,0-28,3-48-18s-36.6-21.7-36.6-21.7s-5.4-37.3,50.6-30.3S788.4,480.5,788.4,480.5z"/>
		<path class="st4" d="M677.4,548.5c0,0-22-84,29-109s68,9,68,9"/>
		<path class="st7" d="M1069.5,797.5l-3.8,12.1c-1.3,4,1.5,8.2,5.6,8.6c1.1,0.1,2.3,0.2,3.7,0.1"/>
	</g>
</g>
<g id="Рука">
	<g>
		<g>
			<path class="st8" d="M1013.1,1080H877l6.6-30l4-18l3.5-16l3.3-15l3.5-16c1.4-6.5,1.6-13.2,0.4-19.7c-7.9-42.7-9.6-112.5-10-141.9
				c-0.1-8.8,2.6-19.2,8.8-25.4c4-4,9-12,15-8c-3-15,7-27,19-21c-1-18,10-24,19-20c-2-19,12-27,18.6-19.9l-3.1-34.6
				c0-0.3-0.1-0.7-0.1-1c0-5.1,3.6-9.5,8.7-10.5c5.9-1.2,11.5,2.7,12.7,8.5l29.2,153c0.7,3.5,2,6.9,3.8,10l6,10
				c1.4,2.3,4.8,2.1,5.9-0.4l27.2-61.2c0.7-1.7,1.9-3,3.4-4c1.4-1,3.2-1.5,5-1.5c5.4,0,9.7,4.7,9.1,10.1
				c-2.6,23.2-9.6,81.6-19.1,122.7c-8.3,36-22.3,51-30.3,56.9c-3.9,2.9-6.3,7.2-6.7,12l-0.2,1.7l-1.3,15l-1.4,16l-1.6,18
				L1013.1,1080z"/>
			<line class="st7" x1="968.4" y1="726.7" x2="976.8" y2="818.4"/>
			<line class="st7" x1="950" y1="747.7" x2="956.7" y2="828.4"/>
			<line class="st7" x1="931.5" y1="768" x2="936.5" y2="833.5"/>
			<line class="st7" x1="911.3" y1="788.1" x2="916.4" y2="838.5"/>
		</g>
		<path class="st9" d="M1030.9,1032h-148v-20.6c0-5.7,4.7-10.4,10.4-10.4h127.2c5.7,0,10.4,4.7,10.4,10.4V1032z"/>
		<polygon class="st2" points="1043.7,1080 858.3,1080 863.3,1050 868.9,1016 1042.9,1016 1043.3,1050 		"/>
	</g>
</g>
</svg>
