<?xml version="1.0" encoding="utf-8"?>
<!-- Generator: Adobe Illustrator 27.3.1, SVG Export Plug-In . SVG Version: 6.00 Build 0)  -->
<svg version="1.1" id="Слой_1" xmlns="http://www.w3.org/2000/svg" xmlns:xlink="http://www.w3.org/1999/xlink" x="0px" y="0px"
	 viewBox="0 0 1920 1080" style="enable-background:new 0 0 1920 1080;" xml:space="preserve">
<style type="text/css">
	.st0{fill:none;stroke:#1C1C1C;stroke-width:3;stroke-miterlimit:10;}
	.st1{fill:#1A2E35;}
	.st2{fill:#201C1C;}
	.st3{opacity:0.3;}
	.st4{opacity:0.2;}
	.st5{fill:#FFFFFF;}
	.st6{fill:#EFEDED;}
	.st7{fill:#3F2924;}
	.st8{fill:#F5A363;}
	.st9{fill:#D04444;}
	.st10{fill:#AF3A3A;}
	.st11{fill:none;stroke:#F5A363;stroke-width:7.114;stroke-linecap:round;stroke-miterlimit:10;}
	.st12{fill:#2B1A18;}
</style>
<line class="st0" x1="84.2" y1="896.6" x2="1835.8" y2="896.6"/>
<g>
	<g>
		<g>
			<g>
				<path class="st1" d="M515.3,885.2l-0.5,5.9c-0.1,0.7,0,1.5,0.2,2.1c0,0,0,0,0,0c0.1,0.3,0.2,0.6,0.4,0.9
					c0.2,0.3,0.4,0.6,0.6,0.8c0.2,0.2,0.5,0.5,0.8,0.7c0.8,0.6,1.8,0.9,3,0.9H730c0.5,0,1-0.1,1.5-0.2c0.3-0.1,0.6-0.2,1-0.4
					c0.7-0.4,1.4-0.9,1.9-1.6c0.2-0.3,0.4-0.6,0.5-0.9c0.3-0.6,0.5-1.3,0.6-2l0.5-5.6c0.1-0.7,0-1.4-0.2-2c-0.1-0.3-0.2-0.6-0.4-0.9
					c-0.4-0.7-1-1.2-1.6-1.6c-0.3-0.2-0.6-0.3-0.9-0.4c-0.5-0.2-1-0.2-1.5-0.2h-52.3c-0.7,0-1.3-0.1-1.9-0.2h0
					c-0.3-0.1-0.5-0.1-0.8-0.2c0,0-0.1,0-0.1,0c0,0,0,0-0.1,0c-0.3-0.1-0.5-0.2-0.8-0.3c-0.3-0.1-0.5-0.2-0.7-0.4
					c-0.4-0.2-0.7-0.4-1-0.7c-0.4-0.3-0.8-0.7-1.1-1c-0.2-0.2-0.4-0.4-0.5-0.7c-0.1-0.2-0.3-0.4-0.4-0.5c0-0.1-0.1-0.1-0.1-0.2
					c0,0,0,0,0,0c-0.2-0.2-0.3-0.5-0.4-0.7c-0.1-0.2-0.2-0.4-0.3-0.7c0,0,0-0.1-0.1-0.2c0-0.1,0-0.1-0.1-0.2c0,0,0-0.1,0-0.1
					c-0.1-0.2-0.1-0.4-0.1-0.6c-0.1-0.3-0.1-0.6-0.1-0.9c0,0,0,0,0-0.1c0-0.3,0-0.6-0.1-0.8c0-0.3,0-0.6,0-0.8l0-0.2
					c0-0.3,0-0.6,0.1-0.8c0-0.3,0.1-0.6,0.2-0.8l0,0l20.6-78.9l3.9-15.1l3.1-11.9H578.8l-6.4,11.9l-8.2,15.1l-46.5,86.1
					c-0.2,0.3-0.3,0.6-0.5,0.9c0,0,0,0.1,0,0.1c-0.2,0.4-0.3,0.7-0.5,1c-0.1,0.4-0.3,0.7-0.4,1.1c-0.1,0.2-0.2,0.5-0.2,0.7
					C515.7,882.1,515.4,883.6,515.3,885.2z"/>
				<path class="st2" d="M736,885.8l-0.5,5.7c-0.2,2.8-2.7,5.1-5.5,5.1H519.8c-3,0-5.3-2.5-5-5.5l0.5-5.9c0.1-1.5,0.4-3.1,0.9-4.6
					c0.4-1.3,1-2.6,1.6-3.8l61-113.1h119.4l-27.6,105.9c-0.2,0.6-0.3,1.3-0.3,1.9c-0.3,4.4,2.6,8.3,6.8,9.1c0.6,0.1,1.3,0.2,2,0.2
					h52.3C734.2,880.8,736.2,883.1,736,885.8z"/>
				<g>
					<g>
						<path d="M511.1,876.8l61-113.1h6.8l-61,113.1c-1.4,2.6-2.3,5.5-2.6,8.4l-0.5,5.9c-0.3,3,2,5.5,5,5.5H513c-3,0-5.3-2.5-5-5.5
							l0.5-5.9C508.8,882.3,509.6,879.4,511.1,876.8z"/>
					</g>
				</g>
				<polygon class="st3" points="578.8,763.6 698.3,763.6 691.2,790.7 564.3,790.7 				"/>
			</g>
			<path d="M551.5,885.9l-0.5,5.4c-0.3,2.9,1.9,5.3,4.8,5.3H730c2.8,0,5.3-2.3,5.5-5.1l0.5-5.6c0.2-2.8-1.8-5.1-4.6-5.1h-52.3
				c-0.7,0-1.3-0.1-1.9-0.2H557.3C554.4,880.6,551.8,883,551.5,885.9z"/>
			<path class="st4" d="M516.2,880.6h161c-4.2-0.9-7.1-4.7-6.8-9.1H521.1L516.2,880.6z"/>
		</g>
		<g>
			<g>
				<polygon points="281.3,373.7 281.3,774.7 943.3,774.7 943.3,374.7 				"/>
			</g>
			<g>
				<polygon class="st2" points="303.9,373.7 303.9,774.7 974.5,774.7 974.5,374.7 				"/>
			</g>
			<g>
				<rect x="303.9" y="750.1" class="st2" width="670.6" height="25"/>
			</g>
			<g>
				<rect x="310" y="380.8" class="st5" width="658.5" height="369.3"/>
			</g>
			<g>
				<polygon class="st6" points="748.9,380.8 393.8,750.1 503.7,750.1 861.9,380.8 				"/>
			</g>
			<g>
				<polygon class="st6" points="313.1,383.4 314.5,625.3 550.2,382.3 				"/>
			</g>
			<g>
				<polygon class="st6" points="887.6,380.8 532.6,750.1 575.8,750.1 934,380.8 				"/>
			</g>
			<g>
				<polygon class="st6" points="565.6,380.8 313.1,643.4 313.1,688.9 611.9,380.8 				"/>
			</g>
			<g>
				<path class="st6" d="M968.4,501.3c0,2.6-247.5,247.5-247.5,247.5h103.5l142.7-142.7L968.4,501.3z"/>
			</g>
		</g>
	</g>
	<g>
		<path class="st7" d="M1420.7,338.4c-0.3,2.2-1.1,4.4-2.7,6.2c-1.4,1.5-3.4,2.9-6.1,3.8c-0.4,0.1-0.8,0.3-1.2,0.4
			c4.2,6.8,9,18,1,25.5c-9.2-4.8-16.7-12.3-16.7-12.3l0-35.9l2.3,1.1L1420.7,338.4z"/>
		<path class="st7" d="M1420.7,338.4c-0.3,2.2-1.1,4.4-2.7,6.2c-1.7-2.3-2.3-4.4-2.3-4.4l-18.4-13.1l-13.6-9.7l-88.1-62.7
			c0,0-12.1-25.8,6.8-44.8c5.3-5.3,11.7-8.2,18.2-9.7h0c8.7-1.9,17.7-1.2,24.6,0.2c7.6,1.4,12.9,3.6,12.9,3.6s7.1-3.3,17.6-5h0
			c8.7,1.6,17.8,5.1,26.3,12.1c29.8,24.4,10.7,60.5,10.7,60.5s1.2,0.6,3.6,24.9c0.7,6.9,1.1,12.1,1.3,16c0.5,9.8-0.2,11.4-0.2,11.4
			S1421.6,331.5,1420.7,338.4z"/>
		<g>
			<g>
				<path class="st8" d="M908.6,436.5L908.6,436.5c7.9,12.3,4.4,28.6-7.9,36.6l-5.8,3.8c-11.4,7.4-26.6,4.9-35.1-5.8l-40.5-50.9
					l27-79.9L908.6,436.5z"/>
			</g>
		</g>
		<path d="M843.1,466.3C836,479,815.3,467.8,814,456c-1.3-11.8,79.4-234.7,79.4-234.7l14.3,6.4C907.7,227.7,846.4,460.4,843.1,466.3
			z"/>
		<path d="M938.4,242.4L862,208.5c0,0-5.8-37.7,9.6-50.5l87.3,38.2L938.4,242.4z"/>
		<path class="st2" d="M905,214.8c6.6-0.7,11.4-6.7,10.7-13.4c-0.7-6.6-6.7-11.4-13.4-10.7c-6.6,0.7-11.4,6.7-10.7,13.4
			C892.4,210.7,898.4,215.5,905,214.8z"/>
		<path class="st7" d="M904.4,209c3.5-0.4,6-3.5,5.6-7c-0.4-3.5-3.5-6-7-5.6c-3.5,0.4-6,3.5-5.6,7
			C897.7,206.9,900.9,209.4,904.4,209z"/>
		<g>
			<g>
				<g>
					<path class="st8" d="M903.1,421.6c-2.7-9.5-2-12.8-4.1-26.4c-2.5-16-4.6-23.5-6.7-29c-4-10.2-8.8-13.1-9-24.1
						c-0.1-7.1,3-18.5-1-20.6c-9.3-4.7-15.4,3.9-16.7,11.7c-1,5.8-1.2,8.7-0.8,24.5c0.3,9.7,0.4,14.5,0.1,17.5
						c-1.1,11.8-4,12.4-5.4,23.3c-0.9,7.1-2.6,20.5,5.2,29.3c3.1,3.5,6.8,5.2,10.6,7c8.3,3.9,15.6,4.3,18.2,4.2
						c3.5-0.1,8.9-0.6,15.2-2.7C907.1,433.2,904.9,428.1,903.1,421.6z"/>
				</g>
			</g>
		</g>
		<g>
			<g>
				<path class="st8" d="M855.2,371.3c5-0.6,8.3-6.1,8.1-11.2c-0.2-5.1-2.8-9.7-5.4-14.1c-2.4-4.1-5-8.2-8.9-10.9
					c-3.8-2.8-9.3-3.8-13.3-1.3c-5.6,3.6-5.6,11.7-4.9,18.3c-4.2-1.5-9.1-1.9-12.7,3.5c-4.4,6.5-1,11.2,0.8,15.3
					c-4.9,0.7-8.4,5.7-8.6,10.6c-0.3,4.9,3.2,10.4,6.1,14.4c-2.4,0.5-6.6,2.3-8.1,8.4c-2.3,9.7,6.8,14.3,14.7,20.3
					c2.5,1.9,11.8,4,15.4-1.6c4.3-6.8-0.8-10-3.5-13.9c4.1,3.9,11.5,3.7,15.3-0.6c3.8-4.2,3.3-11.6-1-15.3c2.9,2.4,7.7,1.4,10-1.6
					c2.3-3,2.5-7.2,1.4-10.8C859.4,377.2,857.2,374,855.2,371.3z"/>
			</g>
		</g>
		<g>
			<g>
				<path class="st9" d="M1534.3,478.9l-40.8,187.5l-49.6,228h-296.5l22.9-223.8l14.7-143.7c4.4-42.9,14.4-75.5,57.5-75.5h269.8
					C1526.7,451.4,1537.4,464.8,1534.3,478.9z"/>
			</g>
		</g>
		<path class="st7" d="M1493.5,666.4l-49.6,228h-296.5l22.9-223.8l2.9-5.7c0,0,40.6-6,68.6-68.3l95-18.9l107.4,20.4
			c0,0-8.7,36.2,44.8,66.9L1493.5,666.4z"/>
		<g>
			<g>
				<g>
					<path class="st8" d="M1182.5,888.3c0.7,1.3,1.9,2.2,3.2,2.6c1.2,0.3,2.5,0.2,3.7-0.4l15.8-8.3l12,5.9l33.5,16.6
						c4,2,8.5,2.1,12.7,0.4c13.8-5.9,46.5-20.2,65.4-32.4c2.9-1.9,6.1-3.1,9.4-3.6l21.2-5.4c18.4-5.9,27.9-26.1,20.8-44.1
						c-0.1-0.3-0.2-0.5-0.3-0.8c-6.5-16.4-24.7-24.9-41.5-19.4l-14.1,4.6c-2.3,0.7-4.8,0.3-6.8-1.1c-4.1-2.9-13.6-7.2-32-4.5
						c-21,3.1-49.8,10.7-61.2,13.9c-2.7,0.7-4.2,3.8-3.3,6.6c0.5,1.5,1.7,2.7,3.1,3.1c0.3,0.1,0.6,0.1,0.9,0.1l33.5,2.1
						c1.4,0.1,2,1.8,1.2,2.9l-3.7,5c-1.1,1.5-2.5,2.8-4.1,3.9l-67.4,44.3C1181.8,881.9,1180.9,885.6,1182.5,888.3z"/>
				</g>
			</g>
			<g>
				<g>
					<path d="M1204,883.8c-0.3,0-0.6-0.2-0.8-0.5c-0.3-0.5-0.1-1.1,0.4-1.4l41.9-21.9c0.5-0.3,1.1-0.1,1.4,0.4
						c0.3,0.5,0.1,1.1-0.4,1.4l-41.9,21.9C1204.4,883.8,1204.2,883.8,1204,883.8z"/>
				</g>
			</g>
			<g>
				<g>
					<path d="M1217.1,889.2c-0.3,0-0.7-0.2-0.8-0.6c-0.3-0.5-0.1-1.1,0.4-1.4l37-18.9c0.5-0.3,1.1-0.1,1.4,0.4
						c0.3,0.5,0.1,1.1-0.4,1.4l-37,18.9C1217.4,889.1,1217.2,889.2,1217.1,889.2z"/>
				</g>
			</g>
			<g>
				<g>
					<path d="M1229.8,894.7c-0.3,0-0.7-0.2-0.8-0.6c-0.3-0.5-0.1-1.1,0.5-1.4l30.1-15.2c0.5-0.3,1.1-0.1,1.4,0.5
						c0.3,0.5,0.1,1.1-0.5,1.4l-30.1,15.2C1230.1,894.7,1229.9,894.7,1229.8,894.7z"/>
				</g>
			</g>
			<g>
				<g>
					<path d="M1242.7,901.1c-0.3,0-0.6-0.2-0.8-0.5c-0.3-0.5-0.1-1.1,0.4-1.4l23-12.3c0.5-0.3,1.1-0.1,1.4,0.4
						c0.3,0.5,0.1,1.1-0.4,1.4l-23,12.3C1243.1,901.1,1242.9,901.1,1242.7,901.1z"/>
				</g>
			</g>
		</g>
		<g>
			<g>
				<path class="st9" d="M1633.9,801.5L1633.9,801.5c-32.4,13.7-69.8-1.6-83.5-34l-95.6-227c-13.7-32.4,1.6-69.8,34-83.5l0,0
					c32.4-13.7,69.8,1.6,83.5,34l95.6,227C1681.6,750.5,1666.3,787.9,1633.9,801.5z"/>
			</g>
		</g>
		<g>
			<g>
				<path class="st8" d="M1671.2,730.5L1671.2,730.5c9.8,32.7-10.1,66.8-43.4,74.4l-261.1,56.2c-18.2,3.9-36.4-6.8-41.8-24.7v0
					c-5.3-17.7,0.7-31.4,17.8-38.4l250.1-105.6C1625,679.7,1661.3,697.3,1671.2,730.5z"/>
			</g>
		</g>
		<g>
			<g>
				<path class="st9" d="M1009.2,721.8L1009.2,721.8c-23.3-26.4-20.8-66.7,5.5-90l184.5-163.1c26.4-23.3,66.6-20.8,90,5.5v0
					c23.3,26.4,20.8,66.7-5.5,90l-184.5,163.1C1072.8,750.6,1032.5,748.2,1009.2,721.8z"/>
			</g>
		</g>
		<g>
			<g>
				<path class="st8" d="M1087.5,733.7L1087.5,733.7c-27.8,19.7-66.6,11.8-84.4-17.3L862.5,476.9c-8.6-14.7-4.2-33.6,10-43l0,0
					c13.3-8.8,31-6.4,41.6,5.5l184.2,207.9C1120.8,673.8,1115.7,713.7,1087.5,733.7z"/>
			</g>
		</g>
		<g>
			<g>
				<path d="M849.9,368.9c-0.2,0-0.4-0.1-0.6-0.2l-19-16c-0.4-0.3-0.4-0.8-0.1-1.2c0.3-0.4,0.8-0.4,1.2-0.1l19,16
					c0.4,0.3,0.4,0.8,0.1,1.2C850.4,368.8,850.1,368.9,849.9,368.9z"/>
			</g>
		</g>
		<g>
			<g>
				<path d="M842.9,389.7c-0.2,0-0.4-0.1-0.5-0.2l-24.1-18c-0.4-0.3-0.5-0.8-0.2-1.2c0.3-0.4,0.8-0.5,1.2-0.2l24.1,18
					c0.4,0.3,0.5,0.8,0.2,1.2C843.5,389.6,843.2,389.7,842.9,389.7z"/>
			</g>
		</g>
		<g>
			<g>
				<path d="M836.2,411.2c-0.2,0-0.4-0.1-0.5-0.2l-19.9-14.1c-0.4-0.3-0.5-0.9-0.2-1.3c0.3-0.4,0.9-0.5,1.3-0.2l19.9,14.1
					c0.4,0.3,0.5,0.9,0.2,1.3C836.8,411.1,836.5,411.2,836.2,411.2z"/>
			</g>
		</g>
		<g>
			<path class="st5" d="M1425.7,451.4c-5.2,25.9-23.9,88.4-84.6,88.4c-64.9,0-58.4-67.8-55-88.4H1425.7z"/>
		</g>
		<g>
			<g>
				<g>
					<path class="st8" d="M1420.7,294.2c-0.1,0.9-0.1,1.7-0.3,2.6l-22.6,175.8c-3.7,28.6-29.8,48.7-58.4,45.1
						c-28.6-3.7-48.7-29.8-45.1-58.4l2.4-19l4.1-32.2c0,0-35.7,0.3-20.4-73.1l9-58.5l2.2-14.7c0.4-2.9,1.2-5.7,2.3-8.3
						c5.3-12.1,18.1-19.9,31.9-18.1l52.3,6.7c18,2.3,32.5,14.2,38.9,29.9C1420,278.9,1421.3,286.5,1420.7,294.2z"/>
				</g>
			</g>
		</g>
		<g>
			<g>
				<g>
					<path d="M1376.7,398.9c-1.1,1.3-35.2,41.2-79.8,41.4l4.1-32.2C1309.7,408.8,1359.7,412,1376.7,398.9z"/>
				</g>
			</g>
		</g>
		<g>
			<polygon class="st7" points="1470.7,451.4 1449.5,630.4 1431.8,628.3 1452.7,451.4 			"/>
		</g>
		<path class="st7" d="M1420.7,338.4c0.9-6.9-3.4-14.4-3.4-14.4s0.7-1.6,0.2-11.4c3.8,8.8,6.6,18.8,8.6,28.4L1420.7,338.4z"/>
		<path class="st7" d="M1427.8,349.6c-5-0.2-8.1-2.7-9.9-5c1.6-1.8,2.5-4,2.7-6.2l5.4,2.6C1426.8,343.9,1427.3,346.8,1427.8,349.6z"
			/>
		<g>
			<polygon class="st7" points="1267.9,451.4 1246.7,630.4 1229,628.3 1250,451.4 			"/>
		</g>
		<path class="st7" d="M1397.2,499.5c0,0,2.5,41.3-44.2,58.5c-4.6,1.7-8.9,2.9-13,3.7c-21.6-4.6-32-20.9-32-20.9
			s-95.7-3.6-96.9-52.3s43.9-66.4,43.9-66.4s-10.7-10.7-7.5-33.4c3.1-22.7,23-30.6,23-30.6s-5.9-3.6-2.5-24.4
			c0.2-1.3,0.5-2.6,0.8-3.9c4.6-19.7,19-42.1,19.5-42.8c-0.3,1.2-9.3,42.7,2.4,42.7c7.8,0,10.5,7.2,14.9,11.1c2.3,2,5.1,3.2,9.3,2
			c11.5-3.2,16.6-0.5,25.5-4.8c0.6-0.3,1.3-0.6,1.9-1c3.2-1.8,8.2-1.5,13.6-0.6c11.2,1.9,23.8,6.4,23.8-0.8c0-3.7,1.8-10.6,4.2-18.3
			c4.6-14.6,11.2-31.5,11.2-31.5c10,3.8,17.3,14.1,22.6,26.7c0.5,9.8-0.2,11.4-0.2,11.4s4.3,7.5,3.4,14.4c-0.3,2.2-1.1,4.4-2.7,6.2
			c-1.4,1.5-3.4,2.9-6.1,3.8c-0.4,0.1-0.8,0.3-1.2,0.4c4.2,6.8,9,18,1,25.5c-0.4,0.4-0.9,0.8-1.4,1.1c-0.8,0.6-1.7,1.1-2.6,1.5
			c0.3,4,0.4,6.4,0.4,6.4s21.2-3.7,31.2,57.1C1449.4,501.1,1397.2,499.5,1397.2,499.5z"/>
		<g>
			<g>
				<path class="st8" d="M1331.7,353.9c-9.9,7.4-21.1,3.3-21.3,3.2c-0.4-0.2-0.7-0.7-0.5-1.1c0.2-0.4,0.7-0.7,1.1-0.5
					c0.6,0.2,14.8,5.4,24.6-8.2c0.3-0.4,0.8-0.5,1.2-0.2c0.4,0.3,0.5,0.8,0.2,1.2C1335.4,350.7,1333.6,352.5,1331.7,353.9z"/>
			</g>
		</g>
		<g>
			<g>
				<g>
					<ellipse transform="matrix(0.7146 -0.6995 0.6995 0.7146 157.65 995.7642)" cx="1299.3" cy="304.7" rx="6.8" ry="6.8"/>
				</g>
			</g>
		</g>
		<g>
			<g>
				<g>
					<ellipse transform="matrix(0.7146 -0.6995 0.6995 0.7146 167.1609 1029.6315)" cx="1345.5" cy="309.9" rx="6.8" ry="6.8"/>
				</g>
			</g>
		</g>
		<g>
			<rect x="1499.2" y="576.3" transform="matrix(0.9225 -0.3861 0.3861 0.9225 -133.0353 629.3508)" width="2.6" height="139.3"/>
		</g>
		<path class="st10" d="M1524.9,721.2c0,0,69.2-23.9,98.8-4.9c29.6,19,30.7,62.2,4.1,88.6l12.5,13.3c0,0,54.9-38.1,33.4-101.4
			S1567.2,682.3,1524.9,721.2z"/>
		<path class="st10" d="M1006.2,721c0,0,54.4,30.9,76.9-23.7c22.5-54.5-28.5-99.3-28.5-99.3s109.1,51.9,55.7,136.1
			s-125.1,16.2-125.1,16.2L1006.2,721z"/>
		<g>
			<rect x="997.4" y="724.4" transform="matrix(0.1016 -0.9948 0.9948 0.1016 325.2825 1811.5276)" width="336.6" height="2.6"/>
		</g>
		<polyline class="st11" points="1434.2,586.7 1431.7,604.8 1454.2,608.4 1457.1,590 		"/>
		<line class="st11" x1="1443.5" y1="597.7" x2="1440.9" y2="616"/>
		<polyline class="st11" points="1231.3,583 1229.5,601.2 1252.2,603.9 1254.4,585.4 		"/>
		<line class="st11" x1="1241.1" y1="593.6" x2="1239.2" y2="612"/>
		<path class="st12" d="M1463,440.3c-10-60.8-31.2-57.1-31.2-57.1s-0.1-2.4-0.4-6.4c0.9-0.4,1.7-0.9,2.6-1.5
			c9.9-7.4,4.8-19.5,0.4-26.6c0.4-0.1,0.8-0.2,1.2-0.4c16.3-5.4,5.5-24.4,5.5-24.4s1.3-3.1-1.1-27.4c-2.4-24.3-3.6-24.9-3.6-24.9
			s19.1-36-10.7-60.5c-16.9-13.8-36.3-14.3-50-12.1c8.7,1.6,17.8,5.1,26.3,12.1c7.7,6.3,12.1,13.4,14.4,20.4
			c6.8,20.2-3.8,40.1-3.8,40.1s1.2,0.6,3.6,24.9c0.7,6.9,1.1,12.1,1.3,16c3.6,8.5,6.4,18,8.4,27.3c0.1,0.4,0.2,0.7,0.2,1.1
			c0.6,2.9,1.2,5.8,1.7,8.6c-5-0.2-8.1-2.7-9.9-5c-1.4,1.5-3.4,2.9-6.1,3.8c-0.4,0.1-0.8,0.3-1.2,0.4c4.2,6.8,9,18,1,25.5
			c-0.4,0.4-0.9,0.8-1.4,1.1c-0.8,0.6-1.7,1.1-2.6,1.5c0.3,4,0.4,6.4,0.4,6.4s21.2-3.7,31.2,57.1c10,60.8-42.2,59.2-42.2,59.2
			s2.5,41.3-44.2,58.5c-4.6,1.7-8.9,2.9-13,3.7c9.9,2.1,22.1,1.7,36.7-3.7c46.7-17.3,44.2-58.5,44.2-58.5S1473.1,501.1,1463,440.3z"
			/>
		<path class="st7" d="M1425.9,339.9c-2.4,2.8-5.5,4.2-9.7,1.8c-11-6.6-2.6-46-2.3-47.5c-0.3,0.9-5.7,16.8-26.2,9.5
			c-20.7-7.4-11-29-10.7-29.6c-0.7,0.3-28.4,11.9-44.6,10.9c-15.9-0.9-10.3-11.5-10-12.1c-16.3,21.6-28.5-19.3-28.5-19.3l3.4-19.2
			c0,0,27.1-2.7,29.8-2.7c2.7,0,59.6-2.6,62.3-2.6c2.3,0,21.1,1.9,26.8,2.5c6.8,20.2-3.8,40.1-3.8,40.1s1.2,0.6,3.6,24.9
			c0.7,6.9,1.1,12.1,1.3,16C1421.1,321.1,1423.9,330.6,1425.9,339.9z"/>
		<g>
			<path d="M1325,339c-0.1,0-0.2,0-0.2-0.1l-11.6-4.5c-1.9-0.7-3.4-2.2-4.2-4.1c-0.8-1.9-0.8-3.9,0-5.7l15.2-33.5
				c0.3-0.6,0.9-0.8,1.5-0.6c0.6,0.3,0.8,0.9,0.6,1.5l-15.2,33.5c-0.6,1.3-0.6,2.7,0,4c0.6,1.3,1.6,2.3,3,2.8l11.6,4.5
				c0.6,0.2,0.9,0.9,0.7,1.4C1326.1,338.9,1325.5,339.1,1325,339z"/>
		</g>
		<path class="st9" d="M1440,296.6c-22.3-0.2-94.9-4.8-150.4-20l2.2-14.7c0.4-2.9,1.2-5.7,2.3-8.3c19.5,5.6,94.7,19.8,142.3,18
			C1439.2,278.5,1440.5,288.8,1440,296.6z"/>
		<g>
			<g>
				<g>
					
						<ellipse transform="matrix(0.9983 -5.881225e-02 5.881225e-02 0.9983 -14.3317 76.9127)" class="st7" cx="1299.5" cy="281.9" rx="21.4" ry="6.1"/>
				</g>
			</g>
		</g>
		<g>
			<g>
				<g>
					
						<ellipse transform="matrix(0.2594 -0.9658 0.9658 0.2594 722.3544 1523.2357)" class="st7" cx="1354.3" cy="290.7" rx="6.1" ry="21.4"/>
				</g>
			</g>
		</g>
		<g>
			<g>
				<g>
					<g>
						
							<ellipse transform="matrix(0.4735 -0.8808 0.8808 0.4735 468.7588 1407.9677)" class="st8" cx="1412.2" cy="311.9" rx="20.1" ry="17"/>
					</g>
				</g>
			</g>
			<g>
				<g>
					<path d="M1407.8,324c-0.6,0-1.1-0.4-1.3-1c-3.9-15.7,9.5-22.5,9.6-22.5c0.7-0.3,1.4,0,1.8,0.6c0.3,0.6,0.1,1.4-0.6,1.8
						c-0.5,0.2-11.7,6-8.3,19.6c0.2,0.7-0.3,1.4-1,1.6C1408,324,1407.9,324,1407.8,324z"/>
				</g>
			</g>
		</g>
	</g>
</g>
</svg>
