<?xml version="1.0" encoding="utf-8"?>
<!-- Generator: Adobe Illustrator 27.3.1, SVG Export Plug-In . SVG Version: 6.00 Build 0)  -->
<svg version="1.1" xmlns="http://www.w3.org/2000/svg" xmlns:xlink="http://www.w3.org/1999/xlink" x="0px" y="0px"
	 viewBox="0 0 1920 1080" style="enable-background:new 0 0 1920 1080;" xml:space="preserve">
<style type="text/css">
	.st0{fill:#C0D8F2;}
	.st1{fill:#28191E;}
	.st2{fill:#C4ECFF;}
	.st3{fill:#FFFFFF;}
	.st4{fill:#00335A;}
	.st5{fill:#DCF5FF;}
	.st6{fill:#A1CFE2;}
	.st7{fill:#F5643F;}
	.st8{font-family:'MSReferenceSansSerif';}
	.st9{font-size:36px;}
	.st10{fill:#688387;}
	.st11{fill:none;stroke:#000000;stroke-miterlimit:10;}
	.st12{fill:none;stroke:#000000;stroke-linecap:round;stroke-miterlimit:10;}
	.st13{fill:#F4E340;}
	.st14{fill:#E25439;}
</style>
<g id="Облака">
	<g>
		<g>
			<path class="st0" d="M344,254.7H213.8c-7.6,0-13.8-6.2-13.8-13.8v-4.2h157.7v4.2C357.8,248.6,351.6,254.7,344,254.7z"/>
			<circle class="st0" cx="347.6" cy="241" r="10.2"/>
			<circle class="st0" cx="209.2" cy="239" r="10.2"/>
			<circle class="st0" cx="277.1" cy="238.6" r="10.2"/>
			<circle class="st0" cx="256.1" cy="225.9" r="18"/>
			<circle class="st0" cx="326.7" cy="227.3" r="16.7"/>
			<circle class="st0" cx="232.3" cy="238.1" r="16.7"/>
			<circle class="st0" cx="300.7" cy="234.7" r="16.5"/>
		</g>
		<g>
			<path class="st0" d="M769.5,196.9h211.8c12.4,0,22.4-10,22.4-22.4v-6.8H747.1v6.8C747.1,186.9,757.1,196.9,769.5,196.9z"/>
			<circle class="st0" cx="763.6" cy="167.5" r="16.5"/>
			<circle class="st0" cx="987.2" cy="174.5" r="16.5"/>
			<circle class="st0" cx="878.3" cy="170.6" r="16.5"/>
			<circle class="st0" cx="912.5" cy="150.1" r="29.3"/>
			<circle class="st0" cx="797.6" cy="152.3" r="27.1"/>
			<circle class="st0" cx="951.1" cy="169.8" r="27.1"/>
			<circle class="st0" cx="840" cy="164.3" r="26.8"/>
		</g>
		<g>
			<path class="st0" d="M1628.2,195.4h-130.7c-7.6,0-13.8-6.2-13.8-13.8v-4.2H1642v4.2C1642,189.2,1635.8,195.4,1628.2,195.4z"/>
			<circle class="st0" cx="1632.7" cy="179.8" r="10.2"/>
			<circle class="st0" cx="1493.8" cy="181.6" r="10.2"/>
			<circle class="st0" cx="1597.7" cy="163.1" r="10.2"/>
			<circle class="st0" cx="1546.3" cy="166.6" r="25.2"/>
			<circle class="st0" cx="1581.3" cy="175" r="16.7"/>
			<circle class="st0" cx="1516.1" cy="178.7" r="16.7"/>
			<circle class="st0" cx="1608.9" cy="178.9" r="16.5"/>
		</g>
	</g>
</g>
<g id="Кран">
	<g>
		<g>
			<g>
				<path class="st1" d="M125.8,471.5v-0.6v-0.4v-0.6v-0.4v-0.6v-0.4v-0.6v-0.4v-0.6v-0.4v-0.6V465v-0.6V464v-0.6v-0.4v-0.6v-0.4
					v-0.6v-0.4v-0.6v-0.4V459v-0.4V458v-0.4v-0.6v-0.4V290.7v-0.4v-0.6v-0.4v-0.6v-0.4V286v-0.4c-22.6-1.9-35.9-3-36.9-3.1l-0.5,0
					l1-19.3l0.3-6.6h0l0.2-4.5l13.7-0.9l0-0.5l0.3,0.4l56.3-3.8l0.1-1.3l0.7,1.3l21-1.4c29,2.4,83.1,6.9,150.2,12.5l462.3-124.1
					L160.5,245.4l-0.1-1.3L805.6,131l0.1-0.6h3l0.5-0.1l0,0.1l2.8-0.5l0.1,0.6h1.7l-0.3-0.3l0.7-0.9l0.5,0.5l0.4-0.4l2.6,3.7
					l159.1,177.5l13.4,1c3,0.2,5.2,3.4,5,7l-1.8,35.5c-0.2,3.6-2.8,6.4-5.7,6.2l-34.1-2.7l-0.5,10.3c-0.2,4.3-3.2,7.6-6.8,7.3
					l-19.1-1.5c-3.5-0.3-6.2-4-6-8.3l0.5-10.3l0,0l0.1-2.3l-37.2-2.9l-0.5,0l0-0.9c-9.9-0.8-20.5-1.7-31.5-2.6v6.9
					c0,1.1-0.7,2-1.6,2h-3.9v13.5h0.1v18.4h-62.4v-18.4h0.2v-13.5h-17.2c-0.9,0-1.6-0.9-1.6-2v-14.1c-2.6-0.2-5.2-0.4-7.9-0.7
					c0.1,0.2,0.1,0.3,0.1,0.4l-1,0.3c0-0.2-0.2-0.5-0.3-0.9c-48.3-4-101.2-8.5-155.6-13l-0.1,1l-1-1.1
					c-173.7-14.5-361.3-30.2-453.5-37.9v184.9h5c0.1,0,0.2,0,0.3,0.1c0.3,0.1,0.4,0.5,0.4,0.9l-0.7,10.9c0,0.6-0.1,1.2-0.4,1.8
					l-5.5,10.3c-0.1,0.1-0.2,0.3-0.2,0.4c-0.2,0.2-0.4,0.4-0.6,0.6c-0.5,0.5-1.2,0.7-1.8,0.7h-3.5v2.3l-0.9,0.2l-0.2,5.3
					c0,0.9-0.3,1.7-0.7,2.5c-0.3,0.6-0.6,1.2-0.9,1.6c-0.8,1.2-1.9,2.2-3,3.1c-1.1,0.9-1.7,2.3-1.6,4c0.1,2.2,1.6,4,3.5,4.2
					c0.8,0.1,1.5-0.1,2-0.5c1.8-1.2,2.6-4,2.7-4.3c0.8-1.8,0.9-4.1,2.5-5.3c0.1-0.1,0.2-0.1,0.3-0.2c0.4-0.2,0.9,0.4,0.6,0.8
					c-0.9,1.5-0.1,3.7-0.1,5.6c0,4.1-2.1,7.7-5,9.4c-1.3,0.8-2.8,1.3-4.4,1.2c-4.8-0.2-8.7-4.9-8.7-10.7c0-4,1.9-7.6,4.7-9.4
					c1.9-1.3,3.1-3.7,3.1-6.3v-1.1l-0.9-0.2v-2.3h-3.5c-1.1,0-2-0.7-2.6-1.7l-5.5-10.3c-0.3-0.5-0.4-1.1-0.4-1.8l-0.7-10.9
					c0-0.4,0.1-0.7,0.4-0.8c0,0,0,0,0.1,0c0.1,0,0.2-0.1,0.3-0.1h5.1v-0.3V471.5z M129.5,284.6l-5.8-7.3c-8.1-0.7-14.9-1.2-20.2-1.7
					l-0.3,5.9l-1-0.1l0.3-5.9c-6.8-0.6-11.1-0.9-12.5-1l-0.3,6.7C92.5,281.5,106.7,282.7,129.5,284.6z M158.1,287l-5.6-7.3
					c-8-0.7-15.4-1.3-22.1-1.8l-0.4,6.8C138.3,285.4,147.8,286.1,158.1,287z M600.9,315.2l1.2-23.4c-10.6-0.9-21.4-1.8-32.5-2.7
					l22.8,25.3C595.2,314.8,598,315,600.9,315.2z M593.6,315.9l6.9,7.6l0.4-7C598.4,316.3,596,316.1,593.6,315.9z M645.3,318.9
					l0.2-23.5c-10.7-0.9-21.9-1.8-33.5-2.8l25.3,25.5C640,318.4,642.7,318.7,645.3,318.9z M638.7,319.6l6.6,6.6l0.1-6.1
					C643.1,320,640.9,319.8,638.7,319.6z M685.7,322.2l2.4-23.3c-10.3-0.8-21.4-1.8-33.1-2.7l24.3,25.5
					C681.4,321.8,683.5,322,685.7,322.2z M680.5,323l4.6,4.8l0.4-4.4C683.9,323.3,682.2,323.2,680.5,323z M720.2,325l6.5-22.9
					c-9.5-0.8-20.5-1.7-32.7-2.7l19.8,25.1C716,324.7,718.1,324.9,720.2,325z M715,325.9l3.7,4.7l1.2-4.3
					C718.2,326.1,716.6,326,715,325.9z M292,266.4l-1.2,23.4c9.7,0.8,19.5,1.6,29.5,2.4L298.8,267
					C296.5,266.8,294.3,266.6,292,266.4z M297.6,265.6l-5.2-6.1l-0.3,5.7C293.9,265.3,295.8,265.4,297.6,265.6z M258.1,263.6
					l-2.9,23.2c9.1,0.7,18.3,1.5,27.8,2.3l-18.7-25C262.2,264,260.2,263.8,258.1,263.6z M263.3,262.8l-4.4-5.9l-0.7,5.5
					C259.9,262.5,261.6,262.6,263.3,262.8z M220.2,260.5l-1.2,23.4c8.8,0.7,18,1.5,27.4,2.3L226.2,261
					C224.2,260.9,222.2,260.7,220.2,260.5z M225.1,259.6l-4.6-5.7l-0.3,5.3C221.9,259.4,223.5,259.5,225.1,259.6z M185.9,257.7
					l-1.2,23.4c8.4,0.7,17.2,1.4,26.4,2.2l-19.5-25.1C189.7,258,187.8,257.9,185.9,257.7z M190.5,256.8l-4.3-5.5l-0.3,5.1
					C187.5,256.6,189,256.7,190.5,256.8z M131.7,256.5l-1.1,20.2c6.4,0.5,13.4,1.1,21,1.7l-16.9-22L131.7,256.5z M133.7,255.1
					l-1.8-2.3l-0.1,2.4L133.7,255.1z M104.4,257.4l-0.9,17.1c5.1,0.4,11.5,0.9,19.1,1.6l-15.1-18.7L104.4,257.4z M106.5,256
					l-1.9-2.4l-0.1,2.4L106.5,256z M89.9,273.3c1.5,0.1,5.8,0.5,12.5,1l0.9-16.9l-12.6,0.4L89.9,273.3z M124.1,276.1
					c1.7,0.1,3.5,0.3,5.4,0.4l1.1-20l-21.7,0.7L124.1,276.1z M125.2,277.5l3.9,4.9l0.3-4.6C128,277.7,126.6,277.6,125.2,277.5z
					 M153,278.5c1.7,0.1,3.5,0.3,5.2,0.4l1.5-23.3l-23.8,0.8L153,278.5z M154.1,279.8l3.8,4.9l0.3-4.6
					C156.8,280.1,155.4,280,154.1,279.8z M160.8,255.7l-1.5,23.3c6.1,0.5,12.6,1,19.4,1.6L164.8,256L160.8,255.7z M164,254.6l-2.8-5
					l-0.3,4.7L164,254.6z M180,280.7c1.2,0.1,2.4,0.2,3.6,0.3l1.2-23.4c-1.4-0.1-2.9-0.2-4.3-0.4l-14.4-1.2L180,280.7z M180.8,282
					l2.6,4.5l0.2-4.3C182.7,282.2,181.7,282.1,180.8,282z M212.6,283.4c1.8,0.1,3.5,0.3,5.3,0.4l1.2-23.4c-9-0.7-17.7-1.5-26-2.1
					L212.6,283.4z M213.7,284.7l4,5.1l0.2-4.8C216.5,285,215.1,284.9,213.7,284.7z M248,286.3c2,0.2,4.1,0.3,6.2,0.5l2.9-23.2
					c-10-0.8-19.8-1.6-29.2-2.4L248,286.3z M249.1,287.6l4.3,5.4l0.6-5C252.4,287.9,250.7,287.8,249.1,287.6z M284.5,289.3
					c1.7,0.1,3.5,0.3,5.3,0.4l1.2-23.4c-8.5-0.7-16.9-1.4-25.1-2.1L284.5,289.3z M285.5,290.6l3.9,5.3l0.3-4.9
					C288.3,290.9,286.9,290.8,285.5,290.6z M322,292.3c2.1,0.2,4.2,0.3,6.3,0.5l1.2-23.4c-9.8-0.8-19.5-1.6-29-2.4L322,292.3z
					 M323.2,293.7l4.7,5.6l0.3-5.1C326.5,294,324.8,293.9,323.2,293.7z M329.3,292.9c9.1,0.7,18.4,1.5,27.7,2.3l-20-25.1
					c-2.1-0.2-4.3-0.4-6.4-0.5L329.3,292.9z M364.4,295.8l1.2-23.4c-9.1-0.7-18.2-1.5-27.1-2.2l20,25.1
					C360.5,295.5,362.4,295.7,364.4,295.8z M359.6,296.7l4.4,5.6l0.3-5.2C362.7,297,361.2,296.8,359.6,296.7z M401.5,298.9l1.2-23.4
					c-9.4-0.8-18.8-1.5-28.1-2.3l20.7,25.2C397.3,298.5,399.4,298.7,401.5,298.9z M396.4,299.7l4.7,5.7l0.3-5.3
					C399.7,300,398.1,299.9,396.4,299.7z M439.5,302l2-23.3c-9.9-0.8-19.8-1.6-29.7-2.4l21,25.2C435.1,301.6,437.3,301.8,439.5,302z
					 M434,302.8l4.9,5.9l0.5-5.4C437.6,303.1,435.8,303,434,302.8z M476.1,305l1.2-23.4c-9-0.7-18-1.5-27-2.2l19.8,25.1
					C472,304.7,474.1,304.8,476.1,305z M471.1,305.9l4.6,5.9l0.3-5.5C474.4,306.1,472.7,306,471.1,305.9z M513.9,308.1l2.1-23.3
					c-9.8-0.8-19.7-1.6-29.7-2.4l20.9,25.2C509.4,307.7,511.6,307.9,513.9,308.1z M508.3,308.9l5,6.1l0.5-5.6
					C511.9,309.2,510.1,309.1,508.3,308.9z M517,284.9l-2.1,23.3c10.9,0.9,21.6,1.8,32.1,2.6l-23.7-25.4
					C521.3,285.2,519.2,285.1,517,284.9z M522.1,284l-4.6-5l-0.4,4.6C518.8,283.7,520.5,283.9,522.1,284z M484.7,282.2
					c-2.1-0.2-4.2-0.3-6.3-0.5l-1.2,23.4c9.5,0.8,19,1.6,28.4,2.3L484.7,282.2z M483.5,280.9l-4.8-5.8l-0.3,5.4
					C480.1,280.6,481.8,280.7,483.5,280.9z M448.7,279.3c-2-0.2-4.1-0.3-6.1-0.5l-2,23.3c9.3,0.8,18.6,1.5,27.9,2.3L448.7,279.3z
					 M447.6,277.9l-4.5-5.7l-0.5,5.3C444.3,277.6,446,277.8,447.6,277.9z M410.3,276.1c-2.2-0.2-4.4-0.4-6.6-0.5l-1.2,23.4
					c9.6,0.8,19.2,1.6,28.8,2.4L410.3,276.1z M409.1,274.8l-5.1-6.1l-0.3,5.6C405.6,274.5,407.3,274.6,409.1,274.8z M373,273.1
					c-2.1-0.2-4.2-0.3-6.3-0.5l-1.2,23.4c9.4,0.8,18.8,1.5,28.3,2.3L373,273.1z M371.8,271.7l-4.8-5.9l-0.3,5.5
					C368.4,271.4,370.1,271.5,371.8,271.7z M335.8,268.7l-5-6.2l-0.3,5.8C332.3,268.4,334.1,268.6,335.8,268.7z M337.4,268.9
					c9.3,0.8,18.8,1.5,28.3,2.3l0.4-8.3l7.3,8.9c9.7,0.8,19.5,1.6,29.3,2.4l0.4-8.4l7.6,9.1c10.3,0.8,20.6,1.7,30.9,2.5l0.7-8
					l6.8,8.6c9.4,0.8,18.8,1.5,28.2,2.3l0.4-8.2l7.3,8.9c10.4,0.9,20.7,1.7,31,2.5l0.6-7.1l7.2,7.7c12.4,1,24.5,2,36.4,3l1-7.2
					l7.1,7.9c11.6,0.9,22.9,1.9,33.8,2.8l0.4-7.4l8.1,8.1c12.1,1,23.8,2,34.9,2.9l0.1-7.7l8,8.4c12.3,1,23.8,2,34.6,2.8l0.5-5.1
					l4.3,5.5c12.7,1,24.2,2,34.1,2.8l1.4-5l0.6,0.8c0.5,0.7,1.8,2.4,3.4,4.6c16.7,1.4,28.3,2.3,33.5,2.7v-8.2
					c-135.2-11.3-307.3-25.7-433.7-36.2l-2,0.5L337.4,268.9z M561.3,287.2c1.8,0.1,3.5,0.3,5.3,0.4l-4.7-5.2L561.3,287.2z
					 M603.2,290.7c1.9,0.2,3.8,0.3,5.6,0.5l-5.4-5.4L603.2,290.7z M646.6,294.2c1.8,0.1,3.5,0.3,5.3,0.4l-5.2-5.5L646.6,294.2z
					 M689.2,297.7c0.7,0.1,1.5,0.1,2.2,0.2l-2-2.5L689.2,297.7z M728.1,300.9c1,0.1,1.9,0.2,2.9,0.2c-0.7-1-1.4-1.9-2.1-2.9
					L728.1,300.9z M809.9,355.2v13.5h11.9v-13.5H809.9z M822.9,355.2v13.5H834v-13.5H822.9z M808.9,368.7v-13.5h-10.8v13.5H808.9z
					 M766.1,305.3c-5.1-0.4-16.4-1.3-32.5-2.7c4.8,6.6,12.4,16.9,17.9,24.9c7.2,0.6,12.2,1,14.6,1.2V305.3z M732,302.5
					c-1.4-0.1-2.8-0.2-4.2-0.3l-6.5,22.9c11.5,0.9,21.2,1.7,28.7,2.4C744.9,320.2,738.1,310.7,732,302.5z M692.5,299.3
					c-1.1-0.1-2.3-0.2-3.4-0.3l-2.4,23.3c9.2,0.8,17.8,1.5,25.6,2.1L692.5,299.3z M653.2,296.1c-2.2-0.2-4.4-0.4-6.6-0.5l-0.2,23.5
					c10.9,0.9,21.3,1.7,31.1,2.5L653.2,296.1z M610.2,292.5c-2.3-0.2-4.7-0.4-7.1-0.6l-1.2,23.4c11.6,1,22.8,1.9,33.6,2.8
					L610.2,292.5z M567.9,289.1c-2.2-0.2-4.5-0.4-6.7-0.5l-3.1,23.2c11.1,0.9,22,1.8,32.6,2.7L567.9,289.1z M560.1,288.4
					c-11.4-0.9-23.1-1.9-35-2.9l23.7,25.4c2.7,0.2,5.5,0.5,8.2,0.7L560.1,288.4z M550.1,312.4l6,6.4l0.8-5.9
					C554.6,312.7,552.4,312.5,550.1,312.4z M548.4,312.2c-11-0.9-22.2-1.8-33.6-2.8l-0.6,7.3c13.9,1.2,27.8,2.3,41.7,3.5
					L548.4,312.2z M506.7,308.8c-9.8-0.8-19.7-1.6-29.6-2.4l-0.4,7.3c12.1,1,24.3,2,36.5,3L506.7,308.8z M469.6,305.7
					c-9.7-0.8-19.4-1.6-29.1-2.4l-0.6,7.2c11.9,1,23.9,2,35.9,3L469.6,305.7z M432.4,302.7c-10-0.8-20-1.6-30-2.5l-0.4,7.2
					c12.1,1,24.4,2,36.8,3.1L432.4,302.7z M394.8,299.6c-9.9-0.8-19.7-1.6-29.5-2.4l-0.4,7.1c11.9,1,24,2,36.2,3L394.8,299.6z
					 M358.1,296.6c-9.7-0.8-19.3-1.6-28.8-2.4l-0.4,7c11.5,1,23.3,1.9,35.3,2.9L358.1,296.6z M321.5,293.6
					c-10.4-0.9-20.7-1.7-30.8-2.5l-0.4,7c12.2,1,24.8,2.1,37.7,3.1L321.5,293.6z M284,290.5c-9.9-0.8-19.5-1.6-29-2.4l-0.9,6.9
					c11.4,1,23.2,1.9,35.4,3L284,290.5z M247.5,287.5c-9.8-0.8-19.4-1.6-28.6-2.3l-0.4,6.9c11.1,0.9,22.8,1.9,35,2.9L247.5,287.5z
					 M212.1,284.6c-9.6-0.8-18.8-1.5-27.5-2.3l-0.4,6.8c10.5,0.9,21.7,1.8,33.6,2.8L212.1,284.6z M179.5,281.9
					c-7.1-0.6-13.8-1.1-20.3-1.7l-0.4,6.8c7.7,0.6,16,1.3,24.8,2.1L179.5,281.9z M91,253.3l-0.2,3.2l12.6-0.4l0.2-3.7L91,253.3z
					 M107.9,256l22.8-0.7l0.3-4.7l-26,1.8L107.9,256z M131.6,250.5l3.5,4.6l24.8-0.8l0.4-5.7L131.6,250.5z M182.1,247.1l-20.3,1.4
					l3.5,6.3l15.3,1.3c1.4,0.1,2.9,0.2,4.3,0.4l0.4-8l6.7,8.6c8.7,0.7,17.8,1.5,27.2,2.2l0.4-8.2l7,8.8c9.9,0.8,20,1.6,30.5,2.5
					l1-8.2l6.6,8.9c8.6,0.7,17.3,1.4,26.2,2.2l0.4-8.4l7.8,9.1c9.9,0.8,20,1.6,30.3,2.5l0.4-8.6l0.1,0.2l-0.1-0.3
					C264,253.9,210.7,249.5,182.1,247.1z M766.1,294.6v-1.5c0-1.1,0.7-2,1.6-2h15.2l22.5-158.5L336,258.7
					C462.1,269.2,632.1,283.4,766.1,294.6z M815.7,205.6l-4.6-36.6l-2.9-0.1l-3.3,29.6L815.7,205.6z M804.6,199.8L803,214l11.6-7.6
					L804.6,199.8z M802.9,215.5l0,0.1l16,15.3l-3-23.9L802.9,215.5z M802.7,217.1l-3.8,33.8l20.2-18.2L802.7,217.1z M799.1,252.3
					l24.3,14.9l-4.1-33L799.1,252.3z M798.6,253.4l-3.1,27.2l26-13.1L798.6,253.4z M823.5,267.9l-27.6,14l22.2,9.3h8.4L823.5,267.9z
					 M795.2,282.9l-0.9,8.2h20.5L795.2,282.9z M808.8,131.7l-0.2,0l-2.2,0.6L784,291.1h9.3l1-8.6l-1.4-0.6l1.5-0.8l3.2-28.4
					l-0.5-0.3l0.6-0.5l4-35.8l-0.9-0.8l1-0.7l1.8-15.6l-0.2-0.2l0.3-0.8l3.4-30.1l0.1-0.6l4.8,0.1l4.8,38.7l0,0l0,0l3.2,25.7
					l0.7,0.7l-0.6,0.5l7.2,57.7h9.9l-1.1-2.7l-22.8-156.7H808.8z M837.2,288l1.3,3.1h12.3c0.9,0,1.6,0.9,1.6,2v8.7
					c17.6,1.5,33.9,2.8,48.5,4l22.3,1.7l0,0l0.8,0.1l0.1-1.2l13,1L816.8,133.9l-2.3-2.6L837.2,288z M887.3,306.1l-1.3,24.9l35.9,2.8
					l1.3-24.8c-6.9-0.6-14.2-1.2-22.1-1.8L887.3,306.1z M921,350.7l0.8-15.7l-35.9-2.8l-0.8,15.5C898.2,348.8,910.3,349.8,921,350.7
					z M822.9,140.7l115.7,166.9l36.4,2.8L822.9,140.7z M884.1,347.6l0.8-15.5l-32.3-2.5l0.1-1.3l32.3,2.5l1.3-25
					c-10.6-0.9-21.9-1.8-33.8-2.8V345C863.6,345.9,874.1,346.8,884.1,347.6z M845.9,355.2h-10.8v13.5h10.8V355.2z M785.9,368.7H797
					v-13.5h-11.1V368.7z M766.1,337.8v-7.7c-2.3-0.2-7-0.6-13.7-1.1c2.3,3.4,4.2,6.3,5.2,8.1C760.4,337.3,763.2,337.5,766.1,337.8z
					 M750.9,328.8c-7.7-0.6-17.8-1.5-30-2.5l-1.9,6.6l-5.7-7.2c-8.2-0.7-17.2-1.4-26.8-2.2l-0.7,6.8l-7.1-7.5
					c-10.2-0.8-21-1.7-32.4-2.7l-0.1,7.5c38.2,3.2,75.3,6.3,109.9,9.2C755.1,335.1,753.2,332.2,750.9,328.8z M645,327.7l-8.1-8.2
					c-11.2-0.9-22.9-1.9-35.1-2.9l-0.4,7.4C616.1,325.3,630.6,326.5,645,327.7z M591.9,315.8c-11-0.9-22.4-1.8-34-2.8l-1,7.3
					c14.1,1.2,28.2,2.4,42.2,3.5L591.9,315.8z M142.4,472.2c-0.1-0.1-0.2-0.2-0.3-0.3c-0.1-0.1-0.2-0.2-0.3-0.3
					c-0.1-0.1-0.3-0.3-0.4-0.4c-0.1-0.1-0.2-0.2-0.3-0.3c-0.1-0.1-0.2-0.2-0.3-0.2c-0.2-0.1-0.3-0.3-0.5-0.4
					c-0.1-0.1-0.2-0.1-0.2-0.2c-0.2-0.1-0.3-0.2-0.5-0.3c-0.1,0-0.1-0.1-0.2-0.1c-0.2-0.1-0.4-0.2-0.6-0.3c-0.1,0-0.1,0-0.2-0.1
					c-0.2-0.1-0.4-0.1-0.6-0.2c0,0,0,0-0.1,0c-0.2-0.1-0.5-0.1-0.7-0.1c-0.1,0-0.1,0-0.2,0c-0.3,0-0.5,0-0.8,0c0,0,0,0,0,0
					c-0.3,0-0.5,0-0.7,0c-0.1,0-0.1,0-0.2,0c-0.2,0-0.5,0.1-0.7,0.1c0,0-0.1,0-0.1,0c-0.2,0-0.4,0.1-0.5,0.2c-0.1,0-0.2,0.1-0.2,0.1
					c-0.2,0.1-0.4,0.2-0.6,0.3c-0.1,0-0.2,0.1-0.3,0.2c-0.1,0.1-0.2,0.1-0.3,0.2c-0.1,0.1-0.2,0.1-0.3,0.2c0,0-0.1,0.1-0.1,0.1
					c-0.2,0.2-0.5,0.4-0.7,0.6c0,0-0.1,0.1-0.1,0.1c-0.4,0.3-0.7,0.7-1,1.1H142.4z M131.8,466C131.9,466,131.9,466,131.8,466
					c0.2-0.1,0.4-0.2,0.6-0.3c0,0,0.1,0,0.1-0.1c0.2-0.1,0.3-0.1,0.5-0.2c0.1,0,0.1,0,0.2-0.1c0.1,0,0.3-0.1,0.4-0.1
					c0.1,0,0.1,0,0.2-0.1c0.1,0,0.3-0.1,0.4-0.1c0.1,0,0.1,0,0.2,0c0.1,0,0.3-0.1,0.4-0.1c0.1,0,0.1,0,0.2,0c0.2,0,0.3,0,0.5,0
					c0.1,0,0.1,0,0.2,0c0.2,0,0.4,0,0.6,0c0,0,0,0,0,0c0,0,0,0,0,0c0,0,0,0,0,0c0.2,0,0.4,0,0.6,0c0.1,0,0.2,0,0.2,0
					c0.1,0,0.3,0,0.4,0c0.1,0,0.2,0,0.3,0c0.1,0,0.2,0,0.4,0.1c0.1,0,0.2,0,0.3,0.1c0.1,0,0.2,0.1,0.3,0.1c0.1,0,0.2,0.1,0.3,0.1
					c0.1,0,0.2,0.1,0.3,0.1c0.1,0,0.2,0.1,0.3,0.1c0.1,0,0.2,0.1,0.3,0.1c0.1,0,0.2,0.1,0.3,0.1c0.1,0.1,0.2,0.1,0.4,0.2
					c0.1,0,0.1,0.1,0.2,0.1c0.2,0.1,0.4,0.2,0.5,0.3c0.1,0,0.1,0.1,0.2,0.1c0.1,0.1,0.2,0.1,0.3,0.2c0.1,0.1,0.2,0.1,0.2,0.2
					c0.1,0.1,0.2,0.1,0.3,0.2c0.1,0.1,0.2,0.1,0.2,0.2c0.1,0.1,0.2,0.1,0.3,0.2c0.1,0.1,0.2,0.1,0.2,0.2c0.1,0.1,0.2,0.2,0.3,0.2
					c0.1,0.1,0.1,0.1,0.2,0.2c0.1,0.1,0.2,0.2,0.3,0.3c0.1,0.1,0.1,0.1,0.2,0.2c0.1,0.1,0.2,0.2,0.3,0.3c0.1,0.1,0.1,0.1,0.2,0.2
					c0.1,0.2,0.3,0.3,0.4,0.5c0.1,0.1,0.1,0.1,0.1,0.2c0.1,0.1,0.2,0.3,0.3,0.4c0,0,0,0,0,0v-0.5v-0.4v-0.6v-0.4v-0.6v-0.4v-0.6
					v-0.4v-0.6V465v-0.6V464v-0.6v-0.4v-0.6v-0.4v-0.6v-0.4v-0.6v-0.4V459v-0.4V458v-0.4v-0.6v-0.4V290.7v-0.4v-0.6v-0.4v-0.6v-0.4
					v-0.6v-0.2c-6.5-0.5-12.5-1-18-1.5V470C128.5,468.3,130.1,466.9,131.8,466z"/>
			</g>
			<g>
				<path class="st1" d="M777.3,861.2L777,861l0.3-0.1c0.3-17.7,0.8-39.3,1.3-65.6l-0.3-0.2l0.4-0.2c1.6-76.6,4.1-193.2,8.1-370.4
					l0-0.6h16.5v-0.5h21.9v0.5h15.7v-0.2h1v0.2h0.3l-0.3,0.2v517.3h-0.5l-0.1,0.6c-1.7-0.3-8.1-0.4-16.1-0.4v1.1h-4.2h-13.4h-4.2
					v-0.9c-14.2,0.2-26.9,0.5-27.2,0.5l-1.9,0l1.8-1.4C776,939.4,776,927.9,777.3,861.2z M778.4,860.4l24.9-12.6v-38.4l-23.6-13.4
					C779.1,821.7,778.7,842.9,778.4,860.4z M840.8,830l-15.7,8v46.3l15.7,8V830z M840.8,494.6L825.1,506v49.4l15.7,9.3V494.6z
					 M804.3,470.3l3.2,2.1v-24.7l-3.2,2.2V470.3z M803.2,450.5l-14.3,9.8l14.3,9.3V450.5z M804.3,543l3.2,1.9v-26.1l-3.2,2.3V543z
					 M803.2,521.8l-15.6,11.3l15.6,9.3V521.8z M804.3,606.5l3.2,1.7v-23.3l-3.2,1.9V606.5z M803.2,587.3l-16.6,9.7l16.6,8.8V587.3z
					 M804.3,672.4l3.2,2.3v-29.3l-3.2,1.8V672.4z M803.2,647.7l-18.8,10.6l18.8,13.4V647.7z M804.3,740.9l3.2,1.8v-26.9l-3.2,1.6
					V740.9z M803.2,718l-20.5,10.4l20.5,11.9V718z M804.3,808.5l3.2,1.8v-29.6l-3.2,1.7V808.5z M803.2,783l-22.4,12.1l22.4,12.8V783
					z M819.8,907.4v-24.5l-11.3-5.8v39L819.8,907.4z M808.5,917.6v22.9c3.8,0,7.7-0.1,11.3-0.1v-31.4L808.5,917.6z M819.8,881.5
					v-40.9l-11.3,5.8v29.3L819.8,881.5z M824.1,821.2l-3.2-1.8v19.4l3.2-1.6V821.2z M825.1,836.6l13.7-7l-13.7-7.8V836.6z
					 M824.1,556.1l-3.2-1.9v21.3l3.2-1.9V556.1z M825.1,573.1l13.8-8.1l-13.8-8.2V573.1z M808.5,425.5v20l11.3-7.7v-12.2H808.5z
					 M808.5,446.9V473l11.3,7.4v-41.2L808.5,446.9z M808.5,474.5v42l11.3-8.2v-26.5L808.5,474.5z M808.5,518v27.5l11.3,6.7v-42.4
					L808.5,518z M819.8,772.7v-21.3l-11.3-6.6v34L819.8,772.7z M808.5,780.2v30.7l11.3,6.5v-43.3L808.5,780.2z M819.8,749.9v-40.4
					l-11.3,5.7v28.1L819.8,749.9z M824.1,687.9l-3.2-2.3v22l3.2-1.6V687.9z M825.1,705.5l13.9-7l-13.9-9.8V705.5z M824.1,686.4V636
					l-3.2,1.8v46.4L824.1,686.4z M820.9,709v41.5l3.2,1.8v-45L820.9,709z M819.8,708.2v-23.3l-11.3-8v37.1L819.8,708.2z
					 M819.8,683.4v-45.1l-11.3,6.4v30.7L819.8,683.4z M819.8,636.9v-20.8l-11.3-6v33.2L819.8,636.9z M819.8,614.7v-37.2l-11.3,6.6
					v24.5L819.8,614.7z M819.8,576.2v-22.5l-11.3-6.7v35.9L819.8,576.2z M820.9,552.8l3.2,1.9v-48l-3.2,2.3V552.8z M820.9,577v38.3
					l3.2,1.7v-41.9L820.9,577z M820.9,616.7v19.7l3.2-1.8v-16.2L820.9,616.7z M825.1,634l13.8-7.7l-13.8-7.3V634z M825.1,635.4v51.8
					l15.7,11.1v-71.7L825.1,635.4z M840.8,699l-15.7,7.9V753l15.7,9.1V699z M825.1,754.4v15.4l13.8-7.4L825.1,754.4z M824.1,753.8
					l-3.2-1.8v20.2l3.2-1.7V753.8z M820.9,773.5V818l3.2,1.8v-48L820.9,773.5z M820.9,840.1v41.9l3.2,1.6v-45.2L820.9,840.1z
					 M819.8,839.3v-20.5l-11.3-6.5V845L819.8,839.3z M807.5,811.7l-3.2-1.8v37.3l3.2-1.6V811.7z M807.5,779.4v-35.2l-3.2-1.8v38.8
					L807.5,779.4z M807.5,714.5v-38.4l-3.2-2.3v42.2L807.5,714.5z M807.5,643.9v-34.3l-3.2-1.7v37.8L807.5,643.9z M807.5,583.4
					v-37.1l-3.2-1.9v40.9L807.5,583.4z M807.5,517.2v-43.5l-3.2-2.1v47.8L807.5,517.2z M807.5,446.1v-21h-3.2v23.1L807.5,446.1z
					 M820.9,425.2V437l3.2-2.2v-9.6H820.9z M820.9,438.4v42.6l3.2,2.1v-46.9L820.9,438.4z M820.9,482.5v25l3.2-2.3v-20.6
					L820.9,482.5z M825.1,504.5l14-10.1l-14-9.1V504.5z M840.8,565.3l-15.7,9.2v43.1l15.7,8.3V565.3z M840.8,762.8l-15.7,8.5v49.1
					l15.7,8.9V762.8z M825.1,885.6v17.8l13.9-10.7L825.1,885.6z M824.1,885.1l-3.2-1.6v23.2l3.2-2.4V885.1z M820.9,908.1v32.2
					c1.1,0,2.2,0,3.2,0v-34.7L820.9,908.1z M807.5,940.5v-22.1l-3.2,2.4v19.7C805.3,940.5,806.4,940.5,807.5,940.5z M807.5,916.9
					v-40.3l-3.2-1.6v44.4L807.5,916.9z M807.5,875.2V847l-3.2,1.6v25L807.5,875.2z M803.2,849.1L779.7,861l23.5,12V849.1z
					 M779.7,794.3l23.5-12.7v-39.9l-22.1-12.8l-0.1-0.1C780.5,753.4,780.1,775.1,779.7,794.3z M781.1,727.8l22.2-11.2v-43.5
					l-20.7-14.7C782,683.7,781.5,706.8,781.1,727.8z M782.6,657.8l20.6-11.6v-39l-19.1-10.2l19.1-11.2v-42.1l-17.8-10.6l17.8-12.9
					V471L787,460.5C785.2,538.1,783.8,603.2,782.6,657.8z M787.8,425.2c-0.3,11.9-0.5,23.6-0.8,34.9l16.2-11.1v-23.9H787.8z
					 M825.1,425.2v8.9l13-8.9H825.1z M825.1,435.5v48.3l15.7,10.2v-69.2L825.1,435.5z M840.8,940.7v-47.8l-15.7,12v35.5
					C832.5,940.4,838.4,940.5,840.8,940.7z M803.2,940.6v-18.9l-25.3,19.4C782.1,941,792.2,940.7,803.2,940.6z M803.2,920.2v-45.7
					l-24.9-12.7c-1.2,59.9-1.3,75-1.3,78.5L803.2,920.2z"/>
			</g>
			<g>
				<rect x="777.9" y="387.8" class="st1" width="74.1" height="1.3"/>
			</g>
			<g>
				<polygon class="st1" points="836.9,421.8 791.3,391.7 791.3,423.7 782.4,423.7 782.4,390.9 790,390.9 789.2,390.4 789.7,389.2 
					836.9,420.4 836.9,390.9 845.7,390.9 845.7,423.7 836.9,423.7 				"/>
			</g>
		</g>
	</g>
</g>
<g id="Больница">
	<g>
		<rect x="513.1" y="634.8" class="st2" width="1151" height="315"/>
	</g>
	<g>
		<rect x="532.6" y="641.8" class="st3" width="215.1" height="309"/>
	</g>
	<g>
		<rect x="493.9" y="624.8" class="st4" width="275.2" height="32"/>
	</g>
	<g>
		<rect x="1036.8" y="281.8" class="st2" width="626" height="668"/>
	</g>
	<g>
		<rect x="1056.8" y="281.8" class="st3" width="586" height="668"/>
	</g>
	<g>
		<g>
			<g>
				<rect x="1092.9" y="340.3" class="st2" width="65.8" height="83"/>
			</g>
			<g>
				<g>
					<polygon class="st5" points="1133.7,340.3 1113.9,415.8 1101.9,415.8 1121.7,340.3 					"/>
				</g>
				<g>
					<polygon class="st5" points="1158.4,340.3 1138.6,415.8 1118.9,415.8 1138.7,340.3 					"/>
				</g>
			</g>
			<g>
				<rect x="1092.9" y="415.3" class="st4" width="66" height="8"/>
			</g>
			<g>
				<rect x="1125.4" y="340.3" width="1" height="74.5"/>
			</g>
			<g>
				<rect x="1092.7" y="376.9" width="65.7" height="1"/>
			</g>
			<g>
				<rect x="1204.9" y="340.3" class="st2" width="65.8" height="83"/>
			</g>
			<g>
				<g>
					<polygon class="st5" points="1245.7,340.3 1225.9,415.8 1213.9,415.8 1233.7,340.3 					"/>
				</g>
				<g>
					<polygon class="st5" points="1270.4,340.3 1250.6,415.8 1230.9,415.8 1250.7,340.3 					"/>
				</g>
			</g>
			<g>
				<rect x="1204.9" y="415.3" class="st4" width="66" height="8"/>
			</g>
			<g>
				<rect x="1237.4" y="340.3" width="1" height="74.5"/>
			</g>
			<g>
				<rect x="1204.7" y="376.9" width="65.7" height="1"/>
			</g>
			<g>
				<rect x="1316.9" y="340.3" class="st2" width="65.8" height="83"/>
			</g>
			<g>
				<g>
					<polygon class="st5" points="1357.7,340.3 1337.9,415.8 1325.9,415.8 1345.7,340.3 					"/>
				</g>
				<g>
					<polygon class="st5" points="1382.4,340.3 1362.6,415.8 1342.9,415.8 1362.7,340.3 					"/>
				</g>
			</g>
			<g>
				<rect x="1316.9" y="415.3" class="st4" width="66" height="8"/>
			</g>
			<g>
				<rect x="1349.4" y="340.3" width="1" height="74.5"/>
			</g>
			<g>
				<rect x="1316.7" y="376.9" width="65.7" height="1"/>
			</g>
			<g>
				<rect x="1428.9" y="340.3" class="st2" width="65.8" height="83"/>
			</g>
			<g>
				<g>
					<polygon class="st5" points="1469.7,340.3 1449.9,415.8 1437.9,415.8 1457.7,340.3 					"/>
				</g>
				<g>
					<polygon class="st5" points="1494.4,340.3 1474.6,415.8 1454.9,415.8 1474.7,340.3 					"/>
				</g>
			</g>
			<g>
				<rect x="1428.9" y="415.3" class="st4" width="66" height="8"/>
			</g>
			<g>
				<rect x="1461.4" y="340.3" width="1" height="74.5"/>
			</g>
			<g>
				<rect x="1428.7" y="376.9" width="65.7" height="1"/>
			</g>
			<g>
				<rect x="1540.9" y="340.3" class="st2" width="65.8" height="83"/>
			</g>
			<g>
				<g>
					<polygon class="st5" points="1581.7,340.3 1561.9,415.8 1549.9,415.8 1569.7,340.3 					"/>
				</g>
				<g>
					<polygon class="st5" points="1606.4,340.3 1586.6,415.8 1566.9,415.8 1586.7,340.3 					"/>
				</g>
			</g>
			<g>
				<rect x="1540.9" y="415.3" class="st4" width="66" height="8"/>
			</g>
			<g>
				<rect x="1573.4" y="340.3" width="1" height="74.5"/>
			</g>
			<g>
				<rect x="1540.7" y="376.9" width="65.7" height="1"/>
			</g>
		</g>
		<g>
			<g>
				<rect x="1092.9" y="463.3" class="st2" width="65.8" height="83"/>
			</g>
			<g>
				<g>
					<polygon class="st5" points="1133.7,463.3 1113.9,538.8 1101.9,538.8 1121.7,463.3 					"/>
				</g>
				<g>
					<polygon class="st5" points="1158.4,463.3 1138.6,538.8 1118.9,538.8 1138.7,463.3 					"/>
				</g>
			</g>
			<g>
				<rect x="1092.9" y="538.3" class="st4" width="66" height="8"/>
			</g>
			<g>
				<rect x="1125.4" y="463.3" width="1" height="74.5"/>
			</g>
			<g>
				<rect x="1092.7" y="499.9" width="65.7" height="1"/>
			</g>
			<g>
				<rect x="1204.9" y="463.3" class="st2" width="65.8" height="83"/>
			</g>
			<g>
				<g>
					<polygon class="st5" points="1245.7,463.3 1225.9,538.8 1213.9,538.8 1233.7,463.3 					"/>
				</g>
				<g>
					<polygon class="st5" points="1270.4,463.3 1250.6,538.8 1230.9,538.8 1250.7,463.3 					"/>
				</g>
			</g>
			<g>
				<rect x="1204.9" y="538.3" class="st4" width="66" height="8"/>
			</g>
			<g>
				<rect x="1237.4" y="463.3" width="1" height="74.5"/>
			</g>
			<g>
				<rect x="1204.7" y="499.9" width="65.7" height="1"/>
			</g>
			<g>
				<rect x="1316.9" y="463.3" class="st2" width="65.8" height="83"/>
			</g>
			<g>
				<g>
					<polygon class="st5" points="1357.7,463.3 1337.9,538.8 1325.9,538.8 1345.7,463.3 					"/>
				</g>
				<g>
					<polygon class="st5" points="1382.4,463.3 1362.6,538.8 1342.9,538.8 1362.7,463.3 					"/>
				</g>
			</g>
			<g>
				<rect x="1316.9" y="538.3" class="st4" width="66" height="8"/>
			</g>
			<g>
				<rect x="1349.4" y="463.3" width="1" height="74.5"/>
			</g>
			<g>
				<rect x="1316.7" y="499.9" width="65.7" height="1"/>
			</g>
			<g>
				<rect x="1428.9" y="463.3" class="st2" width="65.8" height="83"/>
			</g>
			<g>
				<g>
					<polygon class="st5" points="1469.7,463.3 1449.9,538.8 1437.9,538.8 1457.7,463.3 					"/>
				</g>
				<g>
					<polygon class="st5" points="1494.4,463.3 1474.6,538.8 1454.9,538.8 1474.7,463.3 					"/>
				</g>
			</g>
			<g>
				<rect x="1428.9" y="538.3" class="st4" width="66" height="8"/>
			</g>
			<g>
				<rect x="1461.4" y="463.3" width="1" height="74.5"/>
			</g>
			<g>
				<rect x="1428.7" y="499.9" width="65.7" height="1"/>
			</g>
			<g>
				<rect x="1540.9" y="463.3" class="st2" width="65.8" height="83"/>
			</g>
			<g>
				<g>
					<polygon class="st5" points="1581.7,463.3 1561.9,538.8 1549.9,538.8 1569.7,463.3 					"/>
				</g>
				<g>
					<polygon class="st5" points="1606.4,463.3 1586.6,538.8 1566.9,538.8 1586.7,463.3 					"/>
				</g>
			</g>
			<g>
				<rect x="1540.9" y="538.3" class="st4" width="66" height="8"/>
			</g>
			<g>
				<rect x="1573.4" y="463.3" width="1" height="74.5"/>
			</g>
			<g>
				<rect x="1540.7" y="499.9" width="65.7" height="1"/>
			</g>
		</g>
		<g>
			<g>
				<rect x="1092.9" y="586.3" class="st2" width="65.8" height="83"/>
			</g>
			<g>
				<g>
					<polygon class="st5" points="1133.7,586.3 1113.9,661.8 1101.9,661.8 1121.7,586.3 					"/>
				</g>
				<g>
					<polygon class="st5" points="1158.4,586.3 1138.6,661.8 1118.9,661.8 1138.7,586.3 					"/>
				</g>
			</g>
			<g>
				<rect x="1092.9" y="661.3" class="st4" width="66" height="8"/>
			</g>
			<g>
				<rect x="1125.4" y="586.3" width="1" height="74.5"/>
			</g>
			<g>
				<rect x="1092.7" y="622.9" width="65.7" height="1"/>
			</g>
			<g>
				<rect x="1204.9" y="586.3" class="st2" width="65.8" height="83"/>
			</g>
			<g>
				<g>
					<polygon class="st5" points="1245.7,586.3 1225.9,661.8 1213.9,661.8 1233.7,586.3 					"/>
				</g>
				<g>
					<polygon class="st5" points="1270.4,586.3 1250.6,661.8 1230.9,661.8 1250.7,586.3 					"/>
				</g>
			</g>
			<g>
				<rect x="1204.9" y="661.3" class="st4" width="66" height="8"/>
			</g>
			<g>
				<rect x="1237.4" y="586.3" width="1" height="74.5"/>
			</g>
			<g>
				<rect x="1204.7" y="622.9" width="65.7" height="1"/>
			</g>
			<g>
				<rect x="1316.9" y="586.3" class="st2" width="65.8" height="83"/>
			</g>
			<g>
				<g>
					<polygon class="st5" points="1357.7,586.3 1337.9,661.8 1325.9,661.8 1345.7,586.3 					"/>
				</g>
				<g>
					<polygon class="st5" points="1382.4,586.3 1362.6,661.8 1342.9,661.8 1362.7,586.3 					"/>
				</g>
			</g>
			<g>
				<rect x="1316.9" y="661.3" class="st4" width="66" height="8"/>
			</g>
			<g>
				<rect x="1349.4" y="586.3" width="1" height="74.5"/>
			</g>
			<g>
				<rect x="1316.7" y="622.9" width="65.7" height="1"/>
			</g>
			<g>
				<rect x="1428.9" y="586.3" class="st2" width="65.8" height="83"/>
			</g>
			<g>
				<g>
					<polygon class="st5" points="1469.7,586.3 1449.9,661.8 1437.9,661.8 1457.7,586.3 					"/>
				</g>
				<g>
					<polygon class="st5" points="1494.4,586.3 1474.6,661.8 1454.9,661.8 1474.7,586.3 					"/>
				</g>
			</g>
			<g>
				<rect x="1428.9" y="661.3" class="st4" width="66" height="8"/>
			</g>
			<g>
				<rect x="1461.4" y="586.3" width="1" height="74.5"/>
			</g>
			<g>
				<rect x="1428.7" y="622.9" width="65.7" height="1"/>
			</g>
			<g>
				<rect x="1540.9" y="586.3" class="st2" width="65.8" height="83"/>
			</g>
			<g>
				<g>
					<polygon class="st5" points="1581.7,586.3 1561.9,661.8 1549.9,661.8 1569.7,586.3 					"/>
				</g>
				<g>
					<polygon class="st5" points="1606.4,586.3 1586.6,661.8 1566.9,661.8 1586.7,586.3 					"/>
				</g>
			</g>
			<g>
				<rect x="1540.9" y="661.3" class="st4" width="66" height="8"/>
			</g>
			<g>
				<rect x="1573.4" y="586.3" width="1" height="74.5"/>
			</g>
			<g>
				<rect x="1540.7" y="622.9" width="65.7" height="1"/>
			</g>
		</g>
		<g>
			<g>
				<rect x="1092.9" y="709.3" class="st2" width="65.8" height="83"/>
			</g>
			<g>
				<g>
					<polygon class="st5" points="1133.7,709.3 1113.9,784.8 1101.9,784.8 1121.7,709.3 					"/>
				</g>
				<g>
					<polygon class="st5" points="1158.4,709.3 1138.6,784.8 1118.9,784.8 1138.7,709.3 					"/>
				</g>
			</g>
			<g>
				<rect x="1092.9" y="784.3" class="st4" width="66" height="8"/>
			</g>
			<g>
				<rect x="1125.4" y="709.3" width="1" height="74.5"/>
			</g>
			<g>
				<rect x="1092.7" y="745.9" width="65.7" height="1"/>
			</g>
			<g>
				<rect x="1204.9" y="709.3" class="st2" width="65.8" height="83"/>
			</g>
			<g>
				<g>
					<polygon class="st5" points="1245.7,709.3 1225.9,784.8 1213.9,784.8 1233.7,709.3 					"/>
				</g>
				<g>
					<polygon class="st5" points="1270.4,709.3 1250.6,784.8 1230.9,784.8 1250.7,709.3 					"/>
				</g>
			</g>
			<g>
				<rect x="1204.9" y="784.3" class="st4" width="66" height="8"/>
			</g>
			<g>
				<rect x="1237.4" y="709.3" width="1" height="74.5"/>
			</g>
			<g>
				<rect x="1204.7" y="745.9" width="65.7" height="1"/>
			</g>
			<g>
				<rect x="1316.9" y="709.3" class="st2" width="65.8" height="83"/>
			</g>
			<g>
				<g>
					<polygon class="st5" points="1357.7,709.3 1337.9,784.8 1325.9,784.8 1345.7,709.3 					"/>
				</g>
				<g>
					<polygon class="st5" points="1382.4,709.3 1362.6,784.8 1342.9,784.8 1362.7,709.3 					"/>
				</g>
			</g>
			<g>
				<rect x="1316.9" y="784.3" class="st4" width="66" height="8"/>
			</g>
			<g>
				<rect x="1349.4" y="709.3" width="1" height="74.5"/>
			</g>
			<g>
				<rect x="1316.7" y="745.9" width="65.7" height="1"/>
			</g>
			<g>
				<rect x="1428.9" y="709.3" class="st2" width="65.8" height="83"/>
			</g>
			<g>
				<g>
					<polygon class="st5" points="1469.7,709.3 1449.9,784.8 1437.9,784.8 1457.7,709.3 					"/>
				</g>
				<g>
					<polygon class="st5" points="1494.4,709.3 1474.6,784.8 1454.9,784.8 1474.7,709.3 					"/>
				</g>
			</g>
			<g>
				<rect x="1428.9" y="784.3" class="st4" width="66" height="8"/>
			</g>
			<g>
				<rect x="1461.4" y="709.3" width="1" height="74.5"/>
			</g>
			<g>
				<rect x="1428.7" y="745.9" width="65.7" height="1"/>
			</g>
			<g>
				<rect x="1540.9" y="709.3" class="st2" width="65.8" height="83"/>
			</g>
			<g>
				<g>
					<polygon class="st5" points="1581.7,709.3 1561.9,784.8 1549.9,784.8 1569.7,709.3 					"/>
				</g>
				<g>
					<polygon class="st5" points="1606.4,709.3 1586.6,784.8 1566.9,784.8 1586.7,709.3 					"/>
				</g>
			</g>
			<g>
				<rect x="1540.9" y="784.3" class="st4" width="66" height="8"/>
			</g>
			<g>
				<rect x="1573.4" y="709.3" width="1" height="74.5"/>
			</g>
			<g>
				<rect x="1540.7" y="745.9" width="65.7" height="1"/>
			</g>
		</g>
		<g>
			<g>
				<rect x="1092.9" y="832.3" class="st2" width="65.8" height="83"/>
			</g>
			<g>
				<g>
					<polygon class="st5" points="1133.7,832.3 1113.9,907.8 1101.9,907.8 1121.7,832.3 					"/>
				</g>
				<g>
					<polygon class="st5" points="1158.4,832.3 1138.6,907.8 1118.9,907.8 1138.7,832.3 					"/>
				</g>
			</g>
			<g>
				<rect x="1092.9" y="907.3" class="st4" width="66" height="8"/>
			</g>
			<g>
				<rect x="1125.4" y="832.3" width="1" height="74.5"/>
			</g>
			<g>
				<rect x="1092.7" y="868.9" width="65.7" height="1"/>
			</g>
			<g>
				<rect x="1204.9" y="832.3" class="st2" width="65.8" height="83"/>
			</g>
			<g>
				<g>
					<polygon class="st5" points="1245.7,832.3 1225.9,907.8 1213.9,907.8 1233.7,832.3 					"/>
				</g>
				<g>
					<polygon class="st5" points="1270.4,832.3 1250.6,907.8 1230.9,907.8 1250.7,832.3 					"/>
				</g>
			</g>
			<g>
				<rect x="1204.9" y="907.3" class="st4" width="66" height="8"/>
			</g>
			<g>
				<rect x="1237.4" y="832.3" width="1" height="74.5"/>
			</g>
			<g>
				<rect x="1204.7" y="868.9" width="65.7" height="1"/>
			</g>
			<g>
				<rect x="1316.9" y="832.3" class="st2" width="65.8" height="83"/>
			</g>
			<g>
				<g>
					<polygon class="st5" points="1357.7,832.3 1337.9,907.8 1325.9,907.8 1345.7,832.3 					"/>
				</g>
				<g>
					<polygon class="st5" points="1382.4,832.3 1362.6,907.8 1342.9,907.8 1362.7,832.3 					"/>
				</g>
			</g>
			<g>
				<rect x="1316.9" y="907.3" class="st4" width="66" height="8"/>
			</g>
			<g>
				<rect x="1349.4" y="832.3" width="1" height="74.5"/>
			</g>
			<g>
				<rect x="1316.7" y="868.9" width="65.7" height="1"/>
			</g>
			<g>
				<rect x="1428.9" y="832.3" class="st2" width="65.8" height="83"/>
			</g>
			<g>
				<g>
					<polygon class="st5" points="1469.7,832.3 1449.9,907.8 1437.9,907.8 1457.7,832.3 					"/>
				</g>
				<g>
					<polygon class="st5" points="1494.4,832.3 1474.6,907.8 1454.9,907.8 1474.7,832.3 					"/>
				</g>
			</g>
			<g>
				<rect x="1428.9" y="907.3" class="st4" width="66" height="8"/>
			</g>
			<g>
				<rect x="1461.4" y="832.3" width="1" height="74.5"/>
			</g>
			<g>
				<rect x="1428.7" y="868.9" width="65.7" height="1"/>
			</g>
			<g>
				<rect x="1540.9" y="832.3" class="st2" width="65.8" height="83"/>
			</g>
			<g>
				<g>
					<polygon class="st5" points="1581.7,832.3 1561.9,907.8 1549.9,907.8 1569.7,832.3 					"/>
				</g>
				<g>
					<polygon class="st5" points="1606.4,832.3 1586.6,907.8 1566.9,907.8 1586.7,832.3 					"/>
				</g>
			</g>
			<g>
				<rect x="1540.9" y="907.3" class="st4" width="66" height="8"/>
			</g>
			<g>
				<rect x="1573.4" y="832.3" width="1" height="74.5"/>
			</g>
			<g>
				<rect x="1540.7" y="868.9" width="65.7" height="1"/>
			</g>
		</g>
	</g>
	<g>
		<rect x="748.5" y="498.8" class="st6" width="385" height="451"/>
	</g>
	<g>
		<rect x="768.5" y="498.8" class="st3" width="345" height="451"/>
	</g>
	<g>
		<rect x="1016.8" y="266.3" class="st4" width="666" height="32"/>
	</g>
	<g>
		<rect x="819.5" y="816.3" class="st4" width="243" height="134"/>
	</g>
	<g>
		<rect x="728.5" y="483.3" class="st4" width="425" height="32"/>
	</g>
	<g>
		<rect x="803.4" y="788.3" class="st4" width="275.2" height="32"/>
	</g>
	<g>
		<rect x="549.1" y="804.3" class="st4" width="182" height="16"/>
	</g>
	<g>
		<rect x="559.1" y="820.3" class="st2" width="162" height="130"/>
	</g>
	<g>
		<rect x="882" y="830.3" class="st2" width="118" height="120"/>
	</g>
	<g>
		<g>
			<rect x="559.1" y="830.8" width="162" height="1"/>
		</g>
		<g>
			<rect x="559.6" y="839.8" width="162" height="1"/>
		</g>
		<g>
			<rect x="559.6" y="848.8" width="162" height="1"/>
		</g>
		<g>
			<rect x="559.6" y="857.8" width="162" height="1"/>
		</g>
		<g>
			<rect x="559.6" y="866.8" width="162" height="1"/>
		</g>
		<g>
			<rect x="559.6" y="875.8" width="162" height="1"/>
		</g>
		<g>
			<rect x="559.6" y="884.8" width="162" height="1"/>
		</g>
		<g>
			<rect x="559.6" y="893.8" width="162" height="1"/>
		</g>
		<g>
			<rect x="559.6" y="902.8" width="162" height="1"/>
		</g>
		<g>
			<rect x="559.6" y="911.8" width="162" height="1"/>
		</g>
		<g>
			<rect x="559.6" y="920.8" width="162" height="1"/>
		</g>
		<g>
			<rect x="559.6" y="929.8" width="162" height="1"/>
		</g>
		<g>
			<rect x="559.6" y="938.8" width="162" height="1"/>
		</g>
	</g>
	<g>
		<rect x="783.5" y="602.8" class="st2" width="315" height="169.5"/>
	</g>
	<g>
		<polygon class="st5" points="941.1,602.8 866.5,763.3 834.5,763.3 909.1,602.8 		"/>
	</g>
	<g>
		<polygon class="st5" points="1085.3,602.8 1010.8,763.3 941.5,763.3 1016.1,602.8 		"/>
	</g>
	<g>
		<rect x="783.5" y="763.3" class="st4" width="315" height="9"/>
	</g>
	<g>
		<g>
			<rect x="941" y="602.8" width="1" height="160.5"/>
		</g>
		<g>
			<rect x="1020" y="602.8" width="1" height="160.5"/>
		</g>
		<g>
			<rect x="861" y="602.8" width="1" height="160.5"/>
		</g>
	</g>
	<g>
		<circle class="st7" cx="941" cy="471.8" r="51"/>
	</g>
	<g>
		<rect x="931.5" y="440.8" class="st3" width="19" height="62"/>
	</g>
	<g>
		
			<rect x="931.5" y="440.8" transform="matrix(-3.789507e-06 1 -1 -3.789507e-06 1412.8292 -469.2371)" class="st3" width="19" height="62"/>
	</g>
	<g>
		<g>
			<rect x="784" y="533" class="st7" width="315" height="55"/>
		</g>
		<text transform="matrix(1 0 0 1 850.2267 574.0116)" class="st3 st8 st9">HOSPITAL</text>
	</g>
	<g>
		<rect x="783.5" y="687.1" width="315" height="1"/>
	</g>
	<g>
		<rect x="940.6" y="830.3" width="1" height="120"/>
	</g>
	<g>
		<path d="M951.6,897.8h-4v-13h4V897.8z M948.6,896.8h2v-11h-2V896.8z"/>
	</g>
	<g>
		<path d="M933.6,897.8h-4v-13h4V897.8z M930.6,896.8h2v-11h-2V896.8z"/>
	</g>
	<g>
		<path class="st2" d="M722.1,764.3v13h-162v-13c0-36.5,24.1-67.3,57.3-77.5c6.4-2,13.1-3.1,20.1-3.4c1.2-0.1,2.4-0.1,3.6-0.1
			c8.8,0,17.2,1.4,25.1,4c11.5,3.7,21.8,10,30.4,18.1c0.6,0.5,1.2,1.1,1.7,1.7C713,721.7,722.1,741.9,722.1,764.3z"/>
	</g>
	<g>
		<path class="st5" d="M637.5,683.4l-30.4,93.9h-19l29.3-90.5C623.8,684.9,630.5,683.7,637.5,683.4z"/>
	</g>
	<g>
		<path class="st5" d="M696.7,705.3l-23.3,72h-36.3l29.2-90C677.7,691,688.1,697.2,696.7,705.3z"/>
	</g>
	<g>
		<rect x="639.6" y="683.3" width="1" height="94"/>
	</g>
	<g>
		<rect x="564.9" y="733.7" width="151.2" height="1"/>
	</g>
	<g>
		<rect x="89" y="949.8" width="1742.6" height="1"/>
	</g>
</g>
<g id="Деревья">
	<g>
		<g>
			<path class="st10" d="M394.2,774.4c0,0-49.7,20.4-25.2,54.5c24.6,34.1,77.3,12,77.3,12s41.3,25.2,82.7,7.2
				c41.3-18,12-83.3-17.4-82.7c0,0,17.9-42.2-5.4-58.1c-20.2-13.8-38.9,4.8-38.9,4.8s9-65.3-28.2-60.5s-27.6,45.5-27.6,45.5
				S352.3,715.7,394.2,774.4z"/>
			<path class="st11" d="M447.5,951V792.4c0,0,0-64.1,47.9-64.1"/>
			<path class="st12" d="M447.5,792.4c0,0,4.2-73.1-9-122.2"/>
			<path class="st12" d="M448.1,751.6c0,0-16.2-40.1-48.5-20.4"/>
			<path class="st12" d="M447.5,817.1c0,0-33.5-30.1-56.3-7.3"/>
			<path class="st12" d="M447.5,850.1c0,0-4.8-63.1,69.5-47.5"/>
			<path class="st12" d="M426.3,804.2c0,0,6.8-31.6-14.7-43"/>
			<path class="st12" d="M476.3,802.9c0,0,35.3,13.4,39.5,33.8"/>
			<path class="st12" d="M465.3,740.7c0,0,25.4-5.8,30.2,7.4"/>
			<path class="st12" d="M445.2,707.4c-0.1-1.3-6.1-15.7-15.1-17.5"/>
			<path class="st12" d="M430.1,729.5c0,0-9.6-18-21.6-15"/>
		</g>
		<g>
			<g>
				<path class="st10" d="M1740.4,883c0,0-40-8.7-29.6-30.3c0,0-33.2,16.4-39.1-13.3c0,0-38.1,14.6-35.1-21.3
					c0,0-36.9-30.3,0.1-56.1c0,0-29.3-32.8,8.4-63.5c37.7-30.7,52.4,4.9,52.4,4.9s-15.4-74.7,47.5-77.5s30,63.5,30,63.5
					s8.4,39.8-11.2,42.6c0,0,34.9-8.4,46.8,27.2c11.9,35.6-28.6,34.9-28.6,34.9s29.3,16.8,15.4,45.4c-14,28.6-34.9,16.1-34.9,16.1
					S1760.9,880.5,1740.4,883z"/>
				<path class="st12" d="M1778.6,752.8c-9.4,7.3-16.5,20.3-21.9,35.1c0,0,0,0,0,0c-3.3,9.2-6,19-8.2,28.6c-6.3,28.4-8,54.7-8,54.7
					v11.8v6c0,0,0,0.1,0,0.1v60.8"/>
				<path class="st12" d="M1740.5,889c0,0,0.3-135.6-59-157.2"/>
				<path class="st12" d="M1720.7,776c0,0-22.2-78.5,27.8-122.5"/>
				<path class="st12" d="M1736.4,836.8c0,0-6-57.5-96.1-39.4"/>
			</g>
			<path class="st12" d="M1716.7,720c0,0,14-23,48-13"/>
			<path class="st12" d="M1756.6,787.9c0,0,6.5-27.4-6.5-40.4"/>
			<path class="st12" d="M1700.4,744.2c0,0-22.2-10.7-47.2,1.3"/>
			<path class="st12" d="M1688.4,795c0,0-7.2-17.5-35.2-19.5"/>
			<path class="st12" d="M1718.2,807c0,0-23-5.5-27,19.5"/>
			<path class="st12" d="M1748.5,816.5c-0.3,0,12.7-13,29.7,3"/>
		</g>
	</g>
</g>
<g id="Машина">
	<g>
		<g>
			<rect x="275.1" y="892.2" class="st4" width="312.2" height="27.5"/>
		</g>
		<g>
			<g>
				<path class="st13" d="M620.8,901.8c-0.1,10.7-2.1,19.1-2.1,19.1l-1.8,0.4l-2.5,3.9l-25.7,2.1c0,0-3.1-21.7-18.2-29.5
					c-3.4-1.7-7.3-2.8-12-2.8s-8.6,1.1-12,2.8c-5.3,2.8-9.1,7.3-11.8,11.9c-4.9,8.5-6.1,17.6-6.1,17.6h-188c0,0-0.1-9.1-4.8-17.6
					c-2.6-4.7-6.6-9.3-12.8-11.9c-3.6-1.5-7.8-2.5-13-2.5s-9.4,0.9-12.9,2.5c-6.2,2.7-10.2,7.2-12.7,11.9
					c-4.6,8.5-4.6,17.6-4.6,17.6c-10.1-0.1-19.6-1.6-27.4-3.3c-11.8-2.6-19.7-5.8-19.7-5.8s-0.3-7.2-0.2-18.6c0-0.6,0-1.2,0-1.8
					c0-8.4,0.2-18.8,0.8-30.2c0.2-3,0.3-6,0.5-9.1c0.1-0.8,0.1-1.6,0.2-2.5c0.3-4.7,0.7-9.5,1.2-14.4c3.9-39.7,10.9-65.7,10.9-65.7
					l217.9,1.1c23.5-0.4,53.4,28.5,53.4,28.5l3.5,3.5l43.6,44.3h6.7l43.9,21.4c0.3,0.6,0.6,1.2,0.9,1.7c3.1,6.6,4.4,14,4.7,20.9
					C620.8,898.8,620.8,900.3,620.8,901.8z"/>
			</g>
		</g>
		<g>
			<g>
				<path class="st7" d="M503.4,801.4l-253.4,0v-6l249.2,0c2.3,0,4.1,1.9,4.1,4.1V801.4z"/>
			</g>
		</g>
		<g>
			<g>
				<path class="st7" d="M503.4,858.4v9.1l-270,0c0.2-3,0.3-6,0.5-9.1H503.4z"/>
			</g>
		</g>
		<g>
			<g>
				<path class="st4" d="M555.1,864.3c-0.3,0-46.6-8.4-66.9-12c-5.6-1-10-5.4-11-11.1l-5-28.5c-0.5-2.8,1.9-5.3,4.8-4.9l28.4,4.1
					c4.9,0.7,9.3,3.2,12.5,7L555.1,864.3z"/>
			</g>
		</g>
		<g>
			<g>
				<polygon class="st4" points="564.6,853.1 558.6,853.1 515.4,808.8 520.9,808.8 				"/>
			</g>
		</g>
		<g>
			<g>
				<path class="st4" d="M361.4,806v49.9h86.3c2.1,0,3.9-1.6,4.1-3.7l4.5-40.1c0.4-3.2-2.2-6.1-5.4-6.1H361.4z"/>
			</g>
		</g>
		<g>
			<g>
				<path d="M364,856.1H249.9l4.4-41.8c0.5-4.8,4.5-8.4,9.4-8.4l99.3,0v0.4h-99.3c-4.7,0-8.5,3.5-9,8.1l-4.4,41.4H364V856.1z"/>
			</g>
		</g>
		<g>
			<g>
				<path class="st14" d="M245.5,861.6v37.9h-12.9c0-0.6,0-1.2,0-1.8c0.1-11.1,0.4-25.9,1.5-41.8h5.7
					C242.9,855.9,245.5,858.4,245.5,861.6z"/>
			</g>
		</g>
		<g>
			<g>
				<path d="M232.6,897.7h64.6c-6.2,2.7-10.2,7.2-12.7,11.9h-32v14.2c-11.8-2.6-19.7-5.8-19.7-5.8S232.5,910.2,232.6,897.7z"/>
			</g>
		</g>
		<g>
			<g>
				<path d="M546.6,897.7c-5.3,2.8-9.1,7.3-11.8,11.9H335.9c-2.6-4.7-6.6-9.3-12.8-11.9H546.6z"/>
			</g>
		</g>
		<g>
			<g>
				<path d="M334.9,897.8c0-0.1-5.1-12.2-25.8-12.2c-20.7,0-25.3,12.1-25.3,12.2l-0.3-0.1c0-0.1,1.2-3.2,4.9-6.2
					c3.4-2.8,9.8-6.2,20.8-6.2c21,0,26.1,12.3,26.2,12.4L334.9,897.8z"/>
			</g>
		</g>
		<g>
			<g>
				<path d="M587.6,899.2c-0.1-0.1-11.1-14.7-28.7-14.7c-17.6,0-26.9,13.1-27,13.3l-0.3-0.2c0.1-0.1,9.4-13.4,27.3-13.4
					c17.8,0,28.8,14.7,29,14.8L587.6,899.2z"/>
			</g>
		</g>
		<g>
			<g>
				<path d="M620.8,901.8c-0.1,10.7-2.1,19.1-2.1,19.1l-1.8,0.4l-2.5,3.9l-25.7,2.1c0,0-3.1-21.7-18.2-29.5h39.7L620.8,901.8z"/>
			</g>
		</g>
		<g>
			<g>
				<path class="st4" d="M620.7,897.2l-3.8-2.3l-7-0.7l-3.2-17.6l1.8-2.1l7.6,1.7C619.2,882.9,620.4,890.3,620.7,897.2z"/>
			</g>
		</g>
		<g>
			<g>
				<path d="M476.5,927.3l-3.8-45.3l-3.2-5.6l0,0l-2.1-72.2l0.2,0l34.4,3.4c7.5,0.7,14.6,4.2,19.8,9.6l36.1,37.6l-11-0.1l0-0.4
					l10.2,0.1l-35.6-37c-5.2-5.4-12.1-8.8-19.6-9.5l-34.2-3.4l2.1,71.8l3.2,5.7l3.8,45.3L476.5,927.3z"/>
			</g>
		</g>
		<g>
			<g>
				<polygon points="360,927.2 359.6,927.2 362,778.1 362.2,778.1 464.6,780.2 464.6,780.4 463,927.2 462.6,927.2 464.2,780.5 
					362.3,778.4 				"/>
			</g>
		</g>
		<g>
			<g>
				<path d="M492.3,795.6c-8-5.2-20.1-4.9-20.2-4.9l-214-1.1l0-0.4l214,1.1c0.1,0,12.3-0.3,20.4,4.9L492.3,795.6z"/>
			</g>
		</g>
		<g>
			<g>
				<path class="st4" d="M473.9,777.4l-11.6-1.1c-2-0.2-3.5-2-3.3-4l0.3-3.2c0.2-2,2-3.5,4-3.3l11.6,1.1c2,0.2,3.5,2,3.3,4l-0.3,3.2
					C477.7,776.1,475.9,777.6,473.9,777.4z"/>
			</g>
		</g>
		<g>
			<g>
				<path class="st4" d="M271.1,775.8h-10.2v-5.3c0-1.9,1.6-3.5,3.5-3.5h3.1c1.9,0,3.5,1.6,3.5,3.5V775.8z"/>
			</g>
		</g>
		<g>
			<g>
				<ellipse transform="matrix(0.6174 -0.7866 0.7866 0.6174 -610.1884 598.4536)" cx="310.2" cy="926.6" rx="23.4" ry="23.4"/>
			</g>
		</g>
		<g>
			<g>
				<circle class="st7" cx="310.2" cy="926.6" r="14.5"/>
			</g>
		</g>
		<g>
			<g>
				<circle cx="310.2" cy="926.6" r="7.4"/>
			</g>
		</g>
		<g>
			<g>
				<ellipse transform="matrix(0.6174 -0.7866 0.7866 0.6174 -514.7379 794.7157)" cx="559.7" cy="926.6" rx="23.4" ry="23.4"/>
			</g>
		</g>
		<g>
			<g>
				<circle class="st7" cx="559.7" cy="926.6" r="14.5"/>
			</g>
		</g>
		<g>
			<g>
				<circle cx="559.7" cy="926.6" r="7.4"/>
			</g>
		</g>
		<g>
			<g>
				<path d="M457.9,864.9h-15.5v-2.8h15.5V864.9z M442.8,864.5h14.8v-2.1h-14.8V864.5z"/>
			</g>
		</g>
		<g>
			<g>
				<path d="M491.6,864.9h-15.5v-2.8h15.5V864.9z M476.5,864.5h14.8v-2.1h-14.8V864.5z"/>
			</g>
		</g>
	</g>
</g>
</svg>
