<?xml version="1.0" encoding="utf-8"?>
<!-- Generator: Adobe Illustrator 27.3.1, SVG Export Plug-In . SVG Version: 6.00 Build 0)  -->
<svg version="1.1" id="Слой_1" xmlns="http://www.w3.org/2000/svg" xmlns:xlink="http://www.w3.org/1999/xlink" x="0px" y="0px"
	 viewBox="0 0 1920 1080" style="enable-background:new 0 0 1920 1080;" xml:space="preserve">
<style type="text/css">
	.st0{clip-path:url(#SVGID_00000127764251247695394750000013660871747437245316_);}
	.st1{fill:#FF643A;}
	.st2{opacity:0.53;clip-path:url(#SVGID_00000127764251247695394750000013660871747437245316_);fill:#6290C8;}
	.st3{clip-path:url(#SVGID_00000127764251247695394750000013660871747437245316_);fill:none;stroke:#FFFFFF;stroke-miterlimit:10;}
	.st4{clip-path:url(#SVGID_00000127764251247695394750000013660871747437245316_);fill:#604531;}
	.st5{clip-path:url(#SVGID_00000127764251247695394750000013660871747437245316_);fill:#826348;}
	.st6{clip-path:url(#SVGID_00000127764251247695394750000013660871747437245316_);fill:#9E7454;}
	.st7{fill:#B5D7F1;}
	
		.st8{clip-path:url(#SVGID_00000127764251247695394750000013660871747437245316_);fill:none;stroke:#AB9995;stroke-width:4;stroke-miterlimit:10;}
	.st9{fill:#F5A363;}
	.st10{fill:none;stroke:#FFFFFF;stroke-linecap:round;stroke-miterlimit:10;}
	.st11{fill:#FFFFFF;}
	.st12{fill:#FC8180;}
	.st13{fill:none;stroke:#000000;stroke-width:2;stroke-linecap:round;stroke-miterlimit:10;}
	.st14{fill:#FFA474;}
	.st15{fill:none;stroke:#000000;stroke-width:0.75;stroke-linecap:round;stroke-miterlimit:10;}
	.st16{fill:none;stroke:#375759;stroke-width:2;stroke-miterlimit:10;}
	.st17{fill:#5A8387;}
	.st18{fill:none;stroke:#000000;stroke-width:0.5;stroke-miterlimit:10;}
	.st19{fill:#F9BF30;}
	.st20{fill:#E8B031;}
	.st21{fill:#662D91;}
	.st22{fill:#C91F40;}
	.st23{fill:#AD1438;}
	.st24{fill:#FBB040;}
	.st25{fill:#F15A29;}
	.st26{fill:#DB4921;}
	.st27{fill:#BE1E2D;}
	.st28{fill:#6584F5;}
	.st29{fill:#3A60CC;}
	.st30{fill:none;stroke:#EF4136;stroke-linecap:round;stroke-linejoin:round;stroke-miterlimit:10;}
	.st31{fill:#FFAF77;}
	.st32{fill:none;stroke:#000000;stroke-linecap:round;stroke-miterlimit:10;}
	.st33{fill:#FF5F6D;}
	.st34{fill:#85A96C;}
	.st35{fill:none;stroke:#000000;stroke-miterlimit:10;}
	.st36{fill:#1D0A00;}
	
		.st37{clip-path:url(#SVGID_00000127764251247695394750000013660871747437245316_);fill:none;stroke:#000000;stroke-width:4;stroke-miterlimit:10;}
</style>
<g>
	<defs>
		<rect id="SVGID_1_" width="1920" height="1080"/>
	</defs>
	<clipPath id="SVGID_00000108990463998994627280000017006780719194779825_">
		<use xlink:href="#SVGID_1_"  style="overflow:visible;"/>
	</clipPath>
	<g style="clip-path:url(#SVGID_00000108990463998994627280000017006780719194779825_);">
		
			<ellipse transform="matrix(0.9827 -0.1853 0.1853 0.9827 -80.8233 311.9365)" class="st1" cx="1628.8" cy="588.5" rx="81.1" ry="81.1"/>
	</g>
	<path style="opacity:0.53;clip-path:url(#SVGID_00000108990463998994627280000017006780719194779825_);fill:#6290C8;" d="
		M1920,763.3V989H0V763.3c5.4-2.7,10.2-6.9,14.2-12.2c7.2,9.6,17.1,15.5,27.9,15.5c10.9,0,20.8-5.9,28-15.5
		c7.2,9.6,17.1,15.5,28,15.5c10.9,0,20.8-5.9,28-15.5c7.2,9.6,17.1,15.5,28,15.5c10.9,0,20.8-5.9,28-15.5c7.2,9.6,17.1,15.5,28,15.5
		c10.9,0,20.8-5.9,28-15.5c7.2,9.6,17.1,15.5,28,15.5c10.9,0,20.8-5.9,28-15.5c7.2,9.6,17.1,15.5,28,15.5c10.9,0,20.8-5.9,28-15.5
		c7,9.4,16.7,15.3,27.3,15.5c10.6-0.2,20.3-6.1,27.3-15.5c7.2,9.6,17.1,15.5,28,15.5c10.9,0,20.8-5.9,28-15.5
		c2.8,3.7,5.9,6.8,9.3,9.3c5.6,4,11.9,6.2,18.6,6.2c10.9,0,20.8-5.9,28-15.5c7.2,9.6,17.1,15.5,28,15.5c10.9,0,20.8-5.9,27.9-15.5
		c7.2,9.6,17.1,15.5,28,15.5s20.8-5.9,28-15.5c7.2,9.6,17.1,15.5,28,15.5c10.9,0,20.8-5.9,28-15.5c7.2,9.6,17.1,15.5,28,15.5
		s20.8-5.9,28-15.5c6.8,9,15.9,14.8,26,15.4c10.1-0.7,19.2-6.4,26-15.4c7.2,9.6,17.1,15.5,28,15.5c10.9,0,20.8-5.9,28-15.5
		c7.2,9.6,17.1,15.5,28,15.5s20.8-5.9,28-15.5c7.2,9.6,17.1,15.5,28,15.5c10.9,0,20.8-5.9,27.9-15.5c7.2,9.6,17.1,15.5,28,15.5
		c10.9,0,20.8-5.9,28-15.5c7.2,9.6,17.1,15.5,28,15.5c10.9,0,20.8-5.9,28-15.5c6,8,13.9,13.5,22.7,15.1c1.7,0.3,3.5,0.5,5.2,0.5
		c2,0,3.9-0.2,5.8-0.6c8.6-1.7,16.3-7.1,22.2-14.9c5.5,7.3,12.6,12.5,20.5,14.5c2.1,0.5,4.2,0.9,6.4,0.9c2.4-0.1,4.7-0.4,6.9-1.1
		c7.7-2.1,14.6-7.2,20-14.4c5.1,6.8,11.5,11.8,18.7,14.1c3,1,6.1,1.5,9.2,1.5c3.4,0,6.7-0.6,9.8-1.6c7-2.4,13.2-7.3,18.2-13.9
		c4.8,6.3,10.7,11.1,17.3,13.5c3.4,1.3,7,2,10.7,2c3.9,0,7.7-0.8,11.2-2.2c6.4-2.5,12.1-7.2,16.7-13.3c4.4,5.9,9.9,10.4,16,13
		c3.8,1.6,7.8,2.5,12,2.5c4.4,0,8.6-1,12.5-2.7c5.9-2.6,11.1-7.1,15.5-12.8c4.2,5.5,9.2,9.9,14.8,12.5c4.1,1.9,8.5,3,13.1,3
		c4.8,0,9.4-1.2,13.6-3.3c5.4-2.7,10.3-6.9,14.3-12.3c3.9,5.2,8.6,9.3,13.8,12c4.4,2.3,9.2,3.5,14.2,3.5c5.2,0,10.1-1.3,14.7-3.8
		c5-2.7,9.5-6.7,13.3-11.7c3.7,4.9,8,8.8,12.8,11.5c4.7,2.6,9.8,4,15.1,4c5.5,0,10.8-1.5,15.6-4.3c4.6-2.7,8.8-6.5,12.3-11.2
		c3.4,4.6,7.5,8.3,11.9,11c4.6,2.7,9.7,4.3,15,4.5c5.5-0.2,10.7-1.9,15.4-4.8c4.3-2.6,8.2-6.3,11.5-10.7c3.2,4.3,7,7.9,11.1,10.5
		c5.1,3.2,10.8,5,16.8,5c6.2,0,12.1-1.9,17.3-5.4c4-2.6,7.5-6,10.6-10.2c3,4,6.5,7.4,10.3,10c5.3,3.6,11.3,5.6,17.6,5.6
		c6.5,0,12.7-2.1,18.1-5.9c3.6-2.5,7-5.8,9.8-9.6c2.8,3.7,6,6.9,9.6,9.4c5.5,3.9,11.8,6.1,18.4,6.1c6.8,0,13.2-2.3,18.9-6.4
		c3.3-2.4,6.4-5.5,9.1-9.1c2.6,3.5,5.6,6.5,8.9,8.9c5.7,4.2,12.2,6.6,19.1,6.6c7.1,0,13.8-2.5,19.6-7c3.1-2.3,5.9-5.2,8.4-8.5
		c2.4,3.3,5.2,6.1,8.2,8.4c5.8,4.5,12.6,7.1,19.8,7.1c7.4,0,14.3-2.7,20.2-7.5c2.8-2.2,5.4-4.9,7.7-8c2.3,3,4.8,5.7,7.5,7.9
		c6,4.8,13,7.6,20.4,7.6c7.7,0,14.8-2.9,20.9-8c2.6-2.1,4.9-4.7,7.1-7.5c2.1,2.8,4.4,5.3,6.9,7.4C1915,760.4,1917.4,762,1920,763.3z
		"/>
	
		<path style="clip-path:url(#SVGID_00000108990463998994627280000017006780719194779825_);fill:none;stroke:#FFFFFF;stroke-miterlimit:10;" d="
		M135.7,944.6c10.9,0,20.8-5.9,28-15.5c7,9.4,16.7,15.3,27.3,15.5c10.6-0.2,20.3-6.1,27.3-15.5c7.2,9.6,17.1,15.5,28,15.5"/>
	
		<path style="clip-path:url(#SVGID_00000108990463998994627280000017006780719194779825_);fill:none;stroke:#FFFFFF;stroke-miterlimit:10;" d="
		M52.1,838.6c10.9,0,20.8-5.9,28-15.5c7.2,9.6,17.1,15.5,28,15.5c10.9,0,20.8-5.9,28-15.5c7.2,9.6,17.1,15.5,28,15.5
		c10.9,0,20.8-5.9,28-15.5c7.2,9.6,17.1,15.5,28,15.5"/>
	
		<path style="clip-path:url(#SVGID_00000108990463998994627280000017006780719194779825_);fill:none;stroke:#FFFFFF;stroke-miterlimit:10;" d="
		M821.7,838.6c10.9,0,20.8-5.9,28-15.5c7,9.4,16.7,15.3,27.3,15.5c10.6-0.2,20.3-6.1,27.3-15.5c7.2,9.6,17.1,15.5,28,15.5"/>
	
		<path style="clip-path:url(#SVGID_00000108990463998994627280000017006780719194779825_);fill:none;stroke:#FFFFFF;stroke-miterlimit:10;" d="
		M968.1,883.6c10.9,0,20.8-5.9,28-15.5c7.2,9.6,17.1,15.5,28,15.5c10.9,0,20.8-5.9,28-15.5c7.2,9.6,17.1,15.5,28,15.5
		c10.9,0,20.8-5.9,28-15.5c7.2,9.6,17.1,15.5,27.9,15.5"/>
	
		<path style="clip-path:url(#SVGID_00000108990463998994627280000017006780719194779825_);fill:none;stroke:#FFFFFF;stroke-miterlimit:10;" d="
		M1344.7,875.6c10.9,0,20.8-5.9,28-15.5c7.1,9.4,16.7,15.3,27.3,15.5c10.6-0.2,20.3-6.1,27.3-15.5c7.2,9.6,17.1,15.5,27.9,15.5"/>
	
		<path style="clip-path:url(#SVGID_00000108990463998994627280000017006780719194779825_);fill:none;stroke:#FFFFFF;stroke-miterlimit:10;" d="
		M1647.1,926.6c10.9,0,20.8-5.9,28-15.5c7.2,9.6,17.1,15.5,28,15.5c10.9,0,20.8-5.9,28-15.5c7.2,9.6,17.1,15.5,28,15.5
		c10.9,0,20.8-5.9,28-15.5c7.2,9.6,17.1,15.5,27.9,15.5"/>
	
		<path style="clip-path:url(#SVGID_00000108990463998994627280000017006780719194779825_);fill:none;stroke:#FFFFFF;stroke-miterlimit:10;" d="
		M947.7,959.6c10.9,0,20.8-5.9,28-15.5c7,9.4,16.7,15.3,27.3,15.5c10.6-0.2,20.3-6.1,27.3-15.5c7.2,9.6,17.1,15.5,27.9,15.5"/>
	
		<path style="clip-path:url(#SVGID_00000108990463998994627280000017006780719194779825_);fill:none;stroke:#FFFFFF;stroke-miterlimit:10;" d="
		M1775.7,826.6c10.9,0,20.8-5.9,28-15.5c7.1,9.4,16.7,15.3,27.3,15.5c10.6-0.2,20.3-6.1,27.3-15.5c7.2,9.6,17.1,15.5,27.9,15.5"/>
	<path style="clip-path:url(#SVGID_00000108990463998994627280000017006780719194779825_);fill:#604531;" d="M1251.7,631.1l102.7,42
		l172.3-70.4c44.4-18.2,98.8-15.8,140.2,6L1979,773.2H632.5l507.4-147.5C1176.4,615,1217.3,617,1251.7,631.1z"/>
	<path style="clip-path:url(#SVGID_00000108990463998994627280000017006780719194779825_);fill:#604531;" d="M473.3,651.5l-87.9,36
		l-147.5-60.3c-38-15.5-84.6-13.6-120,5.1l-267.3,140.8h1152.9L569.1,646.8C537.8,637.7,502.7,639.5,473.3,651.5z"/>
	<path style="clip-path:url(#SVGID_00000108990463998994627280000017006780719194779825_);fill:#826348;" d="M428.5,773.2
		l139.8-98.3c36.9-25.9,91.4-32,136.8-15.1l63.1,23.4l132.4-59.8c43.3-19.6,98.3-16.9,137.9,6.6l240.8,143.2H428.5z"/>
	<path style="clip-path:url(#SVGID_00000108990463998994627280000017006780719194779825_);fill:#9E7454;" d="M1390.5,643.8
		l93.6,38.3l157-64.2c40.5-16.6,90-14.4,127.8,5.4l284.6,149.9H826l462.5-134.5C1321.8,629.1,1359.1,630.9,1390.5,643.8z"/>
	<g style="clip-path:url(#SVGID_00000108990463998994627280000017006780719194779825_);">
		<g>
			<path class="st7" d="M1656.4,299.5l-215.3,0c-12.6,0-22.8-10.2-22.8-22.8v-6.9l260.8,0v6.9
				C1679.1,289.4,1668.9,299.5,1656.4,299.5z"/>
			
				<ellipse transform="matrix(0.5968 -0.8024 0.8024 0.5968 448.1085 1445.4292)" class="st7" cx="1662.3" cy="276.8" rx="16.8" ry="16.8"/>
			
				<ellipse transform="matrix(0.5968 -0.8024 0.8024 0.5968 358.4858 1260.4575)" class="st7" cx="1433.5" cy="273.5" rx="16.8" ry="16.8"/>
			
				<ellipse transform="matrix(0.5968 -0.8024 0.8024 0.5968 404.2796 1350.3021)" class="st7" cx="1545.8" cy="272.9" rx="16.8" ry="16.8"/>
			
				<ellipse transform="matrix(0.5673 -0.8235 0.8235 0.5673 446.2955 1353.3113)" class="st7" cx="1511" cy="251.9" rx="29.8" ry="29.8"/>
			
				<ellipse transform="matrix(0.6476 -0.762 0.762 0.6476 379.9762 1329.9962)" class="st7" cx="1627.8" cy="254.2" rx="27.6" ry="27.6"/>
			
				<ellipse transform="matrix(0.6476 -0.762 0.762 0.6476 311.4196 1217.3263)" class="st7" cx="1471.8" cy="272" rx="27.6" ry="27.6"/>
			
				<ellipse transform="matrix(0.7071 -0.7071 0.7071 0.7071 275.7722 1198.6144)" class="st7" cx="1584.7" cy="266.4" rx="27.2" ry="27.2"/>
		</g>
		<g>
			<path class="st7" d="M244.7,291.6h211.8c12.4,0,22.4-10,22.4-22.4v-6.8H222.3v6.8C222.3,281.6,232.3,291.6,244.7,291.6z"/>
			<circle class="st7" cx="238.8" cy="262.2" r="16.5"/>
			<circle class="st7" cx="462.3" cy="269.2" r="16.5"/>
			<circle class="st7" cx="353.5" cy="265.3" r="16.5"/>
			<circle class="st7" cx="387.7" cy="244.8" r="29.3"/>
			<circle class="st7" cx="272.7" cy="247" r="27.1"/>
			<circle class="st7" cx="426.3" cy="264.5" r="27.1"/>
			<circle class="st7" cx="315.1" cy="259" r="26.8"/>
		</g>
		<g>
			<path class="st7" d="M1029.3,190.1H898.6c-7.6,0-13.8-6.2-13.8-13.8v-4.2h158.3v4.2C1043.1,183.9,1036.9,190.1,1029.3,190.1z"/>
			<circle class="st7" cx="1033.8" cy="174.5" r="10.2"/>
			<circle class="st7" cx="895" cy="176.3" r="10.2"/>
			<circle class="st7" cx="998.9" cy="157.8" r="10.2"/>
			<circle class="st7" cx="947.4" cy="161.3" r="25.2"/>
			<circle class="st7" cx="982.5" cy="169.7" r="16.7"/>
			<circle class="st7" cx="917.3" cy="173.4" r="16.7"/>
			<circle class="st7" cx="1010" cy="173.6" r="16.5"/>
		</g>
	</g>
	
		<path style="clip-path:url(#SVGID_00000108990463998994627280000017006780719194779825_);fill:none;stroke:#AB9995;stroke-width:4;stroke-miterlimit:10;" d="
		M733.4,124.9"/>
	<g style="clip-path:url(#SVGID_00000108990463998994627280000017006780719194779825_);">
		<g>
			<g>
				<path class="st9" d="M903.4,384.6l-15.1-11.8l-0.7-0.5c-1.6-1.3-3.9-1.2-5.5,0.2l-10.7,9.4c-1.2,1.1-1.6,3-0.7,4.4
					c1,1.7,3.2,2.2,4.8,1.2l8.5-5l10.7,11.5c0.2,0.2,0.5,0.5,0.7,0.7c2.8,2.2,6.8,1.7,8.9-1.1C906.7,390.7,906.2,386.7,903.4,384.6z
					"/>
				<path class="st10" d="M712.2,612.9l-1.6,10.3c-1.8,11.1-9.7,20.3-20.4,23.6l-9.9,3.1"/>
				<g>
					<path class="st9" d="M786.9,979.7c-0.4,4,2.8,7.4,6.8,7.3l82.3-1.2c0.2,0,0.3,0,0.5,0c16.3-0.4,19.1-23.6,3.4-28l-44-12.3
						l-2.3-12.2L831,920l-38.4-1.6l-1.8,19L786.9,979.7z"/>
					<path class="st11" d="M792.7,987.1l83.3-1.2c7.8-0.1,15.4-1.9,22.4-5.1c0.1,0,0.1-0.1,0.2-0.1c8-3.8,6.9-15.6-1.6-18l-4.4-1.2
						c0,0-0.1,0-0.3-0.1l-56.4-15.8l-2.3-12.2c0,0-16.5,12.7-24.3,10.3c-0.8-0.2-1.5-0.7-2.2-1.3c-6.4-6.4-16.2-4.9-16.2-4.9
						l-1.7,18.1l-0.5,5l-1.9,20.2C786.5,984.2,789.2,987.1,792.7,987.1z"/>
					<path d="M786.8,980.8c-0.3,3.4,2.4,6.3,5.8,6.3l83.3-1.2c7.8-0.1,15.4-1.9,22.4-5.1H786.8L786.8,980.8z"/>
					<g>
						<path d="M788.7,960.5c17.7,4,18.2,19.6,18.2,20.3c0,1.4,1.1,2.5,2.5,2.5h0c1.4,0,2.5-1.2,2.5-2.5c0-0.2-0.4-20.4-22.4-25.2
							c-0.1,0-0.2,0-0.3,0L788.7,960.5z"/>
					</g>
					<path class="st12" d="M809.2,943.7c1.2,3.7,3.7,8.3,9.1,12.3c11,8,22,5,35,2c12.2-2.8,36,2.8,39,3.5l-56.4-15.8l-2.3-12.2
						C833.5,933.4,817,946,809.2,943.7z"/>
					<path class="st13" d="M835,945.8c0,0-23-3.3-11.1-15.4C835.8,918.3,835,945.8,835,945.8z"/>
					<path class="st13" d="M835.3,945.6c0,0,0.3-23.3,13.9-13C862.7,942.9,835.3,945.6,835.3,945.6z"/>
				</g>
				<g>
					<path class="st9" d="M727.9,979.7c0.3,4-2.4,7.4-5.9,7.3l-71.7-1.2c-0.1,0-0.3,0-0.4,0c-14.2-0.4-16.6-23.6-3-28l38.4-12.3
						l2-12.2l2.2-13.3l33.4-1.6l1.5,19L727.9,979.7z"/>
					<path class="st11" d="M630.6,980.7c0.1,0,0.1,0.1,0.2,0.1c6,3.2,12.7,5,19.5,5.1l72.6,1.2c3,0,5.3-2.9,5.1-6.3l-1.6-20.2
						l-0.4-5l-1.5-18.1c0,0-8.5-1.5-14.1,4.9c-0.8,1-2,1.4-3.3,1.5c-7.2,0.5-19.8-10.6-19.8-10.6l-2,12.2l-47.4,15.2l-5.8,1.9
						C624.6,965.1,623.7,976.9,630.6,980.7z"/>
					<path d="M727.9,980.8c0.3,3.4-2.1,6.3-5.1,6.3l-72.6-1.2c-6.8-0.1-13.4-1.9-19.5-5.1H727.9L727.9,980.8z"/>
					<g>
						<path d="M726.3,960.5c-15.4,4-15.8,19.6-15.9,20.3c0,1.4-1,2.5-2.2,2.5h0c-1.2,0-2.2-1.2-2.2-2.5c0-0.2,0.4-20.4,19.5-25.2
							c0.1,0,0.2,0,0.3,0L726.3,960.5z"/>
					</g>
					<path class="st12" d="M637.9,961.5c0,0,20.3-3.6,34.3,0.4s35,1,35-11c0-2.6-0.1-4.9-0.1-7c-7.2,0.5-19.8-10.6-19.8-10.6
						l-2,12.2l-47.4,15.2L637.9,961.5z"/>
					<path class="st13" d="M686,945.8c0,0,20.1-3.3,9.7-15.4C685.3,918.3,686,945.8,686,945.8z"/>
					<path class="st13" d="M685.7,945.6c0,0-0.3-23.3-12.1-13C661.9,942.9,685.7,945.6,685.7,945.6z"/>
				</g>
				<polygon points="756.2,636.9 732.8,924.3 670.6,924.3 680.2,543.9 838.2,582.9 847.2,923.9 783.1,924.3 				"/>
				<path class="st12" d="M675.4,541.5l-2.2,49.4v15l174.4-7l-3.2-23.9l-15-109l60-50l-26-10c2-31.5-9.3-58.8-28.8-75.2
					c-10.3-8.6-21.8-15.4-34.1-20.1c-4.1-1.6-8.4-3-12.7-4.1c-8.8-2.3-17.9-3.6-27.2-3.9l-22.3-0.8c-6.6,0-14.1,1.2-21.8,3.3
					c-5.4,1.5-10.9,3.4-16.4,5.8c-31.2,13.4-61.8,39.6-61.8,65.9l-9.5,163.4L675.4,541.5z"/>
				<g>
					<path class="st9" d="M728.1,235.1l5.5,76.3c0.9,12.4,11.7,21.7,24.1,20.9c12.4-0.9,21.7-11.7,20.8-24.1l-0.6-8.2l-1-14
						c0,0,15.4,1,10.6-31l-3-31.8c-0.5-7.3-6.8-12.7-14.1-12.2l-22.7,1.6C736,213.4,727.2,223.5,728.1,235.1z"/>
				</g>
				<g>
					<path d="M768.9,250.8c0.1,0,0.1,0,0.2,0l3.5-0.4c1.3-0.1,1.9-1.4,1.4-3.1l-3-10.7c-0.1-0.3-0.3-0.6-0.6-0.6
						c-0.2,0-0.4,0.2-0.3,0.5l3,10.7c0.3,1.2-0.1,2.1-1,2.2l-3.5,0.4c-0.2,0-0.3,0.3-0.2,0.6C768.6,250.6,768.7,250.8,768.9,250.8z"
						/>
				</g>
				<g>
					<ellipse transform="matrix(0.9156 -0.402 0.402 0.9156 -29.6994 325.0969)" cx="759.7" cy="233.3" rx="6.7" ry="1.9"/>
				</g>
				<g>
					<ellipse transform="matrix(0.258 -0.9661 0.9661 0.258 356.4106 925.7846)" cx="781" cy="230.8" rx="1.9" ry="6.7"/>
				</g>
				<g>
					<path d="M744.4,280.1c0.4,0.6,14.1,18.6,33.4,19.8l-1-14C773.1,286,751.5,286.2,744.4,280.1z"/>
				</g>
				<path class="st14" d="M738,242c0-1.4-0.9-2.8-2.3-3.2c-1.1-0.3-2.4-0.2-3.8,1.6c-3,4-1,11,3,11C738,251.4,738.1,245.1,738,242z"
					/>
				<polygon class="st11" points="668.2,606.1 847.7,598.9 844.4,575 670.2,580.9 669.9,590.7 				"/>
				<line class="st15" x1="673.7" y1="568.4" x2="680.2" y2="395.9"/>
				<path class="st15" d="M768.8,258.3c0,0,7-1,10,6"/>
				<path class="st11" d="M700.1,311c7.5,17.6,30.1,61.9,66.2,61.9c33.2,0,35.4-40.8,34.2-62.2c-4.1-1.6-8.4-3-12.7-4.1
					c2.1,12.5,3,38.3-26.5,38.3c-30.7,0-41.5-27.8-44.8-39.7C711.1,306.7,705.5,308.7,700.1,311z"/>
				<path class="st9" d="M681.9,597.9c0,0-2.1,4.3-6.4-2.1c0,0,2.1,15-4.3,17.1c-6.4,2.1-10-3.9-10-3.9s-1.9,4.7-5.6,4.7
					c-2.8,0-4.7-4.7-4.7-4.7s-1.1,1.7-5.4,1.7c-4.3,0-4.3-4.3-4.3-4.3s-4.3,2.1-6.4-4.3c-2.1-6.4-4.3-29.9-2.1-36.3
					c0.6-1.8,1.2-4.7,1.8-7.8c1.4-7.7,2.4-17.2,2.5-17.8c0,0,0,0,0,0l2,0.1l31.7,1.2c0,0-0.1,0.9-0.2,2.5
					c-0.2,4.5-0.3,13.9,2.9,21.8C677.6,576.6,681.9,597.9,681.9,597.9z"/>
				<path class="st15" d="M682.2,598.3c0,0-2.8,2.8-5.6-1.4c-2.5-3.7-4.2-8.1-5.3-11.1c-0.2-0.6-1.2-0.5-1.2,0.2v19.5"/>
				<path class="st15" d="M666.9,613.1c0,0-9-1.8-9.6-14.1"/>
				<path class="st15" d="M660.9,609.7c0,0-6.2,8.7-9.5-0.2c-2.8-7.5-2.8-13.1-2.8-13.1"/>
				<path class="st15" d="M651.2,609.2c-2.6,1.4-9.4,4.1-10.1-3.4c-0.9-8.8-0.9-11-0.9-11"/>
				<path d="M671.3,541.2l-0.8,2.9l-27.6,1.5l-8.4,12.5c1.4-7.7,2.4-17.2,2.5-17.8l2,0.1L671.3,541.2z"/>
				<g>
					<path class="st16" d="M924.4,352.1c0,0-41.4,33.2-32.4,80.3"/>
					<path class="st16" d="M910.6,324.3c0,0-22.9,25.2-15.5,108.3"/>
					<path class="st16" d="M883.1,344.3c0,0,15.6,19.8,6.1,87.9"/>
					<path class="st16" d="M860.5,325.9c0,0,46.5,40.5,23.9,106"/>
					<g>
						<path class="st17" d="M962,315.8c1.2-0.3,1.6-2.7,0.9-5.3c-0.7-2.6-3.4-4.2-3.4-4.2s-1.6,2.7-0.9,5.3
							C959.3,314.3,960.9,316.1,962,315.8z"/>
						<path class="st17" d="M953.3,319c1.1-0.5,1-3-0.2-5.4c-1.2-2.4-4.2-3.4-4.2-3.4s-1,3,0.2,5.4C950.3,318,952.2,319.5,953.3,319
							z"/>
						<path class="st17" d="M944.7,323c1-0.7,0.4-3.1-1.2-5.2c-1.6-2.2-4.7-2.6-4.7-2.6s-0.4,3.1,1.2,5.2
							C941.6,322.6,943.8,323.7,944.7,323z"/>
						<path class="st17" d="M936.5,328.6c0.8-0.9-0.1-3.1-2.1-4.9c-2-1.8-5.1-1.7-5.1-1.7s0.1,3.1,2.1,4.9
							C933.3,328.7,935.6,329.5,936.5,328.6z"/>
						<path class="st17" d="M929.8,335.4c0.7-1-0.6-3.1-2.9-4.5c-2.3-1.5-5.3-0.8-5.3-0.8s0.6,3.1,2.9,4.5
							C926.8,336.1,929.1,336.4,929.8,335.4z"/>
						<path class="st17" d="M929.8,335.6c-1,0.7-0.6,3.1,1,5.3c1.6,2.2,4.6,2.7,4.6,2.7s0.6-3.1-1-5.3
							C932.9,336.2,930.8,334.9,929.8,335.6z"/>
						<path class="st17" d="M936.8,328.6c-1,0.7-0.6,3.1,1,5.3c1.6,2.2,4.6,2.7,4.6,2.7s0.6-3.1-1-5.3
							C939.8,329.1,937.8,327.9,936.8,328.6z"/>
						<path class="st17" d="M944.9,323.4c-1.1,0.6-0.9,3,0.3,5.4c1.3,2.4,4.3,3.3,4.3,3.3s0.9-3-0.3-5.4
							C947.8,324.3,945.9,322.8,944.9,323.4z"/>
						<path class="st17" d="M953.2,319.3c-1.2,0.3-1.5,2.7-0.7,5.3c0.8,2.6,3.5,4.1,3.5,4.1s1.5-2.7,0.7-5.3
							C956,320.8,954.4,319,953.2,319.3z"/>
						<path class="st17" d="M962.7,316.3c-1.2,0.2-1.9,2.5-1.5,5.2c0.4,2.7,2.9,4.5,2.9,4.5s1.9-2.5,1.5-5.2
							C965.2,318.1,963.9,316.1,962.7,316.3z"/>
						<path class="st18" d="M965.7,315.4c0,0-27.7,4.5-40,25.8"/>
						<path class="st17" d="M965.3,315.5c0,1.2,2.1,2.3,4.8,2.4c2.7,0.1,5-2.1,5-2.1s-2.1-2.3-4.8-2.4
							C967.5,313.4,965.3,314.3,965.3,315.5z"/>
					</g>
					<g>
						<path class="st17" d="M931.3,381.2c-0.1,0.9,1.4,1.8,3.3,2.1c2,0.3,3.8-1.1,3.8-1.1s-1.4-1.8-3.3-2.1
							C933.1,379.8,931.4,380.3,931.3,381.2z"/>
						<path class="st17" d="M931.7,374.4c0,0.9,1.7,1.5,3.7,1.4c2-0.1,3.5-1.8,3.5-1.8s-1.7-1.5-3.7-1.4
							C933.2,372.7,931.7,373.5,931.7,374.4z"/>
						<path class="st17" d="M931.4,367.5c0.2,0.9,2,1.2,3.9,0.7c1.9-0.5,3.1-2.4,3.1-2.4s-1.9-1.2-3.9-0.7
							C932.6,365.6,931.2,366.7,931.4,367.5z"/>
						<path class="st17" d="M930.1,360.4c0.4,0.8,2.1,0.8,3.9,0c1.8-0.8,2.6-3,2.6-3s-2.1-0.8-3.9,0
							C930.9,358.2,929.7,359.5,930.1,360.4z"/>
						<path class="st17" d="M927.4,353.9c0.5,0.7,2.2,0.5,3.9-0.6c1.6-1.1,2.1-3.3,2.1-3.3s-2.2-0.5-3.9,0.6
							C927.8,351.7,926.9,353.2,927.4,353.9z"/>
						<path class="st17" d="M927.3,353.9c-0.2-0.9-1.9-1.3-3.8-0.9c-1.9,0.4-3.2,2.3-3.2,2.3s1.9,1.3,3.8,0.9
							C926,355.8,927.4,354.7,927.3,353.9z"/>
						<path class="st17" d="M930,360.6c-0.2-0.9-1.9-1.3-3.8-0.9c-1.9,0.4-3.2,2.3-3.2,2.3s1.9,1.3,3.8,0.9
							C928.7,362.5,930.2,361.4,930,360.6z"/>
						<path class="st17" d="M931.2,367.5c-0.1-0.9-1.7-1.5-3.7-1.3c-2,0.2-3.4,1.9-3.4,1.9s1.7,1.5,3.7,1.3
							C929.7,369.3,931.3,368.4,931.2,367.5z"/>
						<path class="st17" d="M931.5,374.3c0.1-0.9-1.4-1.8-3.4-2c-2-0.2-3.7,1.2-3.7,1.2s1.4,1.8,3.4,2
							C929.7,375.7,931.4,375.2,931.5,374.3z"/>
						<path class="st17" d="M930.8,381.5c0.2-0.9-1.1-2-3.1-2.5c-1.9-0.5-3.9,0.7-3.9,0.7s1.1,2,3.1,2.5
							C928.8,382.7,930.6,382.4,930.8,381.5z"/>
						<path class="st18" d="M930.5,383.8c0,0,4.9-19.9-5.9-34.3"/>
						<path class="st17" d="M930.6,383.4c-0.8-0.4-2.1,0.8-3,2.6c-0.8,1.8,0,3.9,0,3.9s2.1-0.8,3-2.6
							C931.3,385.6,931.4,383.8,930.6,383.4z"/>
					</g>
					<g>
						<path class="st17" d="M845,359.5c-0.6,0.7-2.4,0.1-4-1.3c-1.6-1.4-1.7-3.9-1.7-3.9s2.4-0.1,4,1.3
							C844.8,357,845.6,358.7,845,359.5z"/>
						<path class="st17" d="M850.3,354.4c-0.8,0.6-2.4-0.3-3.7-2c-1.3-1.7-0.9-4.1-0.9-4.1s2.4,0.3,3.7,2
							C850.7,352,851.1,353.9,850.3,354.4z"/>
						<path class="st17" d="M856.1,349.9c-0.9,0.4-2.3-0.8-3.2-2.7c-0.9-1.9-0.1-4.2-0.1-4.2s2.3,0.8,3.2,2.7
							C856.9,347.6,857,349.5,856.1,349.9z"/>
						<path class="st17" d="M863,346.1c-0.9,0.3-2.1-1.2-2.7-3.2c-0.6-2,0.6-4.2,0.6-4.2s2.1,1.2,2.7,3.2
							C864.2,344,863.9,345.8,863,346.1z"/>
						<path class="st17" d="M870.1,343.9c-1,0.1-1.9-1.5-2.2-3.6c-0.2-2.1,1.3-4,1.3-4s1.9,1.5,2.2,3.6
							C871.6,342,871.1,343.8,870.1,343.9z"/>
						<path class="st17" d="M870.2,344c0.8-0.5,2.3,0.7,3.3,2.6c1,1.9,0.3,4.2,0.3,4.2s-2.3-0.7-3.3-2.6
							C869.5,346.3,869.4,344.4,870.2,344z"/>
						<path class="st17" d="M862.9,346.3c0.8-0.5,2.3,0.7,3.3,2.6c1,1.9,0.3,4.2,0.3,4.2s-2.3-0.7-3.3-2.6
							C862.2,348.7,862,346.8,862.9,346.3z"/>
						<path class="st17" d="M856.3,350.1c0.8-0.6,2.4,0.4,3.6,2.1c1.2,1.7,0.8,4.1,0.8,4.1s-2.4-0.4-3.6-2.1
							C855.9,352.5,855.5,350.7,856.3,350.1z"/>
						<path class="st17" d="M850.5,354.5c0.7-0.7,2.4-0.1,4,1.4c1.5,1.5,1.6,3.9,1.6,3.9s-2.4,0.1-4-1.4
							C850.6,357,849.9,355.2,850.5,354.5z"/>
						<path class="st17" d="M845,360.1c0.6-0.8,2.4-0.4,4.1,0.8c1.7,1.2,2.1,3.6,2.1,3.6s-2.4,0.4-4.1-0.8
							C845.4,362.5,844.5,360.9,845,360.1z"/>
						<path class="st18" d="M843.4,361.9c0,0,13-17.7,32.2-18.8"/>
						<path class="st17" d="M843.6,361.6c0.9,0.4,0.8,2.3-0.1,4.2c-0.9,1.9-3.2,2.7-3.2,2.7s-0.8-2.3,0.1-4.2
							C841.3,362.4,842.8,361.2,843.6,361.6z"/>
					</g>
					<g>
						<path class="st17" d="M898,371.5c-0.4,0.8-2.1,0.7-3.8-0.2c-1.7-0.9-2.4-3-2.4-3s2.1-0.7,3.8,0.2
							C897.3,369.4,898.4,370.8,898,371.5z"/>
						<path class="st17" d="M901.5,365.9c-0.5,0.7-2.2,0.2-3.7-1c-1.5-1.2-1.7-3.4-1.7-3.4s2.2-0.2,3.7,1
							C901.3,363.7,902.1,365.3,901.5,365.9z"/>
						<path class="st17" d="M905.6,360.7c-0.7,0.6-2.2-0.2-3.4-1.6c-1.2-1.5-1-3.7-1-3.7s2.2,0.2,3.4,1.6
							C905.8,358.5,906.3,360.1,905.6,360.7z"/>
						<path class="st17" d="M910.8,355.8c-0.8,0.4-2.1-0.6-3.1-2.2c-1-1.7-0.4-3.8-0.4-3.8s2.1,0.6,3.1,2.2
							C911.3,353.7,911.5,355.4,910.8,355.8z"/>
						<path class="st17" d="M916.5,352.3c-0.8,0.3-2-0.9-2.7-2.7c-0.7-1.8,0.2-3.8,0.2-3.8s2,0.9,2.7,2.7
							C917.4,350.3,917.3,352,916.5,352.3z"/>
						<path class="st17" d="M916.7,352.3c0.6-0.6,2.2,0.1,3.5,1.5c1.3,1.4,1.2,3.6,1.2,3.6s-2.2-0.1-3.5-1.5
							C916.5,354.5,916,352.9,916.7,352.3z"/>
						<path class="st17" d="M910.7,356c0.6-0.6,2.2,0.1,3.5,1.5c1.3,1.4,1.2,3.6,1.2,3.6s-2.2-0.1-3.5-1.5
							C910.6,358.2,910.1,356.6,910.7,356z"/>
						<path class="st17" d="M905.8,360.8c0.6-0.7,2.2-0.2,3.7,1.1c1.5,1.2,1.6,3.5,1.6,3.5s-2.2,0.2-3.7-1.1
							C906,363,905.3,361.5,905.8,360.8z"/>
						<path class="st17" d="M901.8,366c0.4-0.8,2.1-0.6,3.8,0.3c1.7,0.9,2.3,3.1,2.3,3.1s-2.1,0.6-3.8-0.3
							C902.4,368.1,901.3,366.7,901.8,366z"/>
						<path class="st17" d="M898.2,372.1c0.3-0.8,2-0.9,3.8-0.2c1.8,0.7,2.7,2.7,2.7,2.7s-2,0.9-3.8,0.2
							C899.1,374.1,897.9,372.9,898.2,372.1z"/>
						<path class="st18" d="M897.1,374c0,0,7.4-18.4,24-23.6"/>
						<path class="st17" d="M897.3,373.7c0.9,0.2,1.3,1.8,0.9,3.7c-0.4,1.9-2.2,3.1-2.2,3.1s-1.3-1.8-0.9-3.7
							C895.5,374.9,896.4,373.5,897.3,373.7z"/>
					</g>
					<g>
						<path class="st17" d="M878.9,299.6c-0.7-0.7,0.1-2.4,1.6-3.9c1.6-1.4,4-1.4,4-1.4s-0.1,2.4-1.6,3.9
							C881.3,299.7,879.5,300.3,878.9,299.6z"/>
						<path class="st17" d="M883.4,305.3c-0.5-0.8,0.6-2.4,2.4-3.5c1.8-1.1,4.2-0.5,4.2-0.5s-0.6,2.4-2.4,3.5
							C885.8,305.9,883.9,306.1,883.4,305.3z"/>
						<path class="st17" d="M887.4,311.6c-0.3-0.9,1-2.2,3-3c2-0.8,4.2,0.3,4.2,0.3s-1,2.2-3,3C889.6,312.6,887.7,312.5,887.4,311.6
							z"/>
						<path class="st17" d="M890.5,318.7c-0.2-0.9,1.4-2,3.5-2.4c2.1-0.4,4.1,1,4.1,1s-1.4,2-3.5,2.4
							C892.5,320.1,890.7,319.6,890.5,318.7z"/>
						<path class="st17" d="M892.1,326c0-1,1.7-1.8,3.8-1.8c2.1,0,3.9,1.7,3.9,1.7s-1.7,1.8-3.8,1.8
							C893.8,327.7,892.1,327,892.1,326z"/>
						<path class="st17" d="M892,326.1c0.4,0.9-0.9,2.3-2.9,3.1c-2,0.8-4.2-0.1-4.2-0.1s0.9-2.3,2.9-3.1
							C889.7,325.2,891.6,325.3,892,326.1z"/>
						<path class="st17" d="M890.3,318.6c0.4,0.9-0.9,2.3-2.9,3.1c-2,0.8-4.2-0.1-4.2-0.1s0.9-2.3,2.9-3.1
							C888,317.7,889.9,317.7,890.3,318.6z"/>
						<path class="st17" d="M887.1,311.7c0.5,0.8-0.6,2.4-2.5,3.4c-1.8,1.1-4.2,0.4-4.2,0.4s0.6-2.4,2.5-3.4
							C884.8,311.1,886.6,310.9,887.1,311.7z"/>
						<path class="st17" d="M883.3,305.6c0.6,0.7-0.1,2.4-1.7,3.8c-1.6,1.4-4,1.2-4,1.2s0.1-2.4,1.7-3.8
							C880.8,305.4,882.6,304.8,883.3,305.6z"/>
						<path class="st17" d="M878.2,299.6c0.7,0.6,0.2,2.4-1.2,4c-1.4,1.6-3.8,1.8-3.8,1.8s-0.2-2.4,1.2-4
							C875.8,299.8,877.5,299,878.2,299.6z"/>
						<path class="st18" d="M876.6,297.8c0,0,16.5,14.5,15.8,33.8"/>
						<path class="st17" d="M876.8,298.1c-0.5,0.8-2.4,0.6-4.2-0.4c-1.8-1.1-2.4-3.4-2.4-3.4s2.4-0.6,4.2,0.4
							C876.2,295.7,877.3,297.2,876.8,298.1z"/>
					</g>
					<g>
						<path class="st19" d="M837.5,314c9.6-2,15.8,4.6,23,12l0,0C850.3,324.2,841.4,323,837.5,314z"/>
						<path class="st19" d="M864.8,300.4c4.9,8.5,0.5,16.4-4.3,25.5l0,0C859,315.7,857.4,306.8,864.8,300.4z"/>
						<path class="st19" d="M886.1,322.1c-6.6,7.3-15.5,5.5-25.6,3.8l0,0C869.7,321.3,877.7,317.1,886.1,322.1z"/>
						<path class="st19" d="M872.1,349.1c-9-4-10-13-11.6-23.2l0,0C867.7,333.3,874.3,339.5,872.1,349.1z"/>
						<path class="st19" d="M842,344.1c1-9.7,9.3-13.6,18.5-18.2l0,0C855.8,335.1,851.8,343.2,842,344.1z"/>
						<g>
							<path class="st20" d="M841.8,327.5c5.2-5,11.6-3.2,18.9-1.5l0,0C853.7,328.9,847.6,331.6,841.8,327.5z"/>
							<path class="st20" d="M853.4,308.5c6.3,3.4,6.7,10,7.3,17.5l0,0C855.7,320.3,851.3,315.3,853.4,308.5z"/>
							<path class="st20" d="M875,313.7c-1.2,7.1-7.4,9.4-14.4,12.3l0,0C864.6,319.6,867.9,313.8,875,313.7z"/>
							<path class="st20" d="M876.8,335.9c-7.1,1-11.3-4.2-16.2-9.9l0,0C868,327.7,874.5,329.1,876.8,335.9z"/>
							<path class="st20" d="M856.2,344.4c-3.1-6.4,0.5-12,4.4-18.4l0,0C861.2,333.5,861.9,340.1,856.2,344.4z"/>
						</g>
						<path class="st21" d="M859,328.7c1.5,0.8,3.5,0.2,4.3-1.3c0.8-1.5,0.2-3.5-1.3-4.3c-1.5-0.8-3.5-0.2-4.3,1.3
							C856.9,326,857.5,327.9,859,328.7z"/>
					</g>
					<g>
						<path class="st22" d="M892.3,309.5c9.6,2,12.5,10.5,16.2,20l0,0C899.9,324,892.2,319.3,892.3,309.5z"/>
						<path class="st22" d="M922.5,308c1.1,9.7-6.1,15.1-14.1,21.6l0,0C911.1,319.7,913.2,310.9,922.5,308z"/>
						<path class="st22" d="M933.3,336.3c-8.9,4-16.3-1.1-24.9-6.7l0,0C918.7,329,927.7,328.3,933.3,336.3z"/>
						<path class="st22" d="M909.8,355.3c-6.6-7.2-4-15.8-1.3-25.7l0,0C912.1,339.1,915.6,347.4,909.8,355.3z"/>
						<path class="st22" d="M884.4,338.8c4.8-8.5,13.8-8.7,24.1-9.2l0,0C900.5,336,893.6,341.9,884.4,338.8z"/>
						<g>
							<path class="st23" d="M890.8,323.5c6.7-2.5,11.8,1.6,17.8,6.2l0,0C901.1,329.5,894.5,329.6,890.8,323.5z"/>
							<path class="st23" d="M908.9,310.8c4.4,5.6,2.1,11.8-0.4,18.8l0,0C906.4,322.5,904.3,316.2,908.9,310.8z"/>
							<path class="st23" d="M926.6,324.2c-3.9,5.9-10.5,5.6-18,5.5l0,0C914.7,325.4,920,321.4,926.6,324.2z"/>
							<path class="st23" d="M919.3,345.1c-6.9-1.9-8.6-8.3-10.8-15.4l0,0C914.5,334.2,919.9,338,919.3,345.1z"/>
							<path class="st23" d="M897.2,344.7c-0.3-7.1,5.2-10.7,11.4-15l0,0C906.1,336.7,904.1,343,897.2,344.7z"/>
						</g>
						<path class="st24" d="M906,331.5c1.1,1.3,3.1,1.6,4.4,0.5c1.4-1.1,1.6-3.1,0.5-4.4c-1.1-1.4-3.1-1.6-4.4-0.5
							C905.1,328.2,904.9,330.2,906,331.5z"/>
					</g>
					<g>
						<path class="st25" d="M863.5,333.8c8.2-1.7,13.5,4,19.7,10.3l0,0C874.5,342.6,866.8,341.5,863.5,333.8z"/>
						<path class="st25" d="M886.9,322.1c4.2,7.3,0.4,14.1-3.7,21.9l0,0C881.9,335.3,880.5,327.7,886.9,322.1z"/>
						<path class="st25" d="M905.2,340.8c-5.6,6.3-13.3,4.7-22,3.3l0,0C891.1,340.1,898,336.4,905.2,340.8z"/>
						<path class="st25" d="M893.1,364c-7.7-3.4-8.6-11.2-9.9-19.9v0C889.4,350.4,895,355.8,893.1,364z"/>
						<path class="st25" d="M867.3,359.7c0.9-8.4,7.9-11.6,15.9-15.6l0,0C879.1,351.9,875.7,358.9,867.3,359.7z"/>
						<g>
							<path class="st26" d="M867.1,345.4c4.4-4.3,9.9-2.8,16.2-1.3l0,0C877.3,346.6,872.1,348.9,867.1,345.4z"/>
							<path class="st26" d="M877.1,329.1c5.4,2.9,5.7,8.6,6.2,15l0,0C879.1,339.2,875.3,335,877.1,329.1z"/>
							<path class="st26" d="M895.7,333.5c-1.1,6.1-6.4,8.1-12.4,10.6l0,0C886.7,338.6,889.5,333.7,895.7,333.5z"/>
							<path class="st26" d="M897.2,352.6c-6.1,0.9-9.7-3.6-13.9-8.5l0,0C889.6,345.6,895.2,346.8,897.2,352.6z"/>
							<path class="st26" d="M879.5,359.9c-2.7-5.5,0.4-10.3,3.8-15.8l0,0C883.8,350.6,884.4,356.2,879.5,359.9z"/>
						</g>
						<path class="st27" d="M881.9,346.5c1.3,0.7,3,0.2,3.7-1.2c0.7-1.3,0.2-3-1.2-3.7c-1.3-0.7-3-0.2-3.7,1.2
							C880.1,344.1,880.6,345.8,881.9,346.5z"/>
					</g>
					<g>
						<path class="st28" d="M926.2,323.6c5.6,7.8,2.1,16-1.6,25.3l0,0C922.1,339.2,919.6,330.7,926.2,323.6z"/>
						<path class="st28" d="M949.2,342.7c-5.7,7.8-14.5,6.9-24.6,6.3l0,0C933.1,343.6,940.5,338.6,949.2,342.7z"/>
						<path class="st28" d="M938.2,370.4c-9.1-3-11.1-11.7-13.6-21.4l0,0C932.4,355.4,939.4,360.9,938.2,370.4z"/>
						<path class="st28" d="M908.4,368.5c0-9.6,7.7-14.1,16.2-19.6l0,0C920.9,358.4,917.8,366.7,908.4,368.5z"/>
						<path class="st28" d="M901,339.6c9.2-2.9,15.8,2.9,23.6,9.4l0,0C914.5,348.3,905.6,348,901,339.6z"/>
						<g>
							<path class="st29" d="M915.8,332.8c6.5,2.7,7.5,9.1,8.8,16.3l0,0C919.2,344,914.4,339.7,915.8,332.8z"/>
							<path class="st29" d="M937.4,335.7c-0.5,7-6.3,9.9-12.8,13.4l0,0C927.8,342.5,930.4,336.5,937.4,335.7z"/>
							<path class="st29" d="M941.3,357.2c-6.8,1.7-11.4-2.9-16.7-8l0,0C931.9,350.1,938.4,350.8,941.3,357.2z"/>
							<path class="st29" d="M922.1,367.5c-3.7-6-0.7-11.8,2.5-18.4l0,0C925.9,356.4,927.3,362.7,922.1,367.5z"/>
							<path class="st29" d="M906.3,352.5c4.5-5.4,11-4.3,18.3-3.3l0,0C918.1,352.6,912.5,355.9,906.3,352.5z"/>
						</g>
						<path class="st25" d="M921.5,348.8c-0.1,1.7,1.2,3.2,2.9,3.3c1.7,0.1,3.2-1.2,3.3-2.9c0.1-1.7-1.2-3.2-2.9-3.3
							C923.1,345.8,921.6,347.1,921.5,348.8z"/>
					</g>
					<path class="st30" d="M889.7,392.6c2,0.5,4.1,1.1,6.1,1.6"/>
					<path class="st30" d="M889.7,388.5c2.5,1,5.1,2,7.6,3c-2.5,0.1-5.1,0.1-7.6,0.2"/>
					<path class="st30" d="M898.5,389c-3-0.4-6-0.9-9-1.3"/>
					<path class="st30" d="M889.9,390.2c2.4-0.5,4.7-0.9,7.1-1.4c-2.4-0.2-4.8-0.4-7.2-0.6"/>
					<path class="st30" d="M889.3,393.5c2.8-0.1,5.6-0.2,8.4-0.3c-2.6-0.5-5.2-1.1-7.8-1.6"/>
				</g>
				<path class="st12" d="M829.4,464.2l11.8,7c16.8,10,38.5,4.6,48.8-12l17.6-28.3L868.4,400l-35,53l-11,8L829.4,464.2z"/>
				<path class="st31" d="M851.3,464.2"/>
				<path d="M869.9,405.5c1.4,2.1,3.5,4.6,6.1,7.2c2.4,2.4,5.1,4.9,8.2,7.4c1.6,1.3,3.1,2.4,4.6,3.5c1.2,0.9,2.4,1.7,3.5,2.4
					c3.8,2.5,7.3,4.3,10,5.3c1.6,0.6,2.9,0.8,3.9,0.8c0.8,0,1.3-0.2,1.7-0.7c0.3-0.4,0.4-0.9,0.3-1.5c-0.1-1.1-0.8-2.5-1.9-4.2
					c-2.6-4.1-7.9-9.6-14.5-15c-4-3.2-7.9-6-11.4-8c-2.5-1.5-4.8-2.6-6.7-3.3c-2.7-1-4.7-1.1-5.5-0.1
					C867.4,400.6,868.1,402.7,869.9,405.5z"/>
				<line class="st15" x1="868.2" y1="399.5" x2="847.2" y2="431.9"/>
				<line class="st15" x1="829.6" y1="465.6" x2="822.5" y2="384.3"/>
				<path class="st9" d="M869.9,405.5c1.4,2.1,3.5,4.6,6.1,7.2c2.4,2.4,5.1,4.9,8.2,7.4c1.6,1.3,3.1,2.4,4.6,3.5
					c1.2,0.9,2.4,1.7,3.5,2.4c3.8,2.5,7.3,4.3,10,5.3l4-5.6l4.9-6.9l-35.1-23.1l-2.4,3.7L869.9,405.5z"/>
				<g>
					<path class="st9" d="M915.2,394.4c-1.8-6.9-7.2-11-14.1-12.2c-5-0.9-13.2-2.2-19.2-0.6c-0.4,0-0.7-0.1-1.1,0
						c-3.5,0.5-6,3.7-5.5,7.2c0.1,0.9,0.4,1.8,0.9,2.5c0,0-0.1,0-0.1,0c-3.2,1.4-4.7,5.1-3.3,8.3c0.2,0.4,0.5,0.9,0.9,1.4
						c-1.2,1.1-2,2.6-2.1,4.3c-0.2,2.8,1.5,5.3,3.9,6.3c-0.4,0.3-0.7,0.7-0.9,1.2c-0.8,1.8,0.1,3.9,1.8,4.7l18.9,8.2
						c0.5,0.2,1.1,0.4,1.7,0.5c0.6,0.1,1.1,0,1.7,0C913.3,426.7,918,405.2,915.2,394.4z"/>
					<g>
						<g>
							<path d="M876,391.7c7.5,1.8,15.1,2.9,22.8,3.4c0.5,0,0.5-0.7,0-0.8c-7.6-0.5-15.2-1.7-22.6-3.4
								C875.7,390.9,875.5,391.6,876,391.7L876,391.7z"/>
						</g>
					</g>
					<g>
						<g>
							<path d="M873.4,401.7c6.7,1.8,13.6,3,20.5,3.6c0.5,0,0.5-0.7,0-0.8c-6.8-0.5-13.7-1.7-20.3-3.5
								C873.1,400.8,872.9,401.6,873.4,401.7L873.4,401.7z"/>
						</g>
					</g>
					<g>
						<g>
							<path d="M875.5,412c5.4,1.7,11,2.8,16.7,3.3c0.5,0,0.5-0.7,0-0.8c-5.6-0.5-11.1-1.6-16.5-3.3
								C875.2,411.1,875.1,411.8,875.5,412L875.5,412z"/>
						</g>
					</g>
					<g>
						<g>
							<path d="M884.9,380.6c-2.3,0.5-4.7,1.1-6.6,2.6c-1.7,1.3-2.9,3.2-3,5.4c0,0.5,0.7,0.5,0.8,0c0.1-2,1.3-3.8,2.9-5
								c1.8-1.3,4-1.9,6.1-2.3C885.6,381.2,885.4,380.5,884.9,380.6L884.9,380.6z"/>
						</g>
					</g>
				</g>
				<path d="M772.3,251.8c0,0-10.1-3.2-13.7,0c-3.6,3.2-9-1.7-9-1.7s3.1,8.1,9.7,8.2c6.7,0.1,13-3.2,13-3.2s10.8,4.3,15.1,0
					s2.2-6.5,2.2-6.5s-4.3,3.2-7.6,2.2S775.6,249.6,772.3,251.8z"/>
				<path d="M728.3,238.2c0,0-6.6-9.3-3.7-21.2c0,0,1.1-23.6,35.6-21.1c0,0,15.6-9.6,15.7,8.4c0,0,6.2,0.3,8.6,3.6
					c2.4,3.4,2.5,10.9,0.5,21c0,0-1.1-4.2-2.4-7c-1.3-2.8-2.9-9.2-6.7-10c0,0-1.3,7.4-16.3,4.6c0,0-9.4-1.2-11.7,1.2
					c0,0-5.2,3.2-4.9,7.6c0.2,2.5,0.2,6.2-1,10.7c0,0-0.6,4.9,0.5,7.4c1.1,2.5,0.8,4-0.5,3.9c-1.2-0.1-4.6-8.2-10.1-11.5
					C731.9,235.8,729.3,237,728.3,238.2z"/>
				<g>
					<g>
						
							<ellipse transform="matrix(0.9062 -0.4228 0.4228 0.9062 -33.6551 332.7814)" class="st9" cx="733.3" cy="242.2" rx="6.5" ry="7.7"/>
					</g>
					<path class="st32" d="M731.7,238.3c0,0,4.7,2.6,2.9,8.2"/>
				</g>
				<g>
					<ellipse transform="matrix(0.982 -0.1886 0.1886 0.982 -31.4361 151.8257)" cx="781.9" cy="241.1" rx="3.2" ry="3.2"/>
				</g>
				<g>
					<ellipse transform="matrix(0.982 -0.1886 0.1886 0.982 -32.0564 147.7692)" cx="760.3" cy="242.3" rx="3.2" ry="3.2"/>
				</g>
			</g>
			<g>
				<path class="st33" d="M619.5,240.3h-61c-21.3,0-38.5-17.2-38.5-38.5v0c0-21.3,17.2-38.5,38.5-38.5h61
					c21.3,0,38.5,17.2,38.5,38.5v0C658,223.1,640.7,240.3,619.5,240.3z"/>
				<circle class="st33" cx="672" cy="230.5" r="10.5"/>
				<circle class="st33" cx="695" cy="246.5" r="4.5"/>
				<path class="st11" d="M612.4,192.4c0,19.4-23.4,30.8-23.4,30.8s-23.4-11.4-23.4-30.8c0-6.7,5.4-12.1,12.1-12.1
					c5.2,0,9.6,3.3,11.3,7.9c1.7-4.6,6.1-7.9,11.3-7.9C607,180.3,612.4,185.7,612.4,192.4z"/>
			</g>
		</g>
		<g>
			<g>
				<polygon class="st9" points="1205.4,377 1307.9,434.6 1285.3,462.9 1196.1,421.6 				"/>
				<polygon class="st34" points="1200.2,372.1 1264.4,406.6 1255.4,451 1205.6,431.2 				"/>
				<path d="M1124.5,342.9c3.1-6.3,8-11.6,12.7-16.8c4.7-5.2,9.4-10.7,11.8-17.3c2.3-6.3,2.3-13.1,4.2-19.5c4-14,17.1-25,31.6-26.5
					c13.4-1.4,27.3,5.4,34.7,16.7c3.1,0.9,6,2.5,8.2,4.7c3.7,3.6,5.8,8.9,5.7,14.1c-0.3,8.1-5.7,15.3-6.4,23.4
					c-1.4,15.2,13.4,27.9,13.4,43.1c0,6.5-2.9,12.9-7.8,17.2s-11.6,6.4-18,5.5c-11.9-1.5-20.9-11.9-32.5-15.1
					c-6.6-1.8-13.7-1.1-20.5-0.2s-13.7,2.1-20.5,1.2c-6.8-0.9-13.7-4.2-17.1-10.2C1120.5,357.1,1121.4,349.3,1124.5,342.9z"/>
				<g>
					<path class="st9" d="M1255.7,363.9c0,0-2.8-16.5-8.5-25.4s-7.3-0.7-7.3-0.7l3.7,23.8l5.5,9.1L1255.7,363.9z"/>
					<path class="st9" d="M1302.8,462.1L1302.8,462.1c-9.8,4.9-21.7,1.6-27.5-7.6l-47.3-79.6l16.2-25.1l65.5,79.8
						C1318.3,440.1,1314.9,456,1302.8,462.1z"/>
					<g>
						<g>
							<path class="st28" d="M1201.3,324l20-13.4c1.1-0.7,2.6-0.5,3.4,0.7l31.4,46.7c0.7,1.1,0.5,2.6-0.7,3.4l-20,13.4
								c-1.1,0.7-2.6,0.5-3.4-0.7l-31.4-46.7C1199.9,326.3,1200.2,324.8,1201.3,324z"/>
							<g>
								<path class="st9" d="M1238.4,322.3c-3.1-2-8.2,11.8-5.3,13.5C1236,337.5,1242.6,325,1238.4,322.3z"/>
								<path class="st9" d="M1241.5,326.6c-3.1-2-8.2,11.8-5.3,13.5C1239,341.8,1245.6,329.3,1241.5,326.6z"/>
								<path class="st9" d="M1244.5,330.9c-3.1-2-8.2,11.8-5.3,13.5C1242.1,346.1,1248.7,333.6,1244.5,330.9z"/>
								<path class="st9" d="M1247.6,335.2c-3.1-2-8.2,11.8-5.3,13.5C1245.1,350.4,1251.7,337.9,1247.6,335.2z"/>
							</g>
							<path class="st9" d="M1224.4,361c0,0-2-11.4-7.9-13.4c-1.8-0.6-5.4,18.8,11.4,27.2l2.5-3.3L1224.4,361z"/>
						</g>
					</g>
				</g>
				<polygon class="st9" points="1189.4,702 1179.7,946.6 1151.2,948.4 1127.4,689 				"/>
				<path class="st28" d="M1148.1,942.5l0.7,44.5h64.4c6.3-2.4,7.6-6.5,6.3-10.8c0,0,0,0,0-0.1c-2.4-7.9-13.6-16.6-19.3-17.9
					c-8.9-2.1-18.7-13.4-18.7-13.4L1148.1,942.5z"/>
				<path d="M1190.8,987.1h22.4c6.3-2.4,7.6-6.5,6.3-10.8c0,0-1.9-6-7.3-4.6c-5.5,1.4-3.4,10.3-8.9,11.7
					C1201.5,983.8,1196.6,985.3,1190.8,987.1z"/>
				<path class="st35" d="M1191.4,954c0,0-9.8-4.6-13.2,0.9"/>
				<path class="st35" d="M1195.6,956.7c0,0-9.8-4.6-13.2,0.9"/>
				<path class="st35" d="M1199.7,959.5c0,0-9.8-4.6-13.2,0.9"/>
				<polygon class="st9" points="1266.4,688 1301.3,942 1270,940.1 1205.4,694 				"/>
				<path class="st28" d="M1265.9,938l0.8,49.1h71c6.9-2.7,8.4-7.1,7-11.9c0,0,0,0,0-0.1c-2.7-8.7-15-18.3-21.3-19.7
					c-9.8-2.3-20.6-14.7-20.6-14.7L1265.9,938z"/>
				<path d="M1312.9,987.1h24.6c6.9-2.7,8.4-7.1,7-11.9c0,0-2.1-6.6-8.1-5.1c-6,1.5-3.8,11.3-9.8,12.8
					C1324.7,983.4,1319.3,985.1,1312.9,987.1z"/>
				<path class="st35" d="M1313.7,950.6c0,0-10.8-5.1-14.6,1"/>
				<path class="st35" d="M1318.2,953.7c0,0-10.8-5.1-14.6,1"/>
				<path class="st35" d="M1322.7,956.7c0,0-10.8-5.1-14.6,1"/>
				<path class="st34" d="M1085.5,442l44.9-4l16,72l5,24l100,1l-3.8-13.9c-1.1-4-1.9-8-2.5-12c-0.9-6.2-1.2-12.4-0.9-18.7l1.2-25.4
					c4.1-5,5.8-11.1,6-18c1-12-6.5-22.9-13-34c-13.6-23.2-21.1-47-40.3-47h-82.7c-2.4,0-4.8,0.3-7,1c-10.1,2.8-17.2,11.8-18.3,22.2
					L1085.5,442z"/>
				<g>
					<path class="st9" d="M1202.1,352.3l-2.1,14.8c-1.9,13.2-12,22.7-22.6,21.1c-5.3-0.8-9.7-4.1-12.5-9c-2.8-4.8-4.1-11.1-3.2-17.7
						l7.1-49L1202.1,352.3z"/>
				</g>
				<g>
					<path d="M1201.9,353.3l-1.5,10.1c-18.5-2-25.4-14.4-25.4-14.4C1180.7,353,1195.9,353.3,1201.9,353.3z"/>
				</g>
				<g>
					<path class="st9" d="M1221.8,303.2l-7.4,37.3c-3.1,13.5-16.9,17.3-32.4,10.9c-10.5-4.3-20.6-8.5-21.2-24.7
						c-1.4-38.5,10-40.3,10-40.3l40.6,0.9C1218.4,289,1222.9,295.9,1221.8,303.2z"/>
				</g>
				<g>
					<ellipse transform="matrix(0.4756 -0.8797 0.8797 0.4756 364.7045 1233.1815)" cx="1216.6" cy="310.7" rx="1.8" ry="6.3"/>
				</g>
				<g>
					<ellipse transform="matrix(0.9913 -0.1317 0.1317 0.9913 -30.1619 159.6977)" cx="1191.8" cy="307.8" rx="6.3" ry="1.8"/>
				</g>
				<g>
					<circle cx="1213.7" cy="318.4" r="3.2"/>
				</g>
				<g>
					<circle cx="1192.3" cy="315.3" r="3.2"/>
				</g>
				<g>
					<path d="M1202.5,332.6c-0.2,0-0.4-0.1-0.6-0.2l-4.2-1.7c-0.2-0.1-0.3-0.3-0.2-0.6c0.1-0.2,0.3-0.3,0.6-0.2l4.2,1.7
						c0.5,0.2,1,0.1,1.4-0.1c0.4-0.3,0.7-0.7,0.7-1.3l0.5-13.5c0-0.2,0.2-0.4,0.4-0.4c0.2,0,0.4,0.2,0.4,0.4l-0.5,13.5
						c0,0.8-0.4,1.5-1.1,1.9C1203.6,332.5,1203.1,332.6,1202.5,332.6z"/>
				</g>
				<g>
					<circle class="st11" cx="1233.9" cy="402.5" r="4.5"/>
					<circle class="st11" cx="1238.9" cy="407.5" r="4.5"/>
					<path class="st11" d="M1232.4,412.5c0,0.2,0,0.4,0,0.5c0,0,0,0,0,0l0.5,1.4c0.2,0.2,0.5,0.4,0.7,0.6c0.7,0.6,1.3,1.1,1.9,1.7
						c0.4,0.2,0.9,0.2,1.4,0.2c2.5,0,4.5-2,4.5-4.5c0-0.4-0.1-0.8-0.1-1.2v0c-0.5-1.6-1.8-2.9-3.5-3.2c-0.3-0.1-0.6-0.1-0.9-0.1
						c-0.9,0-1.7,0.2-2.4,0.7c-0.4,0.3-0.8,0.6-1.1,1c-0.5,0.6-0.9,1.5-1,2.3C1232.4,412.2,1232.4,412.3,1232.4,412.5z"/>
					<path class="st11" d="M1230.9,408.1l0.7,2.1l0.5,1.7l0.4,1.2c0,0,0,0,0,0l0.5,1.4c0.2,0.2,0.5,0.4,0.7,0.6
						c0.5-0.7,0.8-1.6,0.8-2.6c0-0.1,0-0.2,0-0.3c-0.1-1-0.4-1.8-1-2.5c-0.2-0.3-0.4-0.5-0.7-0.7
						C1232.2,408.5,1231.6,408.2,1230.9,408.1z"/>
					<path class="st11" d="M1228.9,402l1.4,4.3l0.6,1.8l0.7,2.1c0.5-0.3,0.9-0.7,1.2-1.2c0.4-0.6,0.6-1.3,0.7-2c0-0.1,0-0.3,0-0.5
						c0-0.8-0.2-1.5-0.5-2.1c-0.7-1.3-1.9-2.2-3.4-2.3C1229.3,402,1229.1,402,1228.9,402C1228.9,402,1228.9,402,1228.9,402z"/>
					<path class="st34" d="M1230.3,406.3l0.6,1.8l0.7,2.1l0.5,1.7c0.1,0.1,0.2,0.1,0.4,0.2c0.4,0.2,0.9,0.2,1.4,0.2
						c0.2,0,0.4,0,0.6-0.1c0.8-0.1,1.5-0.4,2-0.9c0.8-0.7,1.4-1.8,1.4-3c0-0.1,0-0.1,0-0.2c0-0.9-0.3-1.6-0.8-2.3
						c-0.4-0.5-0.9-0.9-1.5-1.2c-0.5-0.2-1.1-0.4-1.7-0.4c-0.3,0-0.6,0-0.9,0.1c-0.8,0.2-1.6,0.7-2.1,1.3
						C1230.6,405.9,1230.4,406.1,1230.3,406.3z"/>
				</g>
				<path class="st32" d="M1245.8,464.5c0,0,18-21.8-10.3-47.8c-0.6-0.6-1.2-1.1-1.9-1.7c-0.2-0.2-0.5-0.4-0.7-0.6l-0.5-1.4
					c0,0,0,0,0,0l-0.4-1.2l-0.5-1.7l-0.7-2.1l-0.6-1.8l-1.4-4.4l-5-15.5"/>
				<path class="st34" d="M1251.2,533.7c0,0,18.4,38.4,23.8,77.3c5.4,38.9,12.7,125.1,12.7,125.1s-66.6,44.1-172.9,0
					c0,0-9.5-158.4,36.7-202.1"/>
				<path d="M1154.8,307.5c0.1,2.2,1.7,3.3,3.4,4c2.2,0.8,4.5,1.3,6.8,1.6c9,1.2,18.5-0.9,26.7-6.1c7.9-5,14.5-12.6,18.7-21.7
					c0.2-0.5,0.1-0.9-0.2-1.1c0.2-0.4,0.2-1-0.2-1.3c-8.3-6.4-19.2-8.3-29.3-5.1c-8.1,2.6-15.5,8.7-20.5,16.6
					c-1.2,1.9-2.3,4-3.3,6.1C1156,302.6,1154.7,305.2,1154.8,307.5z"/>
				<path class="st9" d="M1164.6,320.7c-0.5,0-1.1,0-1.6-0.1c-2.5-0.5-4.8-2.6-6.1-5.6c0,0,0-0.1-0.1-0.1c-0.5-1.3-0.9-2.6-1-4.1
					c-0.5-5.9,2.5-10.9,6.8-11.3c4.3-0.4,8.2,4.1,8.7,9.9C1171.9,315.3,1168.9,320.3,1164.6,320.7z"/>
				<path class="st32" d="M1162.5,304.1c0,0,5,4.3,1.8,10.4"/>
				<path class="st11" d="M1203.1,338l-12.4-5.5c0,0-1.2,5.4,3.9,8.2C1199.6,343.7,1203.1,338,1203.1,338z"/>
				<line class="st32" x1="1275.8" y1="450.5" x2="1256.3" y2="423.6"/>
				<g>
					<circle class="st11" cx="1186.9" cy="594.5" r="4.5"/>
					<circle class="st11" cx="1191.9" cy="599.5" r="4.5"/>
					<circle class="st11" cx="1189.9" cy="604.5" r="4.5"/>
					<circle class="st11" cx="1182.9" cy="604.5" r="4.5"/>
					<circle class="st11" cx="1181.9" cy="598.5" r="4.5"/>
					<circle class="st34" cx="1186.8" cy="600.3" r="4"/>
				</g>
				<g>
					<circle class="st11" cx="1152.9" cy="646.5" r="4.5"/>
					<circle class="st11" cx="1157.9" cy="651.5" r="4.5"/>
					<circle class="st11" cx="1155.9" cy="656.5" r="4.5"/>
					<circle class="st11" cx="1148.9" cy="656.5" r="4.5"/>
					<circle class="st11" cx="1147.9" cy="650.5" r="4.5"/>
					<circle class="st34" cx="1152.8" cy="652.3" r="4"/>
				</g>
				<g>
					<circle class="st11" cx="1221.9" cy="664.5" r="4.5"/>
					<circle class="st11" cx="1226.9" cy="669.5" r="4.5"/>
					<circle class="st11" cx="1224.9" cy="674.5" r="4.5"/>
					<circle class="st11" cx="1217.9" cy="674.5" r="4.5"/>
					<circle class="st11" cx="1216.9" cy="668.5" r="4.5"/>
					<circle class="st34" cx="1221.8" cy="670.3" r="4"/>
				</g>
				<g>
					<circle class="st11" cx="1241.9" cy="616.5" r="4.5"/>
					<circle class="st11" cx="1246.9" cy="621.5" r="4.5"/>
					<circle class="st11" cx="1244.9" cy="626.5" r="4.5"/>
					<circle class="st11" cx="1237.9" cy="626.5" r="4.5"/>
					<circle class="st11" cx="1236.9" cy="620.5" r="4.5"/>
					<circle class="st34" cx="1241.8" cy="622.3" r="4"/>
				</g>
				<g>
					<circle class="st11" cx="1231.9" cy="550.5" r="4.5"/>
					<circle class="st11" cx="1236.9" cy="555.5" r="4.5"/>
					<circle class="st11" cx="1234.9" cy="560.5" r="4.5"/>
					<circle class="st11" cx="1227.9" cy="560.5" r="4.5"/>
					<circle class="st11" cx="1226.9" cy="554.5" r="4.5"/>
					<circle class="st34" cx="1231.8" cy="556.3" r="4"/>
				</g>
				<g>
					
						<ellipse transform="matrix(0.6178 -0.7864 0.7864 0.6178 7.8406 1120.2477)" class="st11" cx="1156.2" cy="552.1" rx="5.3" ry="4.2"/>
					
						<ellipse transform="matrix(0.6178 -0.7864 0.7864 0.6178 5.0351 1125.3335)" class="st11" cx="1160.1" cy="557.5" rx="5.3" ry="4.2"/>
					
						<ellipse transform="matrix(0.6178 -0.7864 0.7864 0.6178 -0.4461 1124.9148)" class="st11" cx="1156.9" cy="562.9" rx="5.3" ry="4.2"/>
					
						<ellipse transform="matrix(0.6178 -0.7864 0.7864 0.6178 -3.1218 1119.4102)" class="st11" cx="1149.9" cy="562.9" rx="5.3" ry="4.2"/>
					
						<ellipse transform="matrix(0.6178 -0.7864 0.7864 0.6178 2.156 1117.239)" class="st11" cx="1150.3" cy="556.4" rx="5.3" ry="4.2"/>
					
						<ellipse transform="matrix(0.6178 -0.7864 0.7864 0.6178 2.3708 1121.4928)" class="st34" cx="1154.8" cy="558.3" rx="4.7" ry="3.7"/>
				</g>
				<g>
					<circle class="st11" cx="1167.9" cy="706.5" r="4.5"/>
					<circle class="st11" cx="1172.9" cy="711.5" r="4.5"/>
					<circle class="st11" cx="1170.9" cy="716.5" r="4.5"/>
					<circle class="st11" cx="1163.9" cy="716.5" r="4.5"/>
					<circle class="st11" cx="1162.9" cy="710.5" r="4.5"/>
					<circle class="st34" cx="1167.8" cy="712.3" r="4"/>
				</g>
				<g>
					<circle class="st11" cx="1252.9" cy="707.5" r="4.5"/>
					<circle class="st11" cx="1257.9" cy="712.5" r="4.5"/>
					<circle class="st11" cx="1255.9" cy="717.5" r="4.5"/>
					<circle class="st11" cx="1248.9" cy="717.5" r="4.5"/>
					<circle class="st11" cx="1247.9" cy="711.5" r="4.5"/>
					<circle class="st34" cx="1252.8" cy="713.3" r="4"/>
				</g>
				<g>
					
						<ellipse transform="matrix(0.7598 -0.6502 0.6502 0.7598 -15.4738 912.9407)" class="st11" cx="1227.8" cy="477.4" rx="4.8" ry="4.3"/>
					
						<ellipse transform="matrix(0.7598 -0.6502 0.6502 0.7598 -18.0931 916.8046)" class="st11" cx="1231.7" cy="482.9" rx="4.8" ry="4.3"/>
					
						<ellipse transform="matrix(0.7598 -0.6502 0.6502 0.7598 -21.9284 915.9716)" class="st11" cx="1228.7" cy="487.7" rx="4.8" ry="4.3"/>
					
						<ellipse transform="matrix(0.7598 -0.6502 0.6502 0.7598 -23.1445 911.2746)" class="st11" cx="1221.7" cy="487" rx="4.8" ry="4.3"/>
					
						<ellipse transform="matrix(0.7598 -0.6502 0.6502 0.7598 -19.1328 909.9929)" class="st11" cx="1222" cy="480.9" rx="4.8" ry="4.3"/>
					
						<ellipse transform="matrix(0.7598 -0.6502 0.6502 0.7598 -19.5071 913.4555)" class="st34" cx="1226.5" cy="483.1" rx="4.2" ry="3.8"/>
				</g>
				<g>
					
						<ellipse transform="matrix(0.6177 -0.7864 0.7864 0.6177 106.8493 1087.6024)" class="st11" cx="1172.1" cy="433.9" rx="4" ry="4.9"/>
					
						<ellipse transform="matrix(0.6177 -0.7864 0.7864 0.6177 105.3132 1094.1659)" class="st11" cx="1178.1" cy="438.8" rx="4" ry="4.9"/>
					
						<ellipse transform="matrix(0.6177 -0.7864 0.7864 0.6177 101.1011 1095.2246)" class="st11" cx="1177" cy="443.6" rx="4" ry="4.9"/>
					
						<ellipse transform="matrix(0.6177 -0.7864 0.7864 0.6177 98.4251 1089.7197)" class="st11" cx="1170" cy="443.6" rx="4" ry="4.9"/>
					
						<ellipse transform="matrix(0.6177 -0.7864 0.7864 0.6177 102.1799 1085.7756)" class="st11" cx="1167.9" cy="437.8" rx="4" ry="4.9"/>
					
						<ellipse transform="matrix(0.6177 -0.7864 0.7864 0.6177 102.8404 1090.5482)" class="st34" cx="1173.1" cy="439.5" rx="3.6" ry="4.4"/>
				</g>
				<g>
					
						<ellipse transform="matrix(0.4627 -0.8865 0.8865 0.4627 282.1114 1286.6571)" class="st11" cx="1202.6" cy="410.6" rx="3.4" ry="5"/>
					
						<ellipse transform="matrix(0.4627 -0.8865 0.8865 0.4627 281.8998 1294.804)" class="st11" cx="1209.2" cy="414.8" rx="3.4" ry="5"/>
					
						<ellipse transform="matrix(0.4627 -0.8865 0.8865 0.4627 277.9274 1296.7454)" class="st11" cx="1208.8" cy="419.1" rx="3.4" ry="5"/>
					
						<ellipse transform="matrix(0.4627 -0.8865 0.8865 0.4627 274.1667 1290.5399)" class="st11" cx="1201.8" cy="419.1" rx="3.4" ry="5"/>
					
						<ellipse transform="matrix(0.4627 -0.8865 0.8865 0.4627 277.1069 1285.1962)" class="st11" cx="1198.9" cy="414" rx="3.4" ry="5"/>
					
						<ellipse transform="matrix(0.4627 -0.8865 0.8865 0.4627 278.7188 1290.8389)" class="st34" cx="1204.3" cy="415.5" rx="3" ry="4.5"/>
				</g>
				<g>
					
						<ellipse transform="matrix(0.6481 -0.7616 0.7616 0.6481 76.7856 989.0519)" class="st11" cx="1108.6" cy="411.4" rx="4.2" ry="4.8"/>
					
						<ellipse transform="matrix(0.6481 -0.7616 0.7616 0.6481 75.0314 995.1289)" class="st11" cx="1114.3" cy="416.4" rx="4.2" ry="4.8"/>
					
						<ellipse transform="matrix(0.6481 -0.7616 0.7616 0.6481 70.8136 995.8749)" class="st11" cx="1113" cy="421.3" rx="4.2" ry="4.8"/>
					
						<ellipse transform="matrix(0.6481 -0.7616 0.7616 0.6481 68.3502 990.5438)" class="st11" cx="1106" cy="421.3" rx="4.2" ry="4.8"/>
					
						<ellipse transform="matrix(0.6481 -0.7616 0.7616 0.6481 72.2149 987.0593)" class="st11" cx="1104.1" cy="415.4" rx="4.2" ry="4.8"/>
					
						<ellipse transform="matrix(0.6481 -0.7616 0.7616 0.6481 72.7036 991.5833)" class="st34" cx="1109.3" cy="417.1" rx="3.7" ry="4.3"/>
				</g>
				<g>
					
						<ellipse transform="matrix(0.7131 -0.7011 0.7011 0.7131 61.1085 912.352)" class="st11" cx="1145.2" cy="381.5" rx="4.4" ry="4.7"/>
					
						<ellipse transform="matrix(0.7131 -0.7011 0.7011 0.7131 59.123 917.5349)" class="st11" cx="1150.6" cy="386.5" rx="4.4" ry="4.7"/>
					
						<ellipse transform="matrix(0.7131 -0.7011 0.7011 0.7131 55.1291 917.8102)" class="st11" cx="1148.9" cy="391.6" rx="4.4" ry="4.7"/>
					
						<ellipse transform="matrix(0.7131 -0.7011 0.7011 0.7131 53.1208 912.9028)" class="st11" cx="1141.9" cy="391.6" rx="4.4" ry="4.7"/>
					
						<ellipse transform="matrix(0.7131 -0.7011 0.7011 0.7131 56.9379 910.1887)" class="st11" cx="1140.5" cy="385.5" rx="4.4" ry="4.7"/>
					
						<ellipse transform="matrix(0.7131 -0.7011 0.7011 0.7131 57.1413 914.2087)" class="st34" cx="1145.5" cy="387.3" rx="3.9" ry="4.1"/>
				</g>
				<g>
					<path class="st9" d="M1290.9,451.1c0,0.7-0.3,1.3-0.8,1.7c-0.4,0.4-1,0.7-1.6,0.7l-8.3,0.4l-3.8,5.1l-10.6,14.2
						c-1.3,1.7-3.1,2.8-5.2,3.1c-7,0.9-23.6,2.9-34.1,2.5c-1.6-0.1-3.2,0.2-4.7,0.8l-4,1.5l-9,2.2c-1.1-3.7-0.6-7.7-1.4-12.7
						c-1.1-6.9-1.5-13.2-1.3-17.7l6.2-1.4l2-0.5c1.1-0.3,2.1-1,2.6-2c1.1-2.1,4.2-5.9,12.5-9.1c9.4-3.7,23.1-7.3,28.5-8.7
						c1.3-0.3,2.5,0.5,2.7,1.8c0.1,0.7-0.1,1.4-0.7,1.9c-0.1,0.1-0.2,0.2-0.3,0.3l-13.6,8.6c-0.5,0.3-0.5,1.2,0.1,1.4l2.6,1.1
						c0.8,0.3,1.6,0.5,2.5,0.6l37.4,1.7C1289.8,448.4,1290.9,449.6,1290.9,451.1z"/>
					<line class="st15" x1="1280.6" y1="453.9" x2="1258.6" y2="455.1"/>
					<line class="st15" x1="1276.3" y1="459" x2="1256.9" y2="460.2"/>
					<line class="st15" x1="1272.1" y1="464.1" x2="1256.4" y2="465.2"/>
					<line class="st15" x1="1268" y1="469.6" x2="1255.9" y2="470.1"/>
				</g>
				<path class="st9" d="M1088.8,441.7l1.2,56.9c0.2,12.4,12.4,21,24.1,17.2l94.8-32.6l13.1-4.5l-2-29.3l-4.4,0.9l-68.7,14.2
					c-5.3,1.1-10-3.5-9.1-8.8l2.5-15.1l0.6-3.8l-3.1,0.3l-0.3,0l-46.5,4.4l-1.3,0.1L1088.8,441.7z"/>
				<path class="st36" d="M1146.4,510l5,24l100,1l-3.8-13.9c-1.1-4-1.9-8-2.5-12L1146.4,510z"/>
				<line class="st32" x1="1137.1" y1="401" x2="1144.1" y2="436.5"/>
				<polyline class="st32" points="1085.5,442 1088.8,441.7 1089.6,441.6 1090.9,441.5 1137.5,437.1 1137.8,437.1 1140.9,436.8 
					1144,436.5 				"/>
				<path class="st15" d="M1260.7,447.1l26.9,1.2c0,0,3.2-0.2,3.2,2.5c0.1,2.7-3.4,2.7-3.4,2.7l-3.5,0.1"/>
				<path class="st15" d="M1250.7,433l6.6-1.8c0,0,1.9-0.9,2.8,0.7c0,0,0,0,0,0c0.6,1.1,0.2,2.4-0.8,3.1l-5.9,3.9"/>
			</g>
			<g>
				<path class="st33" d="M1300.5,239.2h61c21.3,0,38.5-17.2,38.5-38.5v0c0-21.3-17.2-38.5-38.5-38.5h-61
					c-21.3,0-38.5,17.2-38.5,38.5v0C1262,222,1279.3,239.2,1300.5,239.2z"/>
				<path class="st33" d="M1283.1,208.9c0,0-9.6,32.1-20.1,47.6c0,0,45.4-10.7,48.9-29.6C1315.5,208,1283.1,208.9,1283.1,208.9z"/>
				<g>
					<circle class="st11" cx="1308" cy="200.8" r="8"/>
					<circle class="st11" cx="1331" cy="200.8" r="8"/>
					<circle class="st11" cx="1354" cy="200.8" r="8"/>
				</g>
			</g>
		</g>
	</g>
	<g style="clip-path:url(#SVGID_00000108990463998994627280000017006780719194779825_);">
		<g>
			<g>
				<path d="M469.4,908.5c7.4-2.3,14-6.7,20.1-11.5c21.6-17.1,38-40.6,46.7-66.7c2.1-6.3,3.8-12.9,3.6-19.6s-2.6-13.5-7.5-18
					c-7.5-6.8-19.4-6.8-28.5-2.5c-9.2,4.3-16.1,12.2-22.3,20.2c-10.1,12.9-19.1,26.7-26.9,41.2c-4.4,8.3-8.5,16.9-10.7,26
					c-1.8,7.6-3.9,21.3,1.6,28C450.7,911.8,462.8,910.5,469.4,908.5z"/>
				<path d="M410.9,865.5c4.2-3.9,5.8-9.9,6.3-15.6c1.5-15.5-3.5-31.2-11.6-44.4c-8.1-13.3-19.4-24.4-31.2-34.5
					c-6.2-5.3-12.8-10.4-20.5-12.9c-7.7-2.6-16.8-2.2-23.2,2.8c-5.4,4.3-8.1,11.4-8.4,18.3c-0.2,6.9,1.7,13.7,4.2,20.2
					c11.2,29,34,53.3,62.4,66.1C396.2,868.7,404.1,871.9,410.9,865.5z"/>
				<path class="st17" d="M451,757c-0.5-24-7.7-47.7-20.7-67.9c-4.8-7.5-10.5-14.6-18.1-19.3c-7.6-4.7-17.3-6.5-25.5-3.2
					c-9,3.7-14.7,12.9-16.8,22.4c-2,9.5-1,19.3,0.1,29c2.4,21.7,4.9,43.7,13.5,63.7c6.8,15.9,18.5,32.1,34.4,39.9
					c19,9.3,25.1-14.7,28.8-28.7C449.8,781.2,451.2,769.1,451,757z"/>
				<path class="st17" d="M396.3,849.8c-9.7-19.9-24.9-37-43.5-49c-6.6-4.2-13.8-7.9-21.6-9.1c-7.8-1.2-16.2,0.5-22.1,5.7
					c-6.2,5.6-8.6,14.6-7.8,22.9c0.8,8.3,4.3,16.2,8.5,23.4c11.8,20.8,29,38.5,49.2,51.4c10.3,6.6,21.5,12,33.1,15.8
					c14,4.5,16.9-3,16-15.8C407.2,879.4,403.2,863.9,396.3,849.8z"/>
				<path class="st17" d="M256.5,850.2c-11.3-1-24.4,0.8-31,10.1c-5.3,7.5-4.6,18.1-0.2,26.1c4.4,8.1,11.9,14,19.7,18.9
					c13.2,8.2,27.9,13.8,43.1,16.7c13.3,2.5,33.1,5.4,45.9-0.1c25.7-11-23.1-50.9-33.4-57.1C287.1,856.7,272,851.5,256.5,850.2z"/>
				<path class="st17" d="M511.4,802.6c12.6-17.4,18.5-38.5,24.3-59.1c2.1-7.6,4.2-15.4,3.3-23.2c-0.9-7.8-5.6-15.7-13.2-17.9
					c-7.3-2.2-15,1.4-21.1,5.8c-11.4,8.3-19.9,20-26.3,32.5c-6.4,12.5-10.8,26-15.2,39.4c-4.1,12.7-12,33.5-5.2,46.5
					c5.8,11.1,28.5-1.5,35.4-6.3C500.3,815.5,506.4,809.5,511.4,802.6z"/>
				<path class="st17" d="M498.7,852.1c4.8-5.3,11.2-10.7,18.2-9.4c5.3,1,9.2,5.7,10.7,10.9c1.5,5.1,1,10.6,0.2,15.9
					c-5.2,33.6-22.6,65.1-48.2,87.4c-4.8,4.2-17,13.4-23,6.2c-4.6-5.6-0.1-21,1.1-27.5c3.7-20,10.9-39.3,21.2-56.8
					C484.7,869.3,491.3,860.3,498.7,852.1z"/>
				<path class="st17" d="M542.8,908.8c5.2-2.2,10.8-3.9,16.5-3.5c5.7,0.4,11.4,3.2,14.1,8.2c3.6,6.7,0.7,15-3.1,21.6
					c-12.4,21.5-34.7,36.5-59,41c-9.3,1.7-24.3,1.6-21.5-12.1c2.3-11.2,11.5-22.9,19-31.2C518.2,922.5,529.9,914.1,542.8,908.8z"/>
			</g>
			<path class="st32" d="M411.3,714c0,0,36,201,26,275c0,0,30-212,69-245"/>
			<path class="st32" d="M437.8,986.5c0,0-47-132-97-155"/>
			<path class="st32" d="M437.6,986.4c42.3-25.6,68.5-104.9,68.5-104.9"/>
			<path class="st32" d="M547.8,929.5c0,0-53.3,60-110,59c0,0-92-94-178-107"/>
		</g>
		<g>
			<g>
				<path d="M1481.5,928.9c-6.7-15.3-6.5-33.5,0.5-48.7c2.2-4.8,5.1-9.4,6.3-14.5c3.9-18.1-15-36.3-9.1-53.9
					c4.6-13.6,21.5-18.8,29.2-31c5.8-9.1,5.5-20.7,7.7-31.3c2.2-10.6,9.5-22.1,20.3-22c9.5,0.1,16.7,9.8,17.6,19.3
					s-2.5,18.8-5.6,27.9c-3,9.1-5.6,18.9-2.8,28c3.9,12.7,17.7,23.1,14.8,36.1c-1.8,8.3-10,13.5-14.5,20.8c-5.7,9.3-5,21.2-2.8,31.9
					c2.2,10.7,5.5,21.5,4.3,32.3c-1.6,14.7-14.8,31.9-30,34.8C1502.4,961.7,1486.8,940.8,1481.5,928.9z"/>
			</g>
			<g>
				<path class="st17" d="M1406.8,797.9c1,11.6,7.5,21.8,13.1,31.9c5.7,10.1,10.8,21.6,8.6,33c-1.8,9.7-8.8,18.2-8.5,28.1
					c0.3,11,9.5,19.5,18,26.6c8.5,7.1,17.6,15.7,17.7,26.8c0.1,11-6.2,20-4,31.4c0.9,4.6,2.8,9.1,5.2,13.3h61.3
					c0.1-0.3,0.2-0.6,0.3-0.9c1.9-5.4,2.6-11.6,1.7-18.3c-0.5-3.8-1.4-7.5-2.6-11.1c-1.6-4.8-3.7-9.5-6.1-14.1c-1-1.9-2-3.9-3.1-5.8
					c-1.4-2.5-2.8-5-4.1-7.5c-7.4-13.4-14.3-26.9-13.2-42.7c1-13,7.9-26.1,4-38.5c-2.4-7.6-8.1-12.9-14.5-17.9
					c-6.6-5.1-14-9.9-19.1-16.4c-6.3-8-8.9-18.3-13.6-27.3c-4.8-9-13.5-17.5-23.6-16.5C1412.9,773.1,1405.8,786.3,1406.8,797.9z"/>
			</g>
			<path d="M1493.3,989h24.9c0.1-0.3,0.2-0.6,0.3-0.9l-4.7-29.1l-2.3-14.4l-1.2-7.7l-1.5-9.4c-0.9,0.3-2.5,1.7-4.5,3.8
				c-3.1,3.5-7,9.1-9.9,16.6c-1.1,2.7-2,5.6-2.7,8.8C1489.7,965.9,1489.5,976.8,1493.3,989z"/>
			<path class="st32" d="M1428.8,792.5c0,0,50,95,67,183"/>
			<path class="st17" d="M1496.5,976c0.6,4.5,1.9,8.9,3.8,13.1h69.5c4.5-6.9,7-15.1,6.9-23.3c-0.1-7.2-2-14.3-2.8-21.5
				c-0.8-7.2-0.3-15,3.9-20.9c4.8-6.7,13.2-9.5,20.9-12.5c7.7-3,15.9-7.2,18.7-15c3-8.2-1.3-17.2-1.5-26c-0.3-9.7,4.4-18.8,9.2-27.3
				c4.8-8.5,9.9-17.2,10.7-26.9c0.8-9.7-4.3-20.7-13.7-23.1c-9.7-2.5-19.2,4.9-25,13.1c-5.8,8.2-9.9,17.9-17.8,24.1
				c-5.3,4.2-12,6.4-18.8,8.4h0c-11.7,3.3-23.8,5.7-30.3,15.5c-5.7,8.7-4.5,20.2-2.4,30.4c2,10.2,4.6,21.1,0.8,30.9
				c-3.5,9-11.6,15-18.4,21.9c-0.6,0.6-1.2,1.3-1.8,1.9c-0.8,0.9-1.6,1.8-2.4,2.8c-2.7,3.3-4.9,7.1-6.5,11.1
				C1496.5,960,1495.4,968.1,1496.5,976z"/>
			<path class="st32" d="M1614.3,818c0,0-77,79-90,165"/>
		</g>
	</g>
	
		<polyline style="clip-path:url(#SVGID_00000108990463998994627280000017006780719194779825_);fill:none;stroke:#000000;stroke-width:4;stroke-miterlimit:10;" points="
		-26.8,987.2 317.4,987.2 323.2,987.2 326.2,987.2 354.5,987.2 501.5,987.2 594.8,987.2 731.1,987.2 2018.6,987.2 	"/>
	<g style="clip-path:url(#SVGID_00000108990463998994627280000017006780719194779825_);">
		<path d="M306.2,413c5.7-0.3,12,2.1,15.1,7.2c1,1.8,1.5,3.8,1.8,5.6l-1.4,0.1c0.2-1.7,0.4-3.3,0.6-4.9c0.3-5,1-10,3.1-14.6
			c2.6-6.2,8-11.5,14.5-13.4c0,0,0.2,0.3,0.2,0.3c-0.6,0.6-1.1,1.2-1.7,1.8c-3.8,3.8-6.7,8.4-9.3,13.1c-2.6,5.5-6.1,11.4-6,17.7
			c0,0,0.2,4.3,0.2,4.3l-1.6-4.1c-1.2-3.3-4-5.2-6.6-7.3c-2.8-2.1-5.9-3.7-9-5.4L306.2,413L306.2,413z"/>
	</g>
	<g style="clip-path:url(#SVGID_00000108990463998994627280000017006780719194779825_);">
		<path d="M338.2,435.9c5.6-0.5,11.4,3,11.8,8.9c0,0-1,0.1-1,0.1c0.3-2.3,0.5-4.5,0.7-6.9c0.5-4.6,2.4-9.3,5.9-12.6
			c1.7-1.7,3.9-2.8,6.1-3.5l0.1,0.3c-1.6,1.7-3,3.2-4.2,5c-2.5,3.5-4.4,7.2-6.1,11.2c-0.9,2-1.6,4.2-1.4,6.4l0.2,3.2l-1.2-3.1
			c-0.4-1.1-1.2-2.1-2-2.8c-2.7-2.5-5.5-4.2-8.8-6C338.1,436.2,338.2,435.9,338.2,435.9L338.2,435.9z"/>
	</g>
</g>
</svg>
