<?xml version="1.0" standalone="no"?>
<!DOCTYPE svg PUBLIC "-//W3C//DTD SVG 20010904//EN"
 "http://www.w3.org/TR/2001/REC-SVG-20010904/DTD/svg10.dtd">
<svg version="1.0" xmlns="http://www.w3.org/2000/svg"
 width="512.000000pt" height="512.000000pt" viewBox="0 0 512.000000 512.000000"
 preserveAspectRatio="xMidYMid meet">
<metadata>
Created by potrace 1.14, written by Peter Selinger 2001-2017
</metadata>
<g transform="translate(0.000000,512.000000) scale(0.100000,-0.100000)"
fill="#000000" stroke="none">
<path d="M0 2560 l0 -2560 2560 0 2560 0 0 2560 0 2560 -2560 0 -2560 0 0
-2560z m3839 1983 c0 -35 -1 -36 -10 -14 -5 14 -7 31 -5 38 10 24 16 13 15
-24z m-337 9 c-1 -7 -5 -40 -9 -73 l-6 -59 28 0 27 0 -4 73 -3 72 63 3 62 3 0
-30 c0 -16 -4 -33 -10 -36 -11 -7 -13 -54 -4 -79 3 -9 12 -16 20 -16 18 0 34
31 25 50 -5 8 -11 36 -14 63 l-7 47 58 0 57 0 -3 -75 -4 -75 26 0 c14 0 26 5
26 11 0 5 5 7 10 4 6 -4 10 -58 10 -131 0 -111 -2 -124 -17 -125 -15 -1 -16
-2 -2 -6 12 -3 18 -21 23 -65 10 -95 7 -173 -6 -186 -9 -9 -9 -12 0 -12 8 0
12 -21 12 -65 l0 -65 -47 0 c-66 0 -123 -11 -123 -22 0 -6 7 -7 16 -4 9 4 23
1 30 -5 10 -8 27 -8 65 0 29 6 54 10 56 7 7 -6 22 -508 23 -718 l0 -188 -46 0
c-42 0 -45 1 -38 22 4 13 13 27 21 33 7 5 15 19 18 30 3 11 10 41 15 67 6 26
10 62 8 80 -2 27 -8 34 -28 36 -36 5 -70 44 -63 73 4 13 10 27 15 30 4 3 3 30
-3 60 -7 30 -13 65 -14 79 -1 14 -5 33 -9 42 -5 12 6 42 33 93 23 41 41 85 41
97 -1 17 -4 13 -14 -14 -8 -21 -22 -50 -32 -64 -11 -15 -27 -38 -36 -52 l-17
-25 -6 26 c-4 14 -27 42 -51 62 -34 28 -44 43 -44 66 0 20 5 29 16 29 14 0 14
3 4 15 -8 10 -11 33 -8 65 5 48 3 52 -30 81 -23 20 -41 29 -53 25 -11 -3 -28
-9 -39 -12 -13 -4 -20 -2 -20 7 0 20 -57 79 -87 90 -13 5 -37 9 -52 9 -22 0
-31 9 -54 53 -35 70 -61 94 -82 77 -12 -10 -16 -9 -21 4 -12 30 -66 48 -114
37 -34 -8 -48 -6 -67 6 -17 11 -21 19 -14 26 20 20 11 31 -8 13 -19 -17 -21
-17 -40 1 -12 11 -27 36 -34 56 -12 36 -13 37 -35 21 -13 -9 -21 -22 -18 -30
11 -28 -4 -13 -20 21 -9 19 -20 33 -24 30 -13 -8 -18 -54 -6 -58 6 -2 8 -8 4
-12 -12 -13 -86 71 -91 102 -4 26 -5 27 -12 6 -4 -12 -25 -33 -46 -47 -21 -15
-39 -33 -39 -41 0 -8 -9 -15 -20 -15 -11 0 -20 4 -20 9 0 5 -9 7 -20 4 -11 -3
-20 -10 -20 -15 0 -5 -4 -6 -10 -3 -5 3 -10 14 -10 24 0 9 -7 26 -15 37 -14
18 -14 17 -9 -13 8 -41 -7 -43 -39 -7 -49 59 -140 66 -130 10 5 -22 8 -24 32
-15 l26 9 -24 -20 -24 -20 20 -101 c18 -90 19 -99 4 -94 -10 4 -8 -2 7 -15 12
-11 22 -30 22 -40 0 -11 5 -40 12 -65 12 -46 7 -63 -23 -69 -8 -2 -21 -6 -29
-9 -26 -11 -164 -49 -182 -50 -10 -1 -18 -4 -18 -7 0 -3 -14 -6 -30 -7 -17 -1
-38 -7 -48 -12 -12 -7 2 -9 47 -6 81 5 68 -6 -31 -29 -43 -10 -78 -21 -78 -26
0 -4 -36 -7 -81 -5 -69 3 -83 1 -100 -16 -27 -27 -24 -41 9 -38 15 1 38 1 52
0 23 -2 24 -3 7 -15 -13 -10 -14 -15 -5 -18 6 -2 -27 -10 -75 -17 -104 -14
-117 -18 -111 -36 3 -7 0 -16 -5 -20 -6 -3 -9 -11 -5 -16 3 -6 -4 -7 -19 -4
-17 5 -26 2 -30 -9 -5 -13 0 -15 27 -13 19 1 32 5 30 8 -4 6 51 19 87 20 11 0
15 7 12 17 -3 13 3 17 24 19 25 1 26 0 10 -12 -10 -7 -17 -17 -15 -21 2 -4
-12 -12 -31 -17 -19 -5 -44 -15 -55 -23 -11 -8 -34 -14 -51 -15 -16 0 -24 -3
-16 -6 11 -5 11 -7 0 -14 -10 -6 -7 -9 10 -9 46 0 5 -17 -46 -19 -16 -1 -23
-9 -28 -32 -4 -17 -3 -34 1 -38 18 -13 13 -32 -11 -41 -27 -10 -27 -9 -31 -57
-1 -18 2 -33 7 -33 20 0 -3 -21 -39 -36 -27 -11 -33 -17 -23 -23 11 -7 11 -10
-1 -17 -7 -5 -22 -22 -32 -38 -16 -26 -17 -28 -2 -23 10 4 15 3 11 -3 -3 -6 0
-10 7 -10 9 0 9 -3 -2 -10 -8 -5 -29 -10 -46 -10 -23 0 -34 6 -42 25 -17 38
-39 30 -62 -21 -25 -59 -26 -86 -2 -77 14 6 15 4 5 -9 -15 -18 -7 -29 15 -21
10 2 5 -4 -10 -13 -31 -21 -36 -34 -13 -34 12 0 14 -7 9 -27 -4 -21 -3 -24 5
-13 20 29 24 -1 7 -55 -10 -30 -16 -60 -14 -67 4 -12 44 61 40 74 -1 4 11 5
28 3 20 -2 27 0 24 9 -3 7 6 26 19 42 13 16 30 46 38 67 17 49 172 207 202
208 93 2 153 11 222 33 44 14 85 26 90 26 6 0 16 5 23 12 6 6 19 13 27 14 28
4 105 54 183 120 42 36 100 79 127 95 48 28 123 55 131 46 4 -4 29 -108 64
-267 25 -112 37 -139 46 -102 7 25 24 30 24 6 0 -8 4 -13 10 -9 5 3 7 12 3 20
-3 9 1 15 11 15 9 0 16 8 16 17 0 12 8 7 24 -16 15 -20 22 -40 18 -53 -3 -11
1 -24 9 -29 11 -6 11 -11 1 -21 -14 -14 -16 -48 -3 -48 5 0 40 18 78 39 38 22
109 52 159 67 75 23 106 28 199 27 69 0 134 -6 175 -16 90 -23 235 -97 295
-150 50 -45 50 -45 34 -73 -10 -19 -14 -44 -11 -71 4 -46 22 -60 22 -19 0 28
15 42 26 24 4 -6 7 -40 6 -73 -2 -61 -1 -62 23 -60 25 3 25 3 27 -83 1 -48 1
-102 -1 -120 -1 -17 3 -32 9 -32 5 0 10 -12 10 -27 1 -39 16 -11 25 45 7 44
11 48 35 32 13 -8 13 -13 2 -31 -7 -11 -11 -23 -8 -26 3 -3 0 -15 -6 -26 -13
-25 -19 -117 -7 -117 5 0 20 38 34 85 38 125 49 121 42 -16 -12 -214 -67 -340
-212 -484 -149 -149 -305 -215 -510 -215 -163 0 -320 50 -432 138 -26 21 -54
42 -62 46 -17 11 -41 51 219 -368 l214 -346 193 0 193 0 0 -194 c0 -119 -4
-197 -10 -201 -5 -3 -10 -13 -10 -21 0 -13 -34 -54 -45 -54 -2 0 -15 -11 -29
-25 l-25 -25 -891 0 -890 0 0 260 0 260 743 1 742 0 -109 23 c-114 23 -136 37
-136 82 0 13 -11 35 -24 51 -20 24 -26 25 -40 14 -20 -17 -21 -51 -1 -77 22
-29 18 -35 -17 -30 -178 29 -445 80 -452 87 -6 5 -1 9 12 9 18 0 22 6 22 31 0
31 1 31 38 24 20 -3 59 -14 85 -22 38 -12 51 -13 60 -4 9 10 5 18 -18 38 -52
43 -115 66 -195 71 -70 4 -158 25 -170 40 -3 4 -14 12 -25 18 -11 6 -21 20
-23 32 -2 11 -12 22 -22 25 -11 3 -22 18 -26 33 -4 16 -14 34 -22 40 -20 15
-12 26 43 53 26 13 49 29 52 37 3 8 11 14 18 14 19 0 104 79 133 124 14 23 33
47 44 54 10 7 18 19 18 26 0 7 13 22 30 34 17 13 30 32 30 44 0 12 11 36 25
54 14 18 25 37 25 43 0 6 5 11 10 11 6 0 10 12 10 26 0 17 4 23 12 18 8 -5 9
-2 4 12 -4 10 -15 55 -23 99 -27 148 -2 313 68 450 21 41 34 75 28 75 -5 0
-80 -16 -166 -35 -86 -19 -158 -35 -160 -35 -8 0 -2 -39 7 -45 6 -3 10 -19 10
-36 0 -16 5 -29 12 -29 6 0 4 -7 -5 -18 -10 -10 -17 -25 -17 -33 0 -12 -2 -12
-9 0 -6 9 -19 12 -37 8 -37 -7 -61 2 -42 15 9 7 8 8 -5 4 -19 -6 -128 21 -137
34 -9 13 -53 24 -46 11 4 -6 0 -11 -8 -11 -9 0 -16 5 -16 10 0 14 -52 12 -123
-5 -34 -8 -129 -28 -211 -45 -102 -20 -152 -34 -160 -46 -12 -16 -13 -15 -20
2 -7 18 -9 17 -17 -4 -5 -13 -6 -29 -2 -35 4 -7 6 -24 4 -39 -1 -16 2 -28 7
-28 6 0 9 -44 9 -109 -1 -60 -5 -104 -8 -99 -4 6 -10 5 -15 -3 -4 -7 -3 -14 4
-17 7 -2 12 -13 13 -25 0 -14 2 -17 6 -7 2 8 8 24 13 35 5 11 16 53 24 94 17
79 29 101 55 101 14 0 16 -16 16 -117 0 -114 1 -120 33 -184 35 -69 64 -103
117 -134 19 -11 10 0 -22 29 -34 30 -64 70 -85 114 -31 62 -33 74 -33 167 0
98 1 101 38 162 47 77 88 104 171 110 70 6 84 -5 66 -51 -8 -22 -59 -56 -85
-56 -6 0 -23 -6 -38 -12 -22 -11 -27 -20 -27 -50 0 -41 11 -48 58 -37 29 6 34
4 47 -21 8 -16 15 -36 15 -45 0 -8 5 -15 11 -15 6 0 9 -6 6 -14 -3 -7 0 -19 6
-25 8 -8 6 -16 -6 -29 -9 -10 -14 -22 -10 -25 3 -4 -2 -14 -13 -22 -18 -13
-17 -14 13 -21 18 -3 30 -10 27 -15 -2 -5 8 -11 23 -15 15 -4 33 -10 38 -14 6
-4 19 -6 30 -5 47 6 126 25 142 34 53 29 85 40 73 27 -9 -11 -8 -16 5 -23 38
-22 -96 -150 -182 -173 -42 -12 -181 -10 -218 4 -11 4 -7 0 8 -9 141 -82 403
52 448 229 13 54 55 104 72 87 8 -8 4 -18 -15 -38 -30 -33 -47 -94 -19 -69 30
27 68 37 81 20 8 -9 9 -18 3 -26 -5 -7 -62 -86 -126 -174 l-116 -162 -63 -17
c-35 -9 -79 -15 -98 -13 l-35 3 37 18 c43 20 74 57 57 68 -6 4 -23 1 -38 -7
-14 -7 -38 -16 -53 -19 -14 -3 -41 -17 -58 -31 -30 -26 -33 -26 -85 -15 -88
20 -173 69 -245 140 -117 118 -166 246 -157 411 3 52 12 115 21 139 9 24 15
45 14 46 -2 1 -57 -10 -123 -25 -66 -15 -123 -24 -126 -21 -4 3 -16 49 -28
101 -11 52 -88 392 -169 755 -132 585 -147 661 -132 667 23 9 1506 338 1524
338 8 0 16 -8 19 -17 2 -10 2 46 -1 125 l-5 142 44 0 c24 0 60 3 80 6 25 4 40
1 52 -10 20 -20 27 -20 27 -1 0 12 14 15 65 15 l66 0 -26 -27 c-14 -16 -28
-36 -31 -45 -8 -27 -24 -22 -24 7 0 16 -6 25 -15 25 -8 0 -15 -4 -15 -10 0 -5
-7 -10 -16 -10 -12 0 -11 -5 7 -19 l24 -20 -25 -10 c-16 -6 -19 -10 -8 -10 22
-1 32 -35 18 -61 -12 -23 -6 -40 14 -40 8 0 14 11 14 27 0 15 5 29 11 31 7 2
8 14 4 30 -5 24 -4 25 9 14 14 -11 17 -8 26 18 6 17 18 30 27 30 9 0 14 4 11
9 -3 5 1 11 9 15 8 3 15 12 15 21 0 8 6 16 13 17 20 2 31 5 47 11 8 3 113 8
234 10 l219 5 -6 -49 c-5 -44 -4 -49 14 -49 18 0 19 5 13 50 l-7 50 72 0 c69
0 71 -1 67 -22 -22 -109 -17 -139 22 -129 24 7 27 12 24 46 -2 22 -9 54 -17
71 l-14 33 42 4 c67 6 92 3 89 -11z m-772 -392 c0 -5 -2 -10 -4 -10 -3 0 -8 5
-11 10 -3 6 -1 10 4 10 6 0 11 -4 11 -10z m-10 -35 c19 -19 30 -35 25 -35 -5
0 -4 -5 3 -12 17 -17 15 -35 -4 -42 -19 -7 -47 12 -38 25 3 5 1 9 -4 9 -6 0
-24 12 -40 26 -26 23 -28 30 -19 45 17 28 39 23 77 -16z m62 -29 c3 -14 1 -31
-3 -38 -5 -7 -9 -8 -10 -3 0 6 -3 22 -5 38 -6 33 12 36 18 3z m392 -65 c31 -6
49 -31 23 -31 -8 0 -17 -7 -21 -15 -8 -21 -33 -19 -46 5 -6 11 -16 18 -22 14
-10 -6 -28 12 -28 29 0 8 52 8 94 -2z m41 -51 c-3 -5 -11 -10 -16 -10 -6 0 -7
5 -4 10 3 6 11 10 16 10 6 0 7 -4 4 -10z m-745 -34 c0 -3 -4 -8 -10 -11 -5 -3
-10 -1 -10 4 0 6 5 11 10 11 6 0 10 -2 10 -4z m963 -87 c13 -6 31 -26 40 -45
16 -33 16 -33 -12 -53 l-28 -20 -32 48 c-34 53 -37 67 -18 74 19 8 24 8 50 -4z
m157 -99 c0 -5 -2 -10 -4 -10 -3 0 -8 5 -11 10 -3 6 -1 10 4 10 6 0 11 -4 11
-10z m-1150 -39 c0 -4 -33 -13 -72 -19 -40 -7 -84 -15 -98 -19 -14 -3 -22 -2
-17 2 9 11 169 53 180 48 4 -2 7 -8 7 -12z m-10 -69 c0 -10 -72 -34 -79 -26
-3 3 5 7 17 11 12 3 19 9 16 14 -3 5 6 9 20 9 14 0 26 -4 26 -8z m-153 -29 c6
-16 -105 -12 -132 5 -17 10 -7 11 54 9 46 -1 76 -7 78 -14z m-185 -14 c-15 -6
-30 -5 -40 1 -13 7 -8 9 23 9 35 0 37 -1 17 -10z m923 -49 c-3 -5 -12 -10 -18
-10 -7 0 -6 4 3 10 19 12 23 12 15 0z m-1050 -60 c-16 -7 -12 -9 20 -10 35 -1
37 -2 17 -11 -13 -5 -34 -7 -45 -5 -65 12 -71 36 -9 35 30 0 33 -2 17 -9z
m-55 -28 c0 -5 -7 -9 -15 -9 -8 0 -12 4 -9 9 3 4 9 8 15 8 5 0 9 -4 9 -8z
m1570 -2 c0 -5 -4 -10 -10 -10 -5 0 -10 5 -10 10 0 6 5 10 10 10 6 0 10 -4 10
-10z m-862 -144 c-2 -22 -8 -41 -14 -43 -17 -6 -54 51 -57 87 -1 16 -5 30 -9
30 -16 0 -7 19 10 23 10 2 28 -8 45 -27 22 -25 27 -39 25 -70z m12 -176 c6
-11 7 -20 3 -20 -5 0 -14 9 -21 20 -7 11 -8 20 -2 20 5 0 14 -9 20 -20z m1158
-321 c44 13 102 2 102 -19 0 -26 -125 -39 -148 -16 -13 13 -13 17 -2 32 8 9
16 12 18 6 2 -6 14 -7 30 -3z m-37 -186 c-12 -20 -14 -14 -5 12 4 9 9 14 11
11 3 -2 0 -13 -6 -23z m-1890 -370 c5 -27 3 -33 -10 -33 -20 1 -54 46 -46 61
4 5 16 9 28 7 15 -2 23 -13 28 -35z m403 -14 c-8 -13 -21 -11 -27 5 -4 10 0
12 14 9 10 -3 16 -9 13 -14z m35 -22 c13 -16 5 -27 -21 -27 -20 0 -21 1 -12
24 7 20 18 20 33 3z m-129 -112 c0 -8 -7 -15 -16 -15 -14 0 -14 3 -4 15 7 8
14 15 16 15 2 0 4 -7 4 -15z"/>
<path d="M3066 4481 c-4 -7 -5 -15 -2 -18 9 -9 19 4 14 18 -4 11 -6 11 -12 0z"/>
<path d="M2940 4471 c0 -5 5 -13 10 -16 6 -3 10 -2 10 4 0 5 -4 13 -10 16 -5
3 -10 2 -10 -4z"/>
<path d="M2814 4439 c-3 -6 -1 -16 5 -22 8 -8 11 -5 11 11 0 24 -5 28 -16 11z"/>
<path d="M2372 4418 c-7 -7 -12 -19 -12 -27 1 -14 3 -13 14 1 10 14 15 15 25
5 10 -9 12 -8 9 7 -4 24 -20 30 -36 14z"/>
<path d="M2775 4300 c-3 -5 1 -10 9 -10 8 0 18 5 21 10 3 6 -1 10 -9 10 -8 0
-18 -4 -21 -10z"/>
<path d="M3732 4158 c-24 -5 -42 -11 -40 -13 7 -7 88 8 88 16 0 5 -1 9 -2 8
-2 -1 -23 -6 -46 -11z"/>
<path d="M3645 4140 c-19 -8 -19 -9 2 -9 12 -1 25 4 28 9 7 12 -2 12 -30 0z"/>
<path d="M3588 4133 c7 -3 16 -2 19 1 4 3 -2 6 -13 5 -11 0 -14 -3 -6 -6z"/>
<path d="M1945 3920 c3 -5 8 -10 11 -10 2 0 4 5 4 10 0 6 -5 10 -11 10 -5 0
-7 -4 -4 -10z"/>
<path d="M3745 3910 c-3 -5 1 -10 9 -10 8 0 18 5 21 10 3 6 -1 10 -9 10 -8 0
-18 -4 -21 -10z"/>
<path d="M2214 3899 c-4 -6 -20 -9 -39 -6 -27 4 -38 0 -59 -22 -28 -29 -34
-51 -13 -51 35 0 106 35 121 62 16 26 6 42 -10 17z"/>
<path d="M3508 3883 c7 -3 16 -2 19 1 4 3 -2 6 -13 5 -11 0 -14 -3 -6 -6z"/>
<path d="M2045 3849 c-11 -17 1 -21 15 -4 8 9 8 15 2 15 -6 0 -14 -5 -17 -11z"/>
<path d="M2050 3820 c-8 -5 -10 -10 -5 -10 6 0 17 5 25 10 8 5 11 10 5 10 -5
0 -17 -5 -25 -10z"/>
<path d="M2030 3788 c-16 -6 -20 -12 -12 -15 18 -7 62 5 62 17 0 12 -18 12
-50 -2z"/>
<path d="M3720 3716 c0 -10 39 -46 51 -46 5 0 7 5 4 10 -14 22 15 8 34 -16 14
-18 21 -22 21 -11 0 27 -34 58 -72 64 -21 3 -38 3 -38 -1z"/>
<path d="M1566 3437 c-16 -11 -16 -15 -3 -25 14 -12 47 -7 47 8 0 19 -27 29
-44 17z"/>
<path d="M1505 3386 c-44 -38 -41 -56 6 -54 21 1 40 6 40 12 1 6 3 23 5 39 4
34 -13 35 -51 3z"/>
<path d="M1620 3399 c0 -5 5 -7 10 -4 6 3 10 8 10 11 0 2 -4 4 -10 4 -5 0 -10
-5 -10 -11z"/>
<path d="M1476 3308 c4 -6 3 -8 -4 -5 -22 14 -44 -5 -39 -33 3 -15 1 -32 -6
-39 -7 -7 -7 -11 0 -11 14 0 72 57 65 65 -3 3 4 8 16 12 32 8 27 23 -9 23 -20
0 -28 -4 -23 -12z"/>
<path d="M1512 3259 c-13 -16 -22 -34 -20 -41 2 -6 15 5 27 26 28 45 24 54 -7
15z"/>
<path d="M1460 3100 c-9 -6 -10 -10 -3 -10 6 0 15 5 18 10 8 12 4 12 -15 0z"/>
<path d="M1417 3072 c1 -8 3 -16 3 -18 0 -11 19 -2 24 12 4 11 2 15 -8 11 -8
-3 -17 -3 -19 1 -2 4 -2 1 0 -6z"/>
<path d="M1386 3045 c-3 -8 -1 -15 3 -15 5 0 11 7 15 15 3 8 1 15 -3 15 -5 0
-11 -7 -15 -15z"/>
<path d="M1457 3047 c-3 -8 -1 -20 5 -28 8 -11 9 -11 5 3 -3 9 -1 18 6 21 8 2
8 5 0 10 -6 4 -13 1 -16 -6z"/>
<path d="M2630 3020 c0 -5 4 -10 9 -10 5 0 18 -3 28 -6 16 -5 16 -4 -1 10 -23
18 -36 20 -36 6z"/>
<path d="M2643 2871 c3 -31 27 -41 27 -11 0 12 -4 19 -9 16 -5 -4 -12 0 -15 6
-3 7 -4 2 -3 -11z"/>
<path d="M1413 2703 c-3 -10 -8 -22 -11 -27 -3 -5 0 -6 5 -3 11 7 25 47 17 47
-3 0 -7 -8 -11 -17z"/>
<path d="M1436 2703 c-6 -14 -5 -15 5 -6 7 7 10 15 7 18 -3 3 -9 -2 -12 -12z"/>
<path d="M3017 2498 c-71 -15 -197 -92 -197 -121 0 -6 10 -1 23 10 41 37 50
39 45 9 l-6 -28 32 31 c39 37 50 32 30 -14 -41 -99 22 -195 129 -195 41 0 52
5 91 43 56 53 67 99 38 157 -11 22 -15 40 -9 40 5 0 48 -21 94 -46 77 -42 113
-50 113 -25 0 5 -15 18 -32 29 -18 11 -49 32 -68 46 -37 27 -149 64 -210 69
-19 2 -52 0 -73 -5z m-7 -148 c24 0 26 -13 5 -30 -8 -7 -15 -18 -15 -24 0 -16
52 -62 65 -58 6 2 2 -4 -7 -14 -16 -16 -18 -16 -42 0 -39 25 -59 71 -51 119 6
32 9 37 17 24 5 -9 18 -17 28 -17z m166 -6 c10 -8 13 -13 7 -9 -9 4 -13 -1
-13 -14 0 -16 -6 -21 -25 -21 -27 0 -41 20 -31 45 7 20 37 19 62 -1z m-35
-105 c-12 -11 -21 -16 -21 -12 0 4 -5 1 -10 -7 -8 -12 -10 -11 -10 8 0 12 6
22 14 22 7 0 20 7 27 16 9 11 15 12 17 4 2 -6 -5 -20 -17 -31z"/>
<path d="M2948 937 c-34 -13 -37 -37 -5 -37 16 0 28 9 35 25 13 27 10 28 -30
12z"/>
<path d="M2720 790 c0 -5 4 -10 9 -10 6 0 13 5 16 10 3 6 -1 10 -9 10 -9 0
-16 -4 -16 -10z"/>
</g>
</svg>
