<svg width="740" height="600" viewBox="0 0 740 600" fill="none" xmlns="http://www.w3.org/2000/svg">
<g clip-path="url(#clip0_87_5797)">
<rect width="740" height="600" fill="#1C1C1C"/>
<path d="M488.406 114.546C490.201 99.0568 479.099 85.045 463.61 83.2501C448.12 81.4552 434.108 92.5569 432.314 108.046L426.1 161.665L482.193 168.164L488.406 114.546Z" fill="black"/>
<path d="M241.68 158.462C235.829 144.908 220.098 138.663 206.544 144.514C192.99 150.365 186.745 166.096 192.596 179.65L212.849 226.569L261.933 205.381L241.68 158.462Z" fill="black"/>
<path d="M488.224 116.101L437.548 106.138L440.245 122.334L487.255 124.457L488.224 116.101Z" fill="black"/>
<path d="M242.271 159.827L195.993 175.613L205.862 187.623L245.427 167.139L242.271 159.827Z" fill="black"/>
<mask id="mask0_87_5797" style="mask-type:alpha" maskUnits="userSpaceOnUse" x="437" y="106" width="52" height="19">
<path d="M488.094 116.309L437.763 106.656L440.652 122.772L487.139 124.554L488.094 116.309Z" fill="black"/>
</mask>
<g mask="url(#mask0_87_5797)">
<path d="M478.483 117.863C471.06 111.173 460.155 110.074 451.547 115.147C456.53 126.16 471.525 127.829 478.999 118.328L478.483 117.863Z" fill="white"/>
<circle cx="7.83795" cy="7.83795" r="7.83795" transform="matrix(-0.993353 -0.115107 -0.115107 0.993353 471.852 114.504)" fill="black"/>
</g>
<mask id="mask1_87_5797" style="mask-type:alpha" maskUnits="userSpaceOnUse" x="196" y="160" width="50" height="28">
<path d="M242.252 160.055L196.403 175.932L206.392 187.786L245.366 167.269L242.252 160.055Z" fill="black"/>
</mask>
<g mask="url(#mask1_87_5797)">
<path d="M234.207 165.533C225.027 162.681 215.206 167.42 211.725 176.381C220.664 182.367 232.834 177.675 235.441 167.237L235.747 166.012L234.207 165.533Z" fill="white"/>
<circle cx="7.42069" cy="7.42069" r="7.42069" transform="matrix(-0.918113 0.396318 0.396318 0.918113 227.902 162.215)" fill="black"/>
</g>
<rect width="17.4387" height="18.2691" rx="8.71933" transform="matrix(-0.993353 -0.115107 -0.115107 0.993353 440.945 105.707)" fill="#C72523"/>
<rect width="16.5103" height="17.2965" rx="8.25515" transform="matrix(-0.918113 0.396318 0.396318 0.918113 198.57 173.65)" fill="#C72523"/>
<path d="M430.656 107.857C429.357 107.884 426.589 108.911 425.915 112.805C425.242 116.699 427.903 118.828 429.318 119.406" stroke="white" stroke-width="0.641107"/>
<path d="M191.152 180.275C190.099 180.912 188.314 183.063 189.603 186.575C190.891 190.088 194.081 190.576 195.515 190.381" stroke="white" stroke-width="0.641107"/>
<path d="M494.889 482.788L429.093 547.638H312.647L285.193 513.083L276.672 398.531L207.562 213.922V182.68H233.597L313.121 344.568L323.061 273.091L346.729 264.571L357.616 249.424H380.337L402.112 312.38L429.093 141.499L445.187 123.984L468.855 141.499L445.187 344.568L454.654 434.032L476.428 398.531V353.088L503.41 344.568L524.711 394.744L494.889 482.788Z" fill="black"/>
<path d="M402.117 311.904L411.11 354.98L403.537 392.375L390.283 400.895L376.082 390.955" stroke="white" stroke-width="0.641107"/>
<rect x="360.379" y="371.191" width="15.1474" height="28.4013" transform="rotate(12.4534 360.379 371.191)" fill="#EBEBEB"/>
<rect x="388.5" y="362.473" width="15.9674" height="28.4013" transform="rotate(7.67402 388.5 362.473)" fill="#EBEBEB"/>
<path d="M515.363 324.12C512.58 311.007 499.694 302.633 486.582 305.416C473.469 308.199 465.095 321.085 467.878 334.198L477.512 379.588L524.997 369.51L515.363 324.12Z" fill="black"/>
<path d="M515.643 325.443L471.623 331.214L478.259 343.671L517.144 332.516L515.643 325.443Z" fill="black"/>
<mask id="mask2_87_5797" style="mask-type:alpha" maskUnits="userSpaceOnUse" x="471" y="325" width="47" height="19">
<path d="M515.591 325.629L471.937 331.559L478.707 343.898L517.073 332.608L515.591 325.629Z" fill="black"/>
</mask>
<g mask="url(#mask2_87_5797)">
<path d="M508.726 329.763C500.918 325.04 490.739 327.232 485.487 334.695L485.846 334.987C493.357 341.101 504.613 338.53 508.726 329.763Z" fill="white"/>
<circle cx="6.7379" cy="6.7379" r="6.7379" transform="matrix(-0.978211 0.207612 0.207612 0.978211 504.836 324.996)" fill="black"/>
</g>
<rect width="14.9912" height="15.705" rx="7.49558" transform="matrix(-0.978211 0.207612 0.207612 0.978211 474.27 329.92)" fill="#C72523"/>
<path d="M466.473 334.49C465.421 334.868 463.447 336.464 463.966 339.821C464.484 343.178 467.236 344.184 468.548 344.267" stroke="white" stroke-width="0.641107"/>
<path d="M368.283 387.369C366.312 396.725 372.299 405.906 381.654 407.877C391.01 409.847 400.191 403.86 402.162 394.505L409.682 358.802L375.803 351.666L368.283 387.369Z" fill="black"/>
<path d="M316.657 405.159L362.892 421.072L362.462 405.534L318.648 397.449L316.657 405.159Z" fill="black"/>
<path d="M368.732 385.218L401.152 394.764L400.371 384.048L369.866 379.832L368.732 385.218Z" fill="black"/>
<mask id="mask3_87_5797" style="mask-type:alpha" maskUnits="userSpaceOnUse" x="368" y="379" width="34" height="16">
<path d="M368.828 385.097L401.042 394.42L400.132 383.745L369.948 379.782L368.828 385.097Z" fill="black"/>
</mask>
<g mask="url(#mask3_87_5797)">
<path d="M374.875 384.347C379.213 388.935 385.862 390.51 391.797 388.355L392.571 388.074C389.727 381.238 381.061 379.135 375.399 383.905L374.875 384.347Z" fill="white"/>
<circle cx="5.12904" cy="5.12904" r="5.12904" transform="matrix(0.97853 0.206105 0.206105 -0.97853 380.105 389.6)" fill="black"/>
</g>
<rect width="11.4116" height="11.955" rx="5.7058" transform="matrix(0.97853 0.206105 0.206105 -0.97853 398.918 394.857)" fill="#C72523"/>
<path d="M405.746 394.07C406.595 394.131 408.46 393.629 409.134 391.132C409.807 388.635 408.201 387.088 407.314 386.626" stroke="white" stroke-width="0.641107"/>
<path d="M347.675 265.518L366.136 283.032L384.597 356.875L371.816 407.051L351.935 414.151L335.368 390.01L347.675 350.248L329.688 311.433" stroke="white" stroke-width="0.641107"/>
<path d="M331.169 394.828C328.265 406.075 335.028 417.548 346.276 420.452C357.563 423.367 369.067 416.546 371.926 405.245L381.288 368.234L340.925 357.047L331.169 394.828Z" fill="black"/>
<mask id="mask4_87_5797" style="mask-type:alpha" maskUnits="userSpaceOnUse" x="331" y="388" width="36" height="19">
<path d="M331.463 393.99L366.917 406.008L366.439 394.058L332.979 388.119L331.463 393.99Z" fill="black"/>
</mask>
<g mask="url(#mask4_87_5797)">
<path d="M338.251 393.446C342.702 399.336 350.568 401.479 357.392 398.66L357.797 398.493C355.125 391.073 346.195 388.134 339.638 392.518L338.251 393.446Z" fill="white"/>
<path d="M353.519 394.218C354.309 391.156 352.468 388.033 349.407 387.243C346.345 386.452 343.222 388.293 342.432 391.355C341.641 394.416 343.482 397.539 346.544 398.33C349.605 399.121 352.728 397.28 353.519 394.218Z" fill="black"/>
</g>
<rect width="12.7386" height="13.3452" rx="6.36931" transform="matrix(0.968238 0.250029 0.250029 -0.968238 364.52 406.377)" fill="#C72523"/>
<path d="M372.172 405.838C373.115 405.949 375.221 405.482 376.097 402.732C376.974 399.981 375.261 398.175 374.295 397.615" stroke="white" stroke-width="0.641107"/>
<path d="M311.503 531.334H431.39V633.911H297.719L311.503 531.334Z" fill="black"/>
</g>
<defs>
<clipPath id="clip0_87_5797">
<rect width="740" height="600" fill="white"/>
</clipPath>
</defs>
</svg>
