<?xml version="1.0" encoding="utf-8"?>
<!-- Generator: Adobe Illustrator 27.3.1, SVG Export Plug-In . SVG Version: 6.00 Build 0)  -->
<svg version="1.1" id="Слой_1" xmlns="http://www.w3.org/2000/svg" xmlns:xlink="http://www.w3.org/1999/xlink" x="0px" y="0px"
	 viewBox="0 0 613 527" style="enable-background:new 0 0 613 527;" xml:space="preserve">
<style type="text/css">
	.st0{fill:#EC1C24;}
	.st1{fill:#FFFFFF;}
	.st2{fill:#2E16B1;}
	.st3{fill:#6BE400;}
</style>
<g>
	<g>
		<g>
			<path class="st0" d="M195.2,42.7h15.7h36.4h15.6v51.5c0,21.5-12.5,33.9-33.8,33.9c-21.4,0-33.9-12.4-33.9-33.9V42.7z"/>
			<g>
				<g>
					<rect x="214.1" y="95.5" class="st0" width="7.4" height="41.5"/>
					<path class="st0" d="M210.7,121.6h10.8V137h-26.2v0C195.2,128.5,202.2,121.6,210.7,121.6z"/>
				</g>
				<g>
					
						<rect x="236.4" y="95.5" transform="matrix(-1 -4.471324e-11 4.471324e-11 -1 480.2177 232.5474)" class="st0" width="7.4" height="41.5"/>
					<path class="st0" d="M247.2,121.6h-10.8V137h26.2v0C262.7,128.5,255.8,121.6,247.2,121.6z"/>
				</g>
			</g>
			<g>
				<path class="st1" d="M224,83.9c0,0.7-10.6,0.7-10.6,0c0-4.6,2.4-8.3,5.4-8.3C221.6,75.6,224,79.3,224,83.9z"/>
				<path class="st1" d="M244.7,84c0,0.7-10.6,0.7-10.6,0c0-4.6,2.4-8.3,5.4-8.3C242.3,75.7,244.7,79.4,244.7,84z"/>
			</g>
		</g>
		<g>
			<path class="st0" d="M194.8,411.2v51.5c0,21.5,12.5,33.9,33.9,33.9c3.3,0,6.3-0.3,9.1-0.9c5.5-1.1,10.2-3.3,14-6.4
				c6.9-5.8,10.7-14.8,10.7-26.6v-51.5H194.8z"/>
			<g>
				<rect x="213.7" y="480.7" class="st0" width="7.4" height="41.5"/>
				<path class="st0" d="M210.3,506.8h10.8v15.4h-26.2l0,0C194.9,513.7,201.8,506.8,210.3,506.8z"/>
			</g>
			<polygon class="st0" points="290.4,490.6 286.6,496.6 277.4,490.8 273.6,488.2 252.1,473.7 256.2,467.6 277.6,482 			"/>
			<path class="st0" d="M300.7,474.5l-10.3,16.1l-3.8,6l-9.1-5.8l-3.9-2.5l0.1-0.1l4-6.2l2.7-4.2c4.1-6.4,12.6-8.3,19.1-4.2
				L300.7,474.5z"/>
			<path class="st0" d="M286.1,450.8l-0.8-0.8l-5.3-5.3l-6.1,6.1c-1.6,1.6-2.5,3.6-2.6,5.7c-0.3,4.5,3,9.1,8.2,9.3
				c0.2,0,0.3,0,0.5,0c0.2,0,0.3,0,0.5,0C288,465.5,291.5,456.2,286.1,450.8z"/>
			<g>
				
					<ellipse transform="matrix(7.192066e-03 -1 1 7.192066e-03 -208.9884 666.0625)" class="st1" cx="230.9" cy="438.3" rx="8.3" ry="5.3"/>
				
					<ellipse transform="matrix(7.192066e-03 -1 1 7.192066e-03 -188.5574 686.9336)" class="st1" cx="251.7" cy="438.4" rx="8.3" ry="5.3"/>
			</g>
		</g>
		<g>
			<path class="st0" d="M219.3,316.7l-0.1-0.6h0l-1.5-7l8.6-16.1l-6.5-3.5l-9.6,17.9l-0.2,0.4l0,0.2l1.8,8.1h-2.5
				c-7.6,0-13.8,6.2-13.8,13.8v1.6h27l-0.8-3.6L219.3,316.7z"/>
			<path class="st0" d="M249.7,316.7l-0.1-0.6h0l-1.5-7l8.6-16.1l-6.5-3.5l-9.6,17.9l-0.2,0.4l0,0.2l1.8,8.1h-2.5
				c-7.6,0-13.8,6.2-13.8,13.8v1.6h27l-0.8-3.6L249.7,316.7z"/>
			<path class="st0" d="M185.2,232.3l15-4.7l34.8-10.9l14.9-4.6l15.4,49.2c6.4,20.6-1.8,36.1-22.2,42.4
				c-20.4,6.4-36.1-1.7-42.5-22.3L185.2,232.3z"/>
			<circle class="st0" cx="216.3" cy="214.9" r="3.5"/>
			<circle class="st0" cx="209.1" cy="212.7" r="4.9"/>
			<circle class="st0" cx="211.1" cy="203.4" r="8"/>
			<circle class="st0" cx="202.1" cy="194" r="9.1"/>
			<circle class="st0" cx="206.8" cy="180.8" r="13"/>
			<g>
				<path class="st1" d="M219.7,250.5c-0.1-0.7,10.4-2.5,10.5-1.8c0.8,4.5-1,8.6-3.9,9.1C223.5,258.3,220.5,255,219.7,250.5z"/>
				<path class="st1" d="M199.3,253.9c-0.1-0.7,10.4-2.5,10.5-1.8c0.8,4.5-1,8.6-3.9,9.1C203,261.7,200,258.5,199.3,253.9z"/>
			</g>
		</g>
	</g>
	<g>
		<g>
			<path class="st0" d="M339.2,25.8h15.7h36.4h15.6v51.5c0,21.5-12.5,33.9-33.8,33.9c-21.4,0-33.9-12.4-33.9-33.9V25.8z"/>
			<path class="st0" d="M372.9,20.6L372.9,20.6c-0.2,0-0.3,0-0.5,0c-7.3-0.3-10.7-9.4-5.5-14.6l5.9-5.9l5.9,5.9
				c5.2,5.2,1.9,14.3-5.5,14.6C373.3,20.5,373.1,20.6,372.9,20.6z"/>
			<g>
				<rect x="358.1" y="95.5" class="st0" width="7.4" height="41.5"/>
				<path class="st0" d="M354.7,121.6h10.8V137h-26.2v0C339.2,128.5,346.1,121.6,354.7,121.6z"/>
			</g>
			
				<rect x="416.5" y="46.7" transform="matrix(0.1407 0.9901 -0.9901 0.1407 427.7972 -358.1217)" class="st0" width="7.4" height="41.4"/>
			<path class="st0" d="M449.1,60.5l-0.4-3.2c-0.5-3.5-3.8-6-7.3-5.5l-7.9,1.1l2.3,15.9l7.9-1.1C447.2,67.3,449.6,64.1,449.1,60.5z"
				/>
			<path class="st0" d="M423.7,54.3l2.3,16l10-1.4l-3.7-26l0,0C426.8,43.7,422.9,48.8,423.7,54.3z"/>
			<g>
				<path class="st1" d="M367.9,52.6c0.1,0.7,0,1.5,0,2.1l-10.2,0.8c-0.2-0.7-0.3-1.4-0.3-2.2c-0.3-4.6,1.8-8.5,4.7-8.7
					C364.9,44.5,367.6,48.1,367.9,52.6z"/>
				<path class="st1" d="M388.6,51.2c0,0.7,0,1.4,0,2L378.3,54c-0.2-0.7-0.3-1.3-0.3-2.1c-0.3-4.6,1.8-8.5,4.7-8.7
					C385.6,43.1,388.2,46.6,388.6,51.2z"/>
			</g>
		</g>
		<g>
			<path class="st0" d="M344.2,220.5h15.7h36.4H412v51.5c0,21.5-12.5,33.9-33.8,33.9c-21.4,0-33.9-12.4-33.9-33.9V220.5z"/>
			<g>
				<rect x="363.1" y="290.1" class="st0" width="7.4" height="41.5"/>
				<path class="st0" d="M359.7,316.1h10.8v15.4h-26.2v0C344.3,323,351.2,316.1,359.7,316.1z"/>
			</g>
			<g>
				
					<rect x="385.4" y="290.1" transform="matrix(-1 -4.520751e-11 4.520751e-11 -1 778.259 621.6352)" class="st0" width="7.4" height="41.5"/>
				<path class="st0" d="M396.3,316.1h-10.8v15.4h26.2v0C411.7,323,404.8,316.1,396.3,316.1z"/>
			</g>
			<path class="st1" d="M394.2,284L394.2,284c-0.1,0-0.1,0-0.2,0c-2.9-0.1-4.2-3.7-2.1-5.7l2.3-2.3l2.3,2.3c2,2,0.7,5.6-2.1,5.7
				C394.3,284,394.3,284,394.2,284z"/>
			<g>
				<path class="st1" d="M381.9,265.1c0-0.7,10.6-0.7,10.6,0c0,4.6-2.4,8.3-5.4,8.3C384.3,273.4,381.9,269.7,381.9,265.1z"/>
				<path class="st1" d="M361.2,265c0-0.7,10.6-0.7,10.6,0c0,4.6-2.4,8.3-5.4,8.3S361.2,269.6,361.2,265z"/>
			</g>
		</g>
		<g>
			<path class="st0" d="M332,435.8l28.1,43.2c11.7,18.1,29,21.6,46.9,9.9c2.7-1.8,5.1-3.7,7.2-5.7c4-3.9,6.8-8.3,8.3-13
				c2.6-8.6,0.9-18.2-5.6-28.1l-28.1-43.2L332,435.8z"/>
			<rect x="368.2" y="480.7" class="st0" width="7.4" height="41.5"/>
			
				<rect x="422.2" y="436.7" transform="matrix(0.6372 0.7707 -0.7707 0.6372 515.3723 -158.3252)" class="st0" width="7.4" height="63.1"/>
			<path class="st0" d="M364.7,506.8h10.8v15.4h-26.2l0,0C349.3,513.7,356.2,506.8,364.7,506.8z"/>
			<path class="st0" d="M447.3,425.4l3.8,18.8l1.4,7l-10.6,2.2l-4.5,0.9l0-0.1l-1.5-7.2l-1-4.9c-1.5-7.5,3.3-14.7,10.8-16.3
				L447.3,425.4z"/>
			<path class="st0" d="M417.6,386.4l-0.5,1l-3.2,6.8l7.8,3.7c2.1,1,4.3,1.1,6.2,0.5c4.4-1.3,7.6-5.9,6-10.9c0-0.2-0.1-0.3-0.2-0.5
				c-0.1-0.2-0.1-0.3-0.2-0.5C430.8,379.6,420.8,379.5,417.6,386.4z"/>
			<g>
				
					<ellipse transform="matrix(0.8319 -0.5549 0.5549 0.8319 -180.5842 279.0932)" class="st1" cx="370.4" cy="437.6" rx="5.3" ry="8.3"/>
				
					<ellipse transform="matrix(0.8319 -0.5549 0.5549 0.8319 -171.3025 286.7269)" class="st1" cx="387.6" cy="426.1" rx="5.3" ry="8.3"/>
			</g>
		</g>
	</g>
	<g>
		<g>
			<path class="st0" d="M531.2,19.8L531.2,19.8c-0.1-0.1-0.3-0.1-0.4-0.2c-6.6-3.1-6.2-12.8,0.6-15.6l7.8-3.2l3.2,7.8
				c2.8,6.8-3.8,13.9-10.7,11.3C531.5,19.9,531.4,19.8,531.2,19.8z"/>
			<path class="st0" d="M492,35.6l15.2-3.9l35.3-8.9l15.1-3.8l12.7,49.9c5.3,20.9-3.8,35.9-24.4,41.2c-20.8,5.3-35.9-3.7-41.2-24.5
				L492,35.6z"/>
			<g>
				<g>
					<rect x="520.3" y="95.5" class="st0" width="7.4" height="41.5"/>
					<path class="st0" d="M516.9,121.6h10.8V137h-26.2v0C501.5,128.5,508.4,121.6,516.9,121.6z"/>
				</g>
				<g>
					
						<rect x="542.6" y="95.5" transform="matrix(-1 -4.471324e-11 4.471324e-11 -1 1092.6418 232.5474)" class="st0" width="7.4" height="41.5"/>
					<path class="st0" d="M553.5,121.6h-10.8V137h26.2v0C568.9,128.5,562,121.6,553.5,121.6z"/>
				</g>
			</g>
			<g>
				<path class="st1" d="M523.5,43.1c0.2,0.7-10.1,3.3-10.3,2.6c-1.1-4.5,0.3-8.6,3.2-9.4C519.2,35.6,522.4,38.7,523.5,43.1z"/>
				<path class="st1" d="M543.6,38.1c0.2,0.7-10.1,3.3-10.3,2.6c-1.1-4.5,0.3-8.6,3.2-9.4S542.5,33.7,543.6,38.1z"/>
			</g>
		</g>
		<g>
			<path class="st0" d="M504.2,220.5h15.7h36.4h15.6v51.5c0,21.5-12.5,33.9-33.8,33.9c-21.4,0-33.9-12.4-33.9-33.9V220.5z"/>
			<g>
				<rect x="523.1" y="290.1" class="st0" width="7.4" height="41.5"/>
				<path class="st0" d="M519.6,316.1h10.8v15.4h-26.2v0C504.2,323,511.1,316.1,519.6,316.1z"/>
			</g>
			<g>
				
					<rect x="545.4" y="295.6" transform="matrix(-0.9263 0.3768 -0.3768 -0.9263 1176.8744 402.4055)" class="st0" width="7.4" height="41.5"/>
				<path class="st0" d="M557.7,318.5l-10,4.1l5.8,14.3l24.3-9.9l0,0C574.6,319.1,565.6,315.3,557.7,318.5z"/>
			</g>
			<path class="st1" d="M554.2,294.9L554.2,294.9c-0.1,0-0.2,0-0.3,0c-4.4-0.2-6.5-5.7-3.3-8.8l3.6-3.6l3.6,3.6
				c3.1,3.1,1.1,8.6-3.3,8.8C554.4,294.9,554.3,294.9,554.2,294.9z"/>
			<g>
				<path class="st1" d="M541.8,265.1c0-0.7,10.6-0.7,10.6,0c0,4.6-2.4,8.3-5.4,8.3C544.2,273.4,541.8,269.7,541.8,265.1z"/>
				<path class="st1" d="M521.1,265c0-0.7,10.6-0.7,10.6,0c0,4.6-2.4,8.3-5.4,8.3C523.4,273.4,521.1,269.6,521.1,265z"/>
			</g>
		</g>
		<g>
			<path class="st0" d="M497.9,436.9h15.7h36.4h15.6v51.5c0,21.5-12.5,33.9-33.8,33.9c-21.4,0-33.9-12.4-33.9-33.9V436.9z"/>
			<g>
				
					<rect x="498.7" y="489.3" transform="matrix(-5.565845e-08 1 -1 -5.565845e-08 1021.037 16.2758)" class="st0" width="7.4" height="58.8"/>
				<path class="st0" d="M488.4,511.5v10.8H473v-26.2l0,0C481.5,496.1,488.4,503,488.4,511.5z"/>
			</g>
			<g>
				
					<rect x="558.1" y="488.6" transform="matrix(4.669369e-06 1 -1 4.669369e-06 1080.4468 -43.1392)" class="st0" width="7.4" height="60"/>
				<path class="st0" d="M576.4,511.5l0,10.8l15.4,0l0-26.2l0,0C583.3,496.1,576.4,503,576.4,511.5z"/>
			</g>
			<path class="st0" d="M538,412.9l-0.7-0.8l-5.1-5.6l-6.4,5.8c-1.7,1.6-2.6,3.5-2.8,5.5c-0.5,4.5,2.5,9.2,7.8,9.7
				c0.2,0,0.3,0,0.5,0c0.2,0,0.3,0,0.5,0C539.2,427.6,543,418.5,538,412.9z"/>
			<g>
				<path class="st1" d="M537.3,454.9c0-4.6,2.4-8.3,5.4-8.3c2.9,0,5.3,3.8,5.3,8.4c0,1.3-0.2,2.5-0.5,3.5h-9.6
					C537.5,457.5,537.3,456.2,537.3,454.9z"/>
				<path class="st1" d="M516.6,454.8c0-4.6,2.4-8.3,5.4-8.3c2.9,0,5.3,3.8,5.3,8.4c0,1.3-0.2,2.6-0.6,3.7h-9.5
					C516.8,457.4,516.6,456.2,516.6,454.8z"/>
			</g>
		</g>
	</g>
	<g>
		<g>
			<path class="st0" d="M36.9,220.4h15.7H89h15.6v51.5c0,21.5-12.5,33.9-33.8,33.9c-21.4,0-33.9-12.4-33.9-33.9V220.4z"/>
			<path class="st0" d="M78.2,214L78.2,214c-0.1-0.1-0.3-0.1-0.4-0.2c-6.4-3.5-5.4-13.1,1.5-15.5l8-2.7l2.7,8
				c2.4,7-4.6,13.6-11.4,10.7C78.4,214.2,78.3,214.1,78.2,214z"/>
			<rect x="60.1" y="290.1" class="st0" width="7.4" height="41.5"/>
			
				<rect x="78.2" y="297.2" transform="matrix(0.8427 -0.5384 0.5384 0.8427 -153.2626 92.6057)" class="st0" width="7.4" height="22.8"/>
			<path class="st0" d="M56.6,316.1h10.8v15.4H41.2v0C41.2,323,48.1,316.1,56.6,316.1z"/>
			
				<rect x="91.7" y="296.8" transform="matrix(-0.5384 -0.8427 0.8427 -0.5384 -115.1574 558.3582)" class="st0" width="7.4" height="27.8"/>
			<path class="st0" d="M97.9,317.5l-5.8-9.1l13-8.3l14.1,22.1h0C112,326.8,102.5,324.7,97.9,317.5z"/>
			<g>
				
					<ellipse transform="matrix(7.192066e-03 -1 1 7.192066e-03 -196.3946 290.4375)" class="st1" cx="48.1" cy="244.1" rx="8.3" ry="5.3"/>
				
					<ellipse transform="matrix(7.192066e-03 -1 1 7.192066e-03 -175.9637 311.3086)" class="st1" cx="68.8" cy="244.3" rx="8.3" ry="5.3"/>
			</g>
		</g>
		<g>
			<path class="st0" d="M36.9,411.2v51.5c0,21.5,12.5,33.9,33.9,33.9c3.3,0,6.3-0.3,9.1-0.9c5.5-1.1,10.2-3.3,14-6.4
				c6.9-5.8,10.7-14.8,10.7-26.6v-51.5H36.9z"/>
			<g>
				<rect x="55.8" y="480.7" class="st0" width="7.4" height="41.5"/>
				<path class="st0" d="M52.3,506.8h10.8v15.4H36.9l0,0C36.9,513.7,43.8,506.8,52.3,506.8z"/>
			</g>
			<g>
				
					<rect x="75.2" y="486" transform="matrix(-0.9048 0.4259 -0.4259 -0.9048 366.0075 931.5303)" class="st0" width="7.4" height="41.5"/>
				<path class="st0" d="M87.6,508.4l-9.8,4.6l6.6,14l23.7-11.2h0C104.5,508.1,95.3,504.8,87.6,508.4z"/>
			</g>
			<path class="st0" d="M89.1,505.1c-0.2,0-0.3,0-0.5,0c-0.2,0-0.3,0-0.5,0c-5.2-0.2-8.5-4.8-8.2-9.3c5.5-1.1,10.2-3.3,14-6.4
				l0.8,0.8C100,495.5,96.6,504.8,89.1,505.1z"/>
			<line class="st0" x1="85.6" y1="443.3" x2="76.1" y2="443.3"/>
			<line class="st0" x1="64.9" y1="443.3" x2="55.3" y2="443.3"/>
			<path class="st1" d="M93.9,489.4c-3.8,3.1-8.5,5.3-14,6.4c0.1-2,0.9-4,2.6-5.7l6.1-6.1L93.9,489.4z"/>
			<g>
				<path class="st1" d="M70.5,448.4c0,4.6-2.4,8.3-5.4,8.3c-2.9,0-5.3-3.8-5.3-8.4c0-1.3,0.2-2.5,0.5-3.5H70
					C70.3,445.9,70.5,447.1,70.5,448.4z"/>
				<path class="st1" d="M91.2,448.6c0,4.6-2.4,8.3-5.4,8.3c-2.9,0-5.3-3.8-5.3-8.4c0-1.3,0.2-2.6,0.6-3.7h9.5
					C91,446,91.2,447.2,91.2,448.6z"/>
			</g>
		</g>
		<g>
			<g>
				
					<rect x="48.1" y="86.1" transform="matrix(0.7071 0.7071 -0.7071 0.7071 90.7037 -5.3453)" class="st2" width="7.4" height="41.5"/>
				<path class="st2" d="M43,105.5l7.6,7.6l-10.9,10.9l-18.6-18.6l0,0C27.2,99.5,37,99.5,43,105.5z"/>
			</g>
			<g>
				
					<rect x="89.3" y="95.5" transform="matrix(-1 -4.483670e-11 4.483670e-11 -1 186.0045 232.5474)" class="st2" width="7.4" height="41.5"/>
				<path class="st2" d="M100.1,121.6H89.3V137h26.2v0C115.6,128.5,108.7,121.6,100.1,121.6z"/>
			</g>
			
				<rect x="55.2" y="26.2" transform="matrix(0.9774 0.2113 -0.2113 0.9774 12.8536 -17.5782)" class="st3" width="66.9" height="50.4"/>
			<ellipse transform="matrix(0.937 -0.3494 0.3494 0.937 -21.8882 33.891)" class="st2" cx="83" cy="77.6" rx="33.4" ry="33.4"/>
			<g>
				<ellipse transform="matrix(0.2055 -0.9787 0.9787 0.2055 12.2763 115.0423)" class="st1" cx="77" cy="50" rx="9.4" ry="6"/>
				<ellipse transform="matrix(0.2055 -0.9787 0.9787 0.2055 25.8053 141.3517)" class="st1" cx="100" cy="54.8" rx="9.4" ry="6"/>
			</g>
		</g>
	</g>
</g>
</svg>
